<svg xmlns="http://www.w3.org/2000/svg" xmlns:xlink="http://www.w3.org/1999/xlink" width="180" height="180" viewBox="0 0 180 180">
  <defs>
    <clipPath id="clip-path">
      <rect id="Rectangle_404175" data-name="Rectangle 404175" width="94.628" height="94.644" fill="#12263f"/>
    </clipPath>
  </defs>
  <g id="img15" transform="translate(-358.668 -5326)">
    <rect id="Rectangle_403656" data-name="Rectangle 403656" width="180" height="180" transform="translate(358.668 5326)" fill="none"/>
    <g id="Group_1101106" data-name="Group 1101106" transform="translate(-148.045 -2662)">
      <g id="Group_1101010" data-name="Group 1101010" transform="translate(601.04 7999.387)">
        <path id="Path_875656" data-name="Path 875656" d="M213.638,10.626,141.848,82.417v2.494h2.494L216.133,13.12V10.626Z" transform="translate(-141.846 -10.626)" fill="#225a78"/>
        <path id="Path_875657" data-name="Path 875657" d="M202.64,10.626,141.848,71.419v4.989l65.781-65.782Z" transform="translate(-141.846 -10.626)" fill="#225a78"/>
        <path id="Path_875658" data-name="Path 875658" d="M191.64,10.626,141.847,60.42v4.988l54.782-54.783Z" transform="translate(-141.846 -10.626)" fill="#225a78"/>
        <path id="Path_875659" data-name="Path 875659" d="M180.642,10.626l-38.8,38.8V54.41l43.784-43.784Z" transform="translate(-141.846 -10.626)" fill="#225a78"/>
        <path id="Path_875660" data-name="Path 875660" d="M169.644,10.626l-27.8,27.8v4.988l32.786-32.786Z" transform="translate(-141.846 -10.626)" fill="#225a78"/>
        <path id="Path_875661" data-name="Path 875661" d="M158.645,10.626l-16.8,16.8v4.989l21.787-21.787Z" transform="translate(-141.846 -10.626)" fill="#225a78"/>
        <path id="Path_875662" data-name="Path 875662" d="M147.646,10.626l-5.8,5.8v4.989l10.788-10.788Z" transform="translate(-141.846 -10.626)" fill="#225a78"/>
        <path id="Path_875663" data-name="Path 875663" d="M268.109,147.676H273.1l5.8-5.8v-4.988Z" transform="translate(-204.61 -73.39)" fill="#225a78"/>
        <path id="Path_875664" data-name="Path 875664" d="M246.238,136.8h4.989l16.8-16.8v-4.988Z" transform="translate(-193.738 -62.518)" fill="#225a78"/>
        <path id="Path_875665" data-name="Path 875665" d="M224.368,125.933h4.989l27.8-27.8V93.147Z" transform="translate(-182.867 -51.646)" fill="#225a78"/>
        <path id="Path_875666" data-name="Path 875666" d="M202.5,115.061h4.989l38.795-38.8V71.277Z" transform="translate(-171.996 -40.775)" fill="#225a78"/>
        <path id="Path_875667" data-name="Path 875667" d="M180.628,104.19h4.988L235.41,54.4V49.407Z" transform="translate(-161.123 -29.904)" fill="#225a78"/>
        <path id="Path_875668" data-name="Path 875668" d="M158.757,93.318h4.989l60.792-60.793V27.536Z" transform="translate(-150.252 -19.032)" fill="#225a78"/>
      </g>
      <rect id="Rectangle_403642" data-name="Rectangle 403642" width="62.268" height="62.267" transform="translate(518.1 8094.346)" fill="none" stroke="#225a78" stroke-linecap="round" stroke-linejoin="round" stroke-width="2"/>
      <rect id="Rectangle_403641" data-name="Rectangle 403641" width="135.46" height="135.39" transform="translate(530.543 8008.745)" fill="#88c0de"/>
      <g id="Group_1101538" data-name="Group 1101538" transform="translate(551.233 8026.351)">
        <g id="Group_1101537" data-name="Group 1101537" clip-path="url(#clip-path)">
          <path id="Path_876185" data-name="Path 876185" d="M55.65,29.311c.167-1.128,2.839-4.64,2.707-5.455-.027-.168-.642-.355-.885-.628a9.209,9.209,0,0,1,10.2-14.836c8.533,3.352,6.611,16.535-1.892,17.5-.861.1-4.559-.263-4.76-.135a35.021,35.021,0,0,0-2.7,5.1,20.621,20.621,0,0,1,8.835,14.269c5.194-.339,10.392-.27,15.567-.709,1.039-5.558,9.045-6.411,11.277-1.132,3.324,7.858-8.414,12.215-11.43,4.305l-15.449.5a20.3,20.3,0,0,1-4.6,12.121l7.162,7.354c8.084-6.655,20.891-3.132,24.141,6.881,4.581,14.111-11.244,25.88-23.366,17.268a15.37,15.37,0,0,1-2.888-22.036l-7.19-7.156c-1.583.772-2.873,2.01-4.481,2.764a20.575,20.575,0,0,1-12.886,1.429c-.8-.164-2.64-1.063-3.212-.7-.622.391-2.384,5.23-3.14,6.114a10.736,10.736,0,0,1-.6,17.964C27.945,94.872,18,87.686,20.113,78.535c1.464-6.337,7.691-9.5,13.845-7.872L37.1,64.219c-4-2.27-6.676-6.02-8.506-10.159L15.642,57.477c-.515,3.008-1.317,5.726-4.217,7.247a7.587,7.587,0,0,1-10.532-9.8c2.527-5.7,10.88-5.9,13.56-.258L27.829,51A20.46,20.46,0,0,1,32.2,34.51l-7.161-7.353A15.369,15.369,0,0,1,2.107,22.973C-5.61,9.357,9.349-5.612,22.972,2.109a15.36,15.36,0,0,1,4.184,22.936l7.039,7.084c.5.249,3.184-1.96,3.973-2.375a20.439,20.439,0,0,1,17.483-.442m-31.217-6.1C32.592,14.114,23.607.324,11.8,3.625,3.389,5.974.583,16.528,5.9,23.211L6.752,19.8c.833-1.892,2.023-3.811,4.015-4.648-1.5-2.531-2.217-5.039-.531-7.723C14.77.215,25.829,8.229,19.8,14.8c2.745,2,4.9,4.835,4.633,8.416M18.373,10.772A3.031,3.031,0,1,0,15.342,13.8a3.031,3.031,0,0,0,3.031-3.031m51.856,6.1a6.093,6.093,0,1,0-6.093,6.093,6.093,6.093,0,0,0,6.093-6.093M21.26,21.505c-1.583-6.059-10.3-6.223-11.708,0Zm1.951,2.927H7.6c-.137.568.11.4.309.558,4.406,3.463,11.334,3.514,15.3-.558M64.125,47.357A16.768,16.768,0,1,0,47.357,64.126,16.768,16.768,0,0,0,64.125,47.357M91.571,45.83a3.055,3.055,0,1,0-3.054,3.055,3.054,3.054,0,0,0,3.054-3.055M12.288,58.03a4.56,4.56,0,1,0-4.56,4.56,4.561,4.561,0,0,0,4.56-4.56m76.3,29.092c6.024-6.525,2.348-17.52-6.15-19.587a12.217,12.217,0,0,0-12.268,19.83,9.478,9.478,0,0,1,4.751-8.414C70.1,73.513,76.694,65.689,82.857,69.8a6.178,6.178,0,0,1,1.1,9.127c2.779,2.017,4.568,4.656,4.628,8.2M82.443,74.8A3.047,3.047,0,1,0,79.4,77.845,3.047,3.047,0,0,0,82.443,74.8m-44.26,6.1a7.615,7.615,0,1,0-7.615,7.615A7.615,7.615,0,0,0,38.183,80.9m46.986,4.514c-1.456-6.007-10.055-5.855-11.708,0Zm1.951,3.171H71.509l2.029,1.508c4.238,2.29,10.069,1.924,13.583-1.508" transform="translate(0 0)" fill="#12263f"/>
          <path id="Path_876186" data-name="Path 876186" d="M164.621,152.318a10.315,10.315,0,0,1,6.465,6.588c.411,1.3,1.25,4.077-.372,4.752h-19.5c-1.624-.675-.783-3.455-.373-4.752a10.315,10.315,0,0,1,6.465-6.588c-3.926-2.584-5.371-7.6-2.4-11.542a7.721,7.721,0,0,1,12.21.146c2.853,3.969,1.373,8.828-2.495,11.4m.922-6.836a4.584,4.584,0,1,0-4.584,4.584,4.584,4.584,0,0,0,4.584-4.584m2.737,15.132c-1.386-7.871-13.257-7.86-14.636,0Z" transform="translate(-113.601 -104.227)" fill="#12263f"/>
        </g>
      </g>
    </g>
  </g>
</svg>
