<svg xmlns="http://www.w3.org/2000/svg" xmlns:xlink="http://www.w3.org/1999/xlink" width="180" height="180" viewBox="0 0 180 180">
  <defs>
    <clipPath id="clip-path">
      <rect id="Rectangle_404174" data-name="Rectangle 404174" width="95.161" height="95.072" fill="#12263f"/>
    </clipPath>
  </defs>
  <g id="img14" transform="translate(-358.668 -5326)">
    <rect id="Rectangle_403656" data-name="Rectangle 403656" width="180" height="180" transform="translate(358.668 5326)" fill="none"/>
    <g id="Group_1101106" data-name="Group 1101106" transform="translate(-148.045 -2662)">
      <g id="Group_1101010" data-name="Group 1101010" transform="translate(601.04 7999.387)">
        <path id="Path_875656" data-name="Path 875656" d="M213.638,10.626,141.848,82.417v2.494h2.494L216.133,13.12V10.626Z" transform="translate(-141.846 -10.626)" fill="#225a78"/>
        <path id="Path_875657" data-name="Path 875657" d="M202.64,10.626,141.848,71.419v4.989l65.781-65.782Z" transform="translate(-141.846 -10.626)" fill="#225a78"/>
        <path id="Path_875658" data-name="Path 875658" d="M191.64,10.626,141.847,60.42v4.988l54.782-54.783Z" transform="translate(-141.846 -10.626)" fill="#225a78"/>
        <path id="Path_875659" data-name="Path 875659" d="M180.642,10.626l-38.8,38.8V54.41l43.784-43.784Z" transform="translate(-141.846 -10.626)" fill="#225a78"/>
        <path id="Path_875660" data-name="Path 875660" d="M169.644,10.626l-27.8,27.8v4.988l32.786-32.786Z" transform="translate(-141.846 -10.626)" fill="#225a78"/>
        <path id="Path_875661" data-name="Path 875661" d="M158.645,10.626l-16.8,16.8v4.989l21.787-21.787Z" transform="translate(-141.846 -10.626)" fill="#225a78"/>
        <path id="Path_875662" data-name="Path 875662" d="M147.646,10.626l-5.8,5.8v4.989l10.788-10.788Z" transform="translate(-141.846 -10.626)" fill="#225a78"/>
        <path id="Path_875663" data-name="Path 875663" d="M268.109,147.676H273.1l5.8-5.8v-4.988Z" transform="translate(-204.61 -73.39)" fill="#225a78"/>
        <path id="Path_875664" data-name="Path 875664" d="M246.238,136.8h4.989l16.8-16.8v-4.988Z" transform="translate(-193.738 -62.518)" fill="#225a78"/>
        <path id="Path_875665" data-name="Path 875665" d="M224.368,125.933h4.989l27.8-27.8V93.147Z" transform="translate(-182.867 -51.646)" fill="#225a78"/>
        <path id="Path_875666" data-name="Path 875666" d="M202.5,115.061h4.989l38.795-38.8V71.277Z" transform="translate(-171.996 -40.775)" fill="#225a78"/>
        <path id="Path_875667" data-name="Path 875667" d="M180.628,104.19h4.988L235.41,54.4V49.407Z" transform="translate(-161.123 -29.904)" fill="#225a78"/>
        <path id="Path_875668" data-name="Path 875668" d="M158.757,93.318h4.989l60.792-60.793V27.536Z" transform="translate(-150.252 -19.032)" fill="#225a78"/>
      </g>
      <rect id="Rectangle_403642" data-name="Rectangle 403642" width="62.268" height="62.267" transform="translate(518.1 8094.346)" fill="none" stroke="#225a78" stroke-linecap="round" stroke-linejoin="round" stroke-width="2"/>
      <rect id="Rectangle_403641" data-name="Rectangle 403641" width="135.46" height="135.39" transform="translate(530.543 8008.745)" fill="#88c0de"/>
      <g id="Group_1101536" data-name="Group 1101536" transform="translate(550.693 8028.903)">
        <g id="Group_1101535" data-name="Group 1101535" clip-path="url(#clip-path)">
          <path id="Path_876174" data-name="Path 876174" d="M2.677,34.982C-.6,34.442-.187,29.548.4,27.167L45.463.972C46.5.513,47.3-.43,48.515.223L94.794,27.167c.437.451.429,4.66.257,5.425-.2.881-1.628,2.39-2.533,2.39H88.826l-.37,46.644c.24,1.3,2.794.008,3.283,1.163a36.646,36.646,0,0,1,.056,7.6c-.195.711-.836.672-1.481.727a116.138,116.138,0,0,1-15.529,0c-1.013-.093-1.641-.256-1.819-1.381a36.91,36.91,0,0,1,.093-6.522c.507-1.561,3.337-.783,3.337-.97V34.982H18.8V82.241c0,.187,2.83-.591,3.337.97a36.911,36.911,0,0,1,.093,6.522c-.178,1.124-.806,1.288-1.819,1.381a116.138,116.138,0,0,1-15.529,0C4.237,91.058,3.6,91.1,3.4,90.385A50.925,50.925,0,0,1,3.333,82.9c.431-1.28,3.167.021,3.406-1.271l-.37-46.644c-1.14-.13-2.608.179-3.692,0m4.554-8.123H87.965L47.519,3.022ZM2.779,32.289H92.417V29.567H2.779Zm13.067,2.693h-6.4V82.241h6.4Zm63.5,47.259h6.4V34.982h-6.4ZM19.292,88.148c-.061-.555.233-3.2-.369-3.2H6v3.2Zm69.9-3.2H76.273c-.6,0-.308,2.645-.369,3.2H89.2Z" transform="translate(0 0)" fill="#12263f"/>
          <path id="Path_876175" data-name="Path 876175" d="M172.4,32.915a10.167,10.167,0,1,1-10.167-10.167A10.167,10.167,0,0,1,172.4,32.915m-2.828-.036a7.34,7.34,0,1,0-7.34,7.34,7.34,7.34,0,0,0,7.34-7.34" transform="translate(-114.64 -17.149)" fill="#12263f"/>
          <path id="Path_876176" data-name="Path 876176" d="M182.24,36.776c.2.2.668.219.906.442.926.869,2.576,2.828.682,3.625-1.624.683-1.709-1.431-3.023-1.534-.746-.059-1.352.291-1.1,1.086.05.161,2.711.748,3.215,1a3.336,3.336,0,0,1,.991,5.425c-.54.528-1.385.675-1.662.921-.437.389-.285,1.487-1.651,1.4-1.182-.071-1.024-.994-1.435-1.41s-1.271-.568-1.9-1.419c-.97-1.3-1.131-3.381.865-3.09,1.176.172.759.791,1.334,1.383s2.91.554,2.721-.258c-1.4-1.142-3.037-.623-4.433-1.969-1.7-1.642-1.053-3.715.511-5.163a8.891,8.891,0,0,0,1.341-1.354c1.567-1.867,2,.265,2.646.912" transform="translate(-133.101 -26.471)" fill="#12263f"/>
          <path id="Path_876177" data-name="Path 876177" d="M132.318,203.287H101.427c-.7,0-2.219-1.469-2.1-2.333l-.006-47.276a2.74,2.74,0,0,1,2.59-2.579l34.443.028a2.787,2.787,0,0,1,1.386.583A80.64,80.64,0,0,1,145,158.977a2.155,2.155,0,0,1,.559.918l.039,27.036c.216,1.617,2.336,1.408,1.988,4.424-.094.81-.612,1.427-.723,2.23-.12.867.1,1.764-.078,2.629-.171.848-1.05,1.412-1.169,2.031-.312,1.628.666,3.105-.976,4.439-.372.3-1.082.384-1.213.756-.438,1.245.8,5.187-1.151,5.51-1.642.272-3.3-2.2-4.418-2.2-1.236,0-3.089,2.926-4.8,2.079a3.347,3.347,0,0,1-.736-.985Zm2.954-49.228H102.042v46.151a2.469,2.469,0,0,0,.369.369h29.537c.421,0,.449-1.066.248-1.479-.394-.807-2.58-.7-3.209-2.7a11.057,11.057,0,0,1-.116-1.236c-.466-.5-11.959.416-13.607-.053a1.491,1.491,0,0,1-.849-2.347,9.947,9.947,0,0,1,1.042-.554h12.922c-1.582-3.324,2.423-3.865,1.969-6.892h-15.63c-.553,0-1.211-2.459.726-2.72,6.368-.469,13.714.663,19.963.025,1.451-.148,2.015-.891,3.736-.317.805.269,1.225,1.06,2.217,1.231.368.064,1.541.151,1.541-.313V161.69h-5.784c-.473,0-1.846-1.151-1.846-1.6Zm5.168,4.675c.3-.263-2.2-2.754-2.459-2.459l0,2.461Zm-2.778,26.119c-.394.1-1.238,1.147-1.887,1.338-.736.216-2.3-.091-2.606.348a20.844,20.844,0,0,1-.641,2.312c-.335.578-1.555,1.388-1.661,1.811-.093.371.885,1.921.95,2.687.057.674-.348,1.468-.212,1.895.179.562,1.927,1.124,2.419,1.538.437.368,1.018,1.673,1.415,1.8.569.186,1.611-.487,2.418-.486s1.623.578,2.21.517c.811-.084,1.061-1.346,1.622-1.834.487-.424,2.022-.882,2.329-1.373.3-.475-.181-1.362-.122-2.059.066-.766,1.043-2.316.95-2.687-.106-.422-1.326-1.232-1.661-1.811-.365-.631-.536-2.281-.759-2.441-.375-.27-1.663-.018-2.3-.158-.833-.182-1.844-1.562-2.461-1.4m2.755,16.734a16.128,16.128,0,0,0-2.56-.533,16.128,16.128,0,0,0-2.56.533c-.182.211.08,2.63-.022,3.176,2.251-1.573,2.914-1.573,5.164,0-.1-.546.16-2.965-.022-3.176" transform="translate(-74.874 -113.908)" fill="#12263f"/>
          <path id="Path_876178" data-name="Path 876178" d="M160.581,239.161l23.089-.057a1.491,1.491,0,0,1,.254,2.971l-22.908-.008a1.474,1.474,0,0,1-.435-2.905" transform="translate(-120.192 -180.251)" fill="#12263f"/>
          <path id="Path_876179" data-name="Path 876179" d="M160.22,200.136l23.59-.065a1.367,1.367,0,0,1,0,2.733H160.648a1.369,1.369,0,0,1-.428-2.668" transform="translate(-120.077 -150.826)" fill="#12263f"/>
          <path id="Path_876180" data-name="Path 876180" d="M123.5,238.874c1.552-.357,4.953-.244,3.879,2.158-.441.987-3.486.972-4.3.615a1.508,1.508,0,0,1,.416-2.772" transform="translate(-92.212 -179.964)" fill="#12263f"/>
          <path id="Path_876181" data-name="Path 876181" d="M127.122,320.514c-.561.563-4.465.61-4.826-.608-.791-2.673,4.66-2.554,5.087-1.129a2.349,2.349,0,0,1-.261,1.738" transform="translate(-92.135 -239.562)" fill="#12263f"/>
          <path id="Path_876182" data-name="Path 876182" d="M123.406,200.123H127.1c.823,0,.823,2.708,0,2.708h-3.692c-.844,0-1.286-2.28,0-2.708" transform="translate(-92.422 -150.865)" fill="#12263f"/>
          <path id="Path_876183" data-name="Path 876183" d="M122.8,281.528a8.639,8.639,0,0,1-.5-1.128c-.292-1.942,2.784-1.758,4.048-1.563,1.949.3,1.02,2.691.509,2.691-.619,0-3.889.107-4.061,0" transform="translate(-92.187 -210.117)" fill="#12263f"/>
          <path id="Path_876184" data-name="Path 876184" d="M247.124,303.227a4.245,4.245,0,1,1-4.245-4.245,4.245,4.245,0,0,1,4.245,4.245m-2.862.019a1.385,1.385,0,1,0-1.385,1.385,1.385,1.385,0,0,0,1.385-1.385" transform="translate(-179.896 -225.391)" fill="#12263f"/>
        </g>
      </g>
    </g>
  </g>
</svg>
