<svg xmlns="http://www.w3.org/2000/svg" xmlns:xlink="http://www.w3.org/1999/xlink" width="180" height="180" viewBox="0 0 180 180">
  <defs>
    <clipPath id="clip-path">
      <rect id="Rectangle_404172" data-name="Rectangle 404172" width="95.483" height="95.538" fill="#12263f"/>
    </clipPath>
  </defs>
  <g id="img12" transform="translate(-358.668 -5326)">
    <rect id="Rectangle_403656" data-name="Rectangle 403656" width="180" height="180" transform="translate(358.668 5326)" fill="none"/>
    <g id="Group_1101106" data-name="Group 1101106" transform="translate(-148.045 -2662)">
      <g id="Group_1101010" data-name="Group 1101010" transform="translate(601.04 7999.387)">
        <path id="Path_875656" data-name="Path 875656" d="M213.638,10.626,141.848,82.417v2.494h2.494L216.133,13.12V10.626Z" transform="translate(-141.846 -10.626)" fill="#225a78"/>
        <path id="Path_875657" data-name="Path 875657" d="M202.64,10.626,141.848,71.419v4.989l65.781-65.782Z" transform="translate(-141.846 -10.626)" fill="#225a78"/>
        <path id="Path_875658" data-name="Path 875658" d="M191.64,10.626,141.847,60.42v4.988l54.782-54.783Z" transform="translate(-141.846 -10.626)" fill="#225a78"/>
        <path id="Path_875659" data-name="Path 875659" d="M180.642,10.626l-38.8,38.8V54.41l43.784-43.784Z" transform="translate(-141.846 -10.626)" fill="#225a78"/>
        <path id="Path_875660" data-name="Path 875660" d="M169.644,10.626l-27.8,27.8v4.988l32.786-32.786Z" transform="translate(-141.846 -10.626)" fill="#225a78"/>
        <path id="Path_875661" data-name="Path 875661" d="M158.645,10.626l-16.8,16.8v4.989l21.787-21.787Z" transform="translate(-141.846 -10.626)" fill="#225a78"/>
        <path id="Path_875662" data-name="Path 875662" d="M147.646,10.626l-5.8,5.8v4.989l10.788-10.788Z" transform="translate(-141.846 -10.626)" fill="#225a78"/>
        <path id="Path_875663" data-name="Path 875663" d="M268.109,147.676H273.1l5.8-5.8v-4.988Z" transform="translate(-204.61 -73.39)" fill="#225a78"/>
        <path id="Path_875664" data-name="Path 875664" d="M246.238,136.8h4.989l16.8-16.8v-4.988Z" transform="translate(-193.738 -62.518)" fill="#225a78"/>
        <path id="Path_875665" data-name="Path 875665" d="M224.368,125.933h4.989l27.8-27.8V93.147Z" transform="translate(-182.867 -51.646)" fill="#225a78"/>
        <path id="Path_875666" data-name="Path 875666" d="M202.5,115.061h4.989l38.795-38.8V71.277Z" transform="translate(-171.996 -40.775)" fill="#225a78"/>
        <path id="Path_875667" data-name="Path 875667" d="M180.628,104.19h4.988L235.41,54.4V49.407Z" transform="translate(-161.123 -29.904)" fill="#225a78"/>
        <path id="Path_875668" data-name="Path 875668" d="M158.757,93.318h4.989l60.792-60.793V27.536Z" transform="translate(-150.252 -19.032)" fill="#225a78"/>
      </g>
      <rect id="Rectangle_403642" data-name="Rectangle 403642" width="62.268" height="62.267" transform="translate(518.1 8094.346)" fill="none" stroke="#225a78" stroke-linecap="round" stroke-linejoin="round" stroke-width="2"/>
      <rect id="Rectangle_403641" data-name="Rectangle 403641" width="135.46" height="135.39" transform="translate(530.543 8008.745)" fill="#88c0de"/>
      <g id="Group_1101532" data-name="Group 1101532" transform="translate(550.532 8028.942)">
        <g id="Group_1101531" data-name="Group 1101531" clip-path="url(#clip-path)">
          <path id="Path_876169" data-name="Path 876169" d="M5.132,37.013c2.024.788,5.342,3.737,7.22,4.24a13.514,13.514,0,0,0,4.489-.886c.208-.274.115-.46-.012-.728-.291-.617-2.127-1.939-2.706-2.785-1.938-2.827-2.006-7.14-1.719-10.472.46-5.34,5.892-9.859,11.228-9.423-.216-.687-1.759-3.657-1.564-4.049l7.777-7.774a.566.566,0,0,1,.532-.075c1.085.273,3.729,2.95,4.776,2.79,1.2-.183,4.012-2.161,5.551-2.343L41.785.026,53.571,0,54.9,5.627c1.347-.012,4.726,2.249,5.615,2.248.834,0,3.421-2.34,4.431-2.73.258-.1.432-.2.694-.009l7.777,7.774c.227.457-1.418,3.291-1.564,4.049A10.97,10.97,0,0,1,82.7,24.851c.926,3.213.639,8.979-1.255,11.852-.622.944-2.494,2.3-2.793,2.937-.127.269-.22.454-.012.728.328.431,7.286,1.562,8.328,2.322.929-.152,4.291-2.573,4.813-2.573h3.7V62.436L68.027,76.276c-.459,2.2-.937,4-3.17,4.946-.392.165-1.75.387-1.809.46-.137.167-.2,2.126-1.225,3.191-1.146,1.193-3.2,1.192-3.334,1.321-.056.056-.071,1.1-.23,1.561a4.724,4.724,0,0,1-2.7,2.785c-.44.192-1.087.108-1.374.3-.261.171-.508,1.428-.74,1.885a4.833,4.833,0,0,1-6.715,2.239c-.551-.268-2.062-1.773-2.2-1.784a17.586,17.586,0,0,1-2.626.842,5.1,5.1,0,0,1-4.23-2.411,15.5,15.5,0,0,1-.7-2.289c-.39-.387-2.938-.26-4.077-2.488a11.642,11.642,0,0,1-.46-2.046c-.053-.065-1.29-.254-1.635-.395A5.429,5.429,0,0,1,28.356,82.3c-.324-.575-.6-2.213-.7-2.288a7.152,7.152,0,0,1-2.708-.991c-1.706-1.36-1.268-2.738-2.043-3.687-.212-.26-4.332-2.686-4.526-2.514.141,1.924-1.845,1.065-3.168,1.137L0,69V37.013ZM51.052,3.148H44.431c-.423.275-.592,4.206-1.223,4.865-.244.255-4.079,1.378-4.937,1.747-.775.333-2.621,1.58-3.119,1.68-1.178.235-3.332-2.124-4.37-2.484-.207-.072-.219-.128-.46-.005a46.649,46.649,0,0,0-4.711,4.787c.677.912,1.055,3.266,1.586,4.018.321.454,3.082,1.463,3.478,2.546,7.578-12.325,26.242-12.745,33.781-.236l.342-.008c.72-1.032,2.677-1.564,3.345-2.387a16.27,16.27,0,0,0,1.564-3.923c-.077-.733-3.978-4.028-4.692-4.875-.473-.082-3.506,2.655-4.481,2.606-.391-.02-2.771-1.479-3.489-1.787-.995-.428-4.677-1.379-4.954-1.969-.355-.756-.7-4.356-1.037-4.573M66.074,39.442c-.057-.1-1.37-1.032-1.746-1.471-3-3.511-3.342-8.5-2.386-12.895.154-.709.83-1.749.663-2.311-.632-2.138-4.7-5.639-6.665-6.722a16.8,16.8,0,0,0-18.816,1.642c-1.02.827-4.474,4.361-4.367,5.563.036.407.651,1.441.788,2.061.958,4.335.558,9.213-2.392,12.662-.572.669-2.54,1.761-1.559,2.509a54.459,54.459,0,0,0,5.852,1.428,38.653,38.653,0,0,0,5.478-1.326c.252-.07.47-.085.608-.351.188-.686-1.987-2.323-2.489-2.994-2.624-3.5-2.812-10.632-.9-14.47a10.733,10.733,0,0,1,18.289-1.253c2.833,4.116,3,11.849-.1,15.858-.481.622-2.815,2.293-2.28,3A38.555,38.555,0,0,0,60.188,41.9a55.731,55.731,0,0,0,5.7-1.417.908.908,0,0,0,.187-1.037m-41.487,8.79v3.342a35.932,35.932,0,0,0,4.751-.978c.093-.108.02-2.232.132-2.853.288-1.592,1.534-2.569,1.8-3.455.146-.489-.134-.3-.357-.347-1.556-.362-3.1-.759-4.661-1.1l0-4.948c5.369-2.293,5.938-11,2.625-15.081A7.554,7.554,0,0,0,15.506,27.1c-.293,3.929-.272,6.937,2.761,9.673.728.657,1.643.653,1.8,1.784a24.6,24.6,0,0,1-.117,4.2c-.349.5-2.87.345-3.236,1.177Zm38.67,6.8a44.556,44.556,0,0,0,0-5.49,7.811,7.811,0,0,0-1.087-2.971c-1.854-2.4-8.441-2.533-11.22-3.818a23.357,23.357,0,0,1-.06-4.624C51,37.786,53.128,36.4,53.7,35.695c2.432-3,2.364-9.627.006-12.646-4.183-5.354-12.813-3-13.581,3.606-.43,3.7-.224,7.753,2.86,10.217.377.3,1.562.817,1.611.895a28.708,28.708,0,0,1-.067,4.989c-3.362,1.562-10.647,1.121-11.953,5.232-.933,2.936.779,1.574,2.633,1.441,5.408-.388,11.383,1.743,16.649,3.157,1.977.531,9.4,3.067,10.795,2.812.217-.039.537-.156.6-.363m2.864-7.161c.258,1.655-.19,3.884,0,5.61l16.709-8.829-7.294-1.9a23.358,23.358,0,0,1-.06-4.624c.109-.358,2.469-1.881,3.058-2.671,2-2.684,2.07-9.14.2-11.9a7.591,7.591,0,0,0-12.978.311c-1.807,3.2-1.587,9.588,1.072,12.311.56.573,2.363,1.448,2.415,1.892l-.02,4.9-5.01.958c.42,1.28,1.693,2.555,1.908,3.937M3.1,40.117V66.494c.736.4,6.419,2.505,6.683,2.268l5.441-22.054c-.054-.28-.368-.435-.586-.587A92.548,92.548,0,0,0,4.708,40.3c-.333-.121-1.456-.334-1.605-.185M92.38,43.458,63.742,58.385c-5.642.76-11.365-4.366-16.878-2.317a67.592,67.592,0,0,0-8.75,4.379c-2.049,1.456-1.064,4.4,1.14,4.249,1.6-.11,5.931-3.884,8-4.416,3-.771,5.184.609,7.282,2.52,3.9,3.652,7.92,7.271,11.935,10.731l25.907-13ZM15.751,70.91l5.727-19.961c.121-1.468-2.326-1.807-3.221-2.713L12.663,69.618l-.011.335ZM44.16,53.726c-6.856-2.817-13.7-.034-20.532,1.306L19.354,69.687l4.859,2.671c2.131-3.357,7.35-7.035,10.36-2.482a10.448,10.448,0,0,1,.792,2.429c.088.136,1.82.465,2.281.7,2.016,1.048,2.189,3.819,2.445,4a17.419,17.419,0,0,1,2.326.777c2.138,1.292,1.875,3.462,2.251,3.836.063.063.814.086,1.117.192,2.508.875,4.22,4.311,6.8,5.612,1.607.809,3.255-.08,2.668-1.952L46.83,78.192l1.635-2.266c.457-.319,7.677,6.282,8.7,6.925,1.439.779,3.2-.083,2.777-1.8l-8.272-7.283c-.252-.341,1.234-2.278,1.354-2.347a.687.687,0,0,1,.68.092l8.541,6.983c3.466.1,2.707-2.611.539-4.126C58.725,71.435,55.152,66.9,51.2,63.989c-2.959-2.184-6.53,1.559-9.268,2.9-7.139,3.506-10.939-5.566-5.487-9.067.567-.364,7.983-3.753,7.714-4.1M30.009,70.955a40.059,40.059,0,0,0-3.626,3.539c-.789,1.84.972,3.2,2.724,2.008a22.942,22.942,0,0,0,2.937-3.027c.624-1.51-.362-3.024-2.035-2.52m5.023,4.53c-1.318.222-5.744,4.3-3.509,5.792,1.571,1.051,4.16-1.617,4.959-2.889.9-1.433.26-3.191-1.45-2.9m4.289,4.78a16.145,16.145,0,0,0-3.7,3.476,1.738,1.738,0,0,0,2.33,2.322,38.181,38.181,0,0,0,3.4-3.518c.659-1.516-.49-2.621-2.034-2.28M44.1,84.8a21.969,21.969,0,0,0-3.871,3.544c-.745,1.619.835,2.965,2.5,2.258a42.056,42.056,0,0,0,3.221-3.221A1.736,1.736,0,0,0,44.1,84.8m4.727,3.778L46.8,91.055c2.9,3.4,6.086-.526,2.027-2.482" fill="#12263f"/>
        </g>
      </g>
    </g>
  </g>
</svg>
