<svg xmlns="http://www.w3.org/2000/svg" xmlns:xlink="http://www.w3.org/1999/xlink" width="132" height="132" viewBox="0 0 132 132">
  <defs>
    <clipPath id="clip-path">
      <rect id="Rectangle_404207" data-name="Rectangle 404207" width="77.552" height="77.481" fill="#12263f"/>
    </clipPath>
  </defs>
  <g id="img31" transform="translate(-600.345 -5360.345)">
    <rect id="Rectangle_403644" data-name="Rectangle 403644" width="132" height="132" rx="66" transform="translate(600.345 5360.345)" fill="#fff"/>
    <g id="Group_1101608" data-name="Group 1101608" transform="translate(630.569 5383.604)">
      <g id="Group_1101606" data-name="Group 1101606" clip-path="url(#clip-path)">
        <path id="Path_876254" data-name="Path 876254" d="M37.756,306.547a5.441,5.441,0,0,1,.659,7,8.049,8.049,0,0,1,3.8,4.894c.274,1.189.75,4.312-.7,4.794l-39.8.094c-2,.044-1.76-2.384-1.633-3.781a7.866,7.866,0,0,1,4.058-6A5.288,5.288,0,0,1,8.1,305.115c8.45.56,17.8-.718,26.147,0a6.1,6.1,0,0,1,3.505,1.431M7.964,308.266a2.242,2.242,0,0,0-.035,4.4l26.314.011a2.233,2.233,0,0,0,0-4.456Zm31.409,11.956a4.542,4.542,0,0,0-3.99-4.431c-9,.468-18.755-.7-27.667-.03-2.517.188-4.6,1.769-4.541,4.46Z" transform="translate(0.001 -245.873)" fill="#12263f"/>
        <path id="Path_876255" data-name="Path 876255" d="M36.451,1.828C40.5,5.408,44.088,10.1,48.259,13.635c4.6,3.484,2.825,11.114-3.122,11.362-.59.025-1.563-.264-1.9-.175-.41.109-1.253,1.322-1.685,1.618,2.18,1.444,3.223,3.8,2.041,6.3-.208.441-.8.756-.6,1.147L74.654,61.474c8.662,8.457-2.355,20.977-11.812,13.942-9.7-10.764-19.03-21.88-28.648-32.727-.392-.2-.707.4-1.147.6-2.5,1.182-4.86.139-6.3-2.041-.308.447-1.489,1.25-1.614,1.686-.13.452.22,1.586.112,2.423a6.183,6.183,0,0,1-5.924,5.255c-2.4.061-3.735-1.155-5.378-2.661-3.65-3.347-8.505-8.143-11.808-11.808-4.262-4.73-.548-11.338,5.638-10.389,6.217-5.881,12.4-12.067,18.292-18.292C25.155,1.26,31.65-2.42,36.451,1.828M31.239,3.16a3.061,3.061,0,0,0-1.495,4.89c4.716,4.489,9.036,9.51,14.023,13.657a3.02,3.02,0,0,0,3.4-4.751L33.9,3.7a3.136,3.136,0,0,0-2.665-.537m-3.433,7.2L10.66,27.5,23.448,40.291,40.6,23.142ZM6.087,28.706A3.083,3.083,0,0,0,4,33.6L17.369,46.945c3.082,1.9,6.38-1.372,4.047-4.434-3.376-4.43-9.335-8.559-12.96-12.978a3.615,3.615,0,0,0-2.368-.826m34.441.792a1.874,1.874,0,0,0-2.368.325c-2.849,2.232-5.483,5.947-8.31,8.336-.993,1.943.541,3.321,2.318,1.931,2.913-2.278,5.611-6.09,8.5-8.53a1.61,1.61,0,0,0-.144-2.062M52.4,59.057l6.757-6.845L40.678,36.056,36.36,40.375Zm10.952-2.2.38-.7-2.114-1.728c-.79.9-6.907,6.552-6.905,7.052a17.633,17.633,0,0,0,1.542,1.913c.185.224.179.123.4.02Zm2.883,1.465-7.6,7.608c2.176,2.55,4.219,5.345,6.745,7.535a6.106,6.106,0,0,0,9.228-6.324c-.275-1.62-1.715-3.042-2.855-4.114-1.746-1.642-3.743-3.091-5.521-4.7" transform="translate(-0.242 0)" fill="#12263f"/>
        <path id="Path_876256" data-name="Path 876256" d="M108.637,79.013a1.531,1.531,0,0,1,1.792,2.374l-6.668,6.687c-2.035.758-3.179-.706-1.929-2.509a55.6,55.6,0,0,1,5.785-5.83,3.79,3.79,0,0,1,1.02-.723" transform="translate(-81.701 -63.656)" fill="#12263f"/>
        <path id="Path_876257" data-name="Path 876257" d="M82.08,135.547a1.524,1.524,0,1,1-1.524-1.524,1.524,1.524,0,0,1,1.524,1.524" transform="translate(-63.734 -108.08)" fill="#12263f"/>
      </g>
    </g>
  </g>
</svg>
