<svg xmlns="http://www.w3.org/2000/svg" xmlns:xlink="http://www.w3.org/1999/xlink" width="151" height="151" viewBox="0 0 151 151">
  <defs>
    <clipPath id="clip-path">
      <rect id="Rectangle_404212" data-name="Rectangle 404212" width="78.284" height="78.284" fill="#00513f"/>
    </clipPath>
  </defs>
  <g id="img2" transform="translate(-505.713 -7988)">
    <g id="Group_1101010" data-name="Group 1101010" transform="translate(559.448 7988)">
      <path id="Path_875656" data-name="Path 875656" d="M235.845,10.626l-94,94v3.266h3.265l94-94V10.626Z" transform="translate(-141.847 -10.626)" fill="#00503e"/>
      <path id="Path_875657" data-name="Path 875657" d="M221.444,10.626l-79.6,79.6v6.532l86.128-86.13Z" transform="translate(-141.847 -10.626)" fill="#00503e"/>
      <path id="Path_875658" data-name="Path 875658" d="M207.043,10.626l-65.2,65.2v6.531l71.728-71.728Z" transform="translate(-141.847 -10.626)" fill="#00503e"/>
      <path id="Path_875659" data-name="Path 875659" d="M192.642,10.626l-50.8,50.8v6.531l57.327-57.328Z" transform="translate(-141.847 -10.626)" fill="#00503e"/>
      <path id="Path_875660" data-name="Path 875660" d="M178.242,10.626l-36.395,36.4v6.531l42.927-42.927Z" transform="translate(-141.847 -10.626)" fill="#00503e"/>
      <path id="Path_875661" data-name="Path 875661" d="M163.841,10.626,141.847,32.62v6.532l28.526-28.526Z" transform="translate(-141.847 -10.626)" fill="#00503e"/>
      <path id="Path_875662" data-name="Path 875662" d="M149.44,10.626l-7.593,7.593v6.532l14.125-14.125Z" transform="translate(-141.847 -10.626)" fill="#00503e"/>
      <path id="Path_875663" data-name="Path 875663" d="M268.109,151.013h6.532l7.593-7.593v-6.531Z" transform="translate(-184.97 -53.748)" fill="#00503e"/>
      <path id="Path_875664" data-name="Path 875664" d="M246.238,143.543h6.532l21.994-21.995v-6.531Z" transform="translate(-177.499 -46.278)" fill="#00503e"/>
      <path id="Path_875665" data-name="Path 875665" d="M224.368,136.074H230.9l36.394-36.4V93.147Z" transform="translate(-170.03 -38.809)" fill="#00503e"/>
      <path id="Path_875666" data-name="Path 875666" d="M202.5,128.6h6.532l50.795-50.8V71.277Z" transform="translate(-162.562 -31.34)" fill="#00503e"/>
      <path id="Path_875667" data-name="Path 875667" d="M180.628,121.135h6.531l65.2-65.2V49.407Z" transform="translate(-155.091 -23.871)" fill="#00503e"/>
      <path id="Path_875668" data-name="Path 875668" d="M158.757,113.666h6.532l79.6-79.6V27.536Z" transform="translate(-147.622 -16.401)" fill="#00503e"/>
    </g>
    <rect id="Rectangle_403642" data-name="Rectangle 403642" width="71.286" height="71.286" transform="translate(506.713 8066.713)" fill="none" stroke="#00513f" stroke-linecap="round" stroke-linejoin="round" stroke-width="2"/>
    <rect id="Rectangle_403641" data-name="Rectangle 403641" width="125.08" height="125" transform="translate(520.96 7998.713)" fill="#ccf6ec"/>
    <g id="Group_1101621" data-name="Group 1101621" transform="translate(544.358 8022.072)">
      <g id="Group_1101620" data-name="Group 1101620" clip-path="url(#clip-path)">
        <path id="Path_876272" data-name="Path 876272" d="M15.658,239.965v4.991a1.964,1.964,0,0,0,.294.294h4.306c2.583,0,6.881-3.294,9.961-2.328,5.293,1.752,11.3,2.6,16.517,4.425a8.589,8.589,0,0,1,3.269,1.96l16.051-8.17A6.557,6.557,0,0,1,73.481,251.5c-9.889,6.5-20.457,12.066-30.705,18.031a8.584,8.584,0,0,1-1.764.389,92.151,92.151,0,0,1-12.532-.009c-3.241-.306-6.982-2.091-10.234-2.488a24.771,24.771,0,0,0-2.588-.055v3.915H0v-2.544H12.82a1.965,1.965,0,0,0,.294-.294V242.8a1.964,1.964,0,0,0-.294-.294H0v-2.544Zm0,7.829v16.735a1.964,1.964,0,0,0,.294.294h3.132c2.013,0,7.148,2.218,9.607,2.528,3.833.484,8.685-.256,12.619-.07,10.146-5.667,20.355-11.412,30.213-17.544a3.944,3.944,0,0,0-4.975-5.954L51.3,251.537c1.1,4.606-1.921,8.873-6.784,8.6l-13.066-2.981c-.749-.17.058-2.608.344-2.658,4.5,1,8.963,2.358,13.51,3.093a3.969,3.969,0,0,0,1.412-7.481l-17.461-4.66c-2.358-.318-6.209,2.349-8.217,2.349Z" transform="translate(0 -192.997)" fill="#00513f"/>
        <path id="Path_876273" data-name="Path 876273" d="M303.479,11.741A11.74,11.74,0,1,1,291.738,0a11.74,11.74,0,0,1,11.74,11.74m-2.613-.006a9.122,9.122,0,1,0-9.122,9.122,9.122,9.122,0,0,0,9.122-9.122" transform="translate(-225.195 -0.001)" fill="#00513f"/>
        <path id="Path_876274" data-name="Path 876274" d="M325.264,19.788c.068.068-.082,1.095.031,1.438.105.32.826.509,1.151.806a4.138,4.138,0,0,1,1.363,3.04c-.692-.112-1.8.158-2.415.009-.206-.05-.368-1.31-1.417-1.377a1.345,1.345,0,0,0-1.367,1.27c0,1.614,1.639,1.165,2.79,1.625a3.945,3.945,0,0,1,1.145,6.507c-.321.294-1.092.616-1.186.771-.227.37-.016,1.569-.095,1.569h-2.74c-.072,0,.072-1.124-.031-1.438-.114-.348-.748-.449-1.046-.715a3.862,3.862,0,0,1-1.469-3.132,22.5,22.5,0,0,1,2.422.025c.423.149.309,1.3,1.4,1.365a1.466,1.466,0,0,0,1.453-1.291c-.01-1.537-1.723-1.221-2.725-1.569a3.971,3.971,0,0,1-1.669-6.168,12.908,12.908,0,0,1,1.573-1.167c.227-.371.016-1.569.095-1.569a25.676,25.676,0,0,1,2.74,0" transform="translate(-257.347 -15.88)" fill="#00513f"/>
        <path id="Path_876275" data-name="Path 876275" d="M204.6,122.292a15.663,15.663,0,1,1-15.663-15.663A15.663,15.663,0,0,1,204.6,122.292m-2.614-.008a13.044,13.044,0,1,0-13.044,13.044,13.044,13.044,0,0,0,13.044-13.044" transform="translate(-139.362 -85.759)" fill="#00513f"/>
        <path id="Path_876276" data-name="Path 876276" d="M233.382,126.965v2.74c0,.078,1.1.413,1.429.626a5.074,5.074,0,0,1,2.487,4.463c-.506-.108-2.234.16-2.52-.026-.159-.1-.178-1.74-1.452-2.365a2.623,2.623,0,0,0-3.544,3.543c.832,1.725,2.669,1.185,4.145,1.727,4.745,1.743,4.376,8.728-.545,9.842v2.936h-2.545c-.142-.142.2-2.253-.095-2.744-.133-.219-1.874-.933-2.379-1.438a5.362,5.362,0,0,1-1.441-3.65c.436.084,2.361-.124,2.527.02a9.57,9.57,0,0,0,.266,1.006,2.62,2.62,0,1,0,4.687-2.339c-.848-1.72-2.96-1.192-4.45-1.813-4.443-1.851-3.926-8.776.885-9.791v-2.74Z" transform="translate(-182.493 -102.114)" fill="#00513f"/>
      </g>
    </g>
  </g>
</svg>
