<svg xmlns="http://www.w3.org/2000/svg" xmlns:xlink="http://www.w3.org/1999/xlink" width="180" height="180" viewBox="0 0 180 180">
  <defs>
    <clipPath id="clip-path">
      <rect id="Rectangle_404234" data-name="Rectangle 404234" width="91.243" height="91.37" fill="#12263f"/>
    </clipPath>
  </defs>
  <g id="img34" transform="translate(-358.668 -5326)">
    <rect id="Rectangle_403656" data-name="Rectangle 403656" width="180" height="180" transform="translate(358.668 5326)" fill="none"/>
    <g id="Group_1101106" data-name="Group 1101106" transform="translate(-148.045 -2662)">
      <g id="Group_1101010" data-name="Group 1101010" transform="translate(601.04 7999.387)">
        <path id="Path_875656" data-name="Path 875656" d="M213.638,10.626,141.848,82.417v2.494h2.494L216.133,13.12V10.626Z" transform="translate(-141.846 -10.626)" fill="#225a78"/>
        <path id="Path_875657" data-name="Path 875657" d="M202.64,10.626,141.848,71.419v4.989l65.781-65.782Z" transform="translate(-141.846 -10.626)" fill="#225a78"/>
        <path id="Path_875658" data-name="Path 875658" d="M191.64,10.626,141.847,60.42v4.988l54.782-54.783Z" transform="translate(-141.846 -10.626)" fill="#225a78"/>
        <path id="Path_875659" data-name="Path 875659" d="M180.642,10.626l-38.8,38.8V54.41l43.784-43.784Z" transform="translate(-141.846 -10.626)" fill="#225a78"/>
        <path id="Path_875660" data-name="Path 875660" d="M169.644,10.626l-27.8,27.8v4.988l32.786-32.786Z" transform="translate(-141.846 -10.626)" fill="#225a78"/>
        <path id="Path_875661" data-name="Path 875661" d="M158.645,10.626l-16.8,16.8v4.989l21.787-21.787Z" transform="translate(-141.846 -10.626)" fill="#225a78"/>
        <path id="Path_875662" data-name="Path 875662" d="M147.646,10.626l-5.8,5.8v4.989l10.788-10.788Z" transform="translate(-141.846 -10.626)" fill="#225a78"/>
        <path id="Path_875663" data-name="Path 875663" d="M268.109,147.676H273.1l5.8-5.8v-4.988Z" transform="translate(-204.61 -73.39)" fill="#225a78"/>
        <path id="Path_875664" data-name="Path 875664" d="M246.238,136.8h4.989l16.8-16.8v-4.988Z" transform="translate(-193.738 -62.518)" fill="#225a78"/>
        <path id="Path_875665" data-name="Path 875665" d="M224.368,125.933h4.989l27.8-27.8V93.147Z" transform="translate(-182.867 -51.646)" fill="#225a78"/>
        <path id="Path_875666" data-name="Path 875666" d="M202.5,115.061h4.989l38.795-38.8V71.277Z" transform="translate(-171.996 -40.775)" fill="#225a78"/>
        <path id="Path_875667" data-name="Path 875667" d="M180.628,104.19h4.988L235.41,54.4V49.407Z" transform="translate(-161.123 -29.904)" fill="#225a78"/>
        <path id="Path_875668" data-name="Path 875668" d="M158.757,93.318h4.989l60.792-60.793V27.536Z" transform="translate(-150.252 -19.032)" fill="#225a78"/>
      </g>
      <rect id="Rectangle_403642" data-name="Rectangle 403642" width="62.268" height="62.267" transform="translate(518.1 8094.346)" fill="none" stroke="#225a78" stroke-linecap="round" stroke-linejoin="round" stroke-width="2"/>
      <rect id="Rectangle_403641" data-name="Rectangle 403641" width="135.46" height="135.39" transform="translate(530.543 8008.745)" fill="#88c0de"/>
      <g id="Group_1101642" data-name="Group 1101642" transform="translate(552.941 8030.938)">
        <g id="Group_1101641" data-name="Group 1101641" clip-path="url(#clip-path)">
          <path id="Path_876351" data-name="Path 876351" d="M74.129,209.232h2.738c.005-1.668-.335-3.34,1.73-3.629a69.954,69.954,0,0,1,10.7-.021c.751.085,1.769.386,1.933,1.26l.017,28.511a1.455,1.455,0,0,1-1.488,1.7c-3.579.423-7.959-.318-11.629-.011-1.338-.25-1.339-2.342-1.26-3.415H29.317L2.9,218.317a6.234,6.234,0,0,1-.838-9.885c4.909-4.316,10.551,1.781,15.054,3.765V189.962c0-.515,1.142-1.2,1.7-1.037H72.429c.558-.159,1.7.522,1.7,1.037ZM71.164,191.9H20.081v22.121l9.349,5.018.229-1.368c-3.568.57-2.345-1.42-3.523-2.977-.933-1.232-2.346-.572-3.2-1.818l-.071-13.29c.869-1.684,2.815-.546,3.619-2.538.359-.888.021-2.073,1.286-2.363a39.33,39.33,0,0,1,6.1-.043,1.5,1.5,0,0,1,.411,2.679c-1.072.555-4.8.083-5.055.306-.06.053-.079.572-.205.812-.807,1.526-1.831,2.058-3.2,2.962v9.505c.823.7,1.589.869,2.36,1.745.468.532,1.049,2.038,1.163,2.069a8.286,8.286,0,0,0,1.982-.06c.344-.1.622-.608,1-.826a23.328,23.328,0,0,1,8.283-2.551,7.236,7.236,0,0,1,.838-10.9,7.075,7.075,0,0,1,11.251,5.434,22.663,22.663,0,0,1,12.769,0v-4.447c0-.221-1.293-.7-1.582-.927a6.022,6.022,0,0,1-1.978-2.851l-21.876.023c-2.31.2-3.146-2.686-.68-2.978l24.3.105c1.056.341.785,1.509,1.109,2.311.787,1.949,2.99,1.043,3.547,2.382.612,1.472-.2,5.8.11,7.6l2.746,1.293ZM47.07,209.084c1.9-1.676,3.969-1.852,2.326-4.881-2.765-5.1-10.14-.876-7.549,3.9.723,1.333,2.662,2.819,4.226,2.149.452-.194.693-.9,1-1.169m29.795,2.885H71.278c-.234,0-3.269-1.971-4.065-2.32-5.182-2.274-11.9-2.906-16.781.4-1.57,1.065-2.018,2.125-3.156,3.457-5.216.962-14.589-.278-15.337,6.9H52.35c1.4,0,1.869,2.651.222,2.959l-22.295-.042C23.025,218.707,15.4,214.655,8,210.249a3.357,3.357,0,0,0-4.229,5.142L30.229,230.9H76.865V227.59a1.79,1.79,0,0,1,1.523-1.424,2.515,2.515,0,0,1,1.442.968v6.956h8.438V208.548H79.83v13.8c0,1.327-2.965,1.4-2.965-.456Z" transform="translate(0 -145.823)" fill="#12263f"/>
          <path id="Path_876352" data-name="Path 876352" d="M118.645,37.412l-3.574-1.329c-.848-.242-1.708-1.188-2.522-1.356-1.616-.333-6.832.857-6.672-1.745.1-1.655,2.128-1.138,3.188-1.385C96.915,18.2,108.519-2.784,126.446.307,140.84,2.789,146.972,20.971,136.891,31.6c1.06.246,3.087-.27,3.188,1.385.161,2.63-5.083,1.381-6.677,1.74-.683.154-1.716,1.172-2.517,1.36l-3.574,1.329h17.446a1.974,1.974,0,0,1,.86.74c.69,1.444-.928,2.383-2.219,2.235l-41.286-.01c-2.8-.316-1.968-2.964-.912-2.964ZM139,18.9a16.025,16.025,0,1,0-16.025,16.025A16.025,16.025,0,0,0,139,18.9" transform="translate(-77.356 0)" fill="#12263f"/>
          <path id="Path_876353" data-name="Path 876353" d="M175.228,40.99c1.665-.385,2.291.648,1.674,2.131l-16.76,16.76a1.43,1.43,0,0,1-2.077-1.848l16.313-16.525a1.832,1.832,0,0,1,.85-.517" transform="translate(-121.919 -31.58)" fill="#12263f"/>
          <path id="Path_876354" data-name="Path 876354" d="M160.885,40.907c6.5-1.2,6.831,7.689,1.478,8.11-5.153.4-5.959-7.283-1.478-8.11m2.363,3.924A1.246,1.246,0,1,0,162,46.077a1.246,1.246,0,0,0,1.246-1.246" transform="translate(-121.937 -31.492)" fill="#12263f"/>
          <path id="Path_876355" data-name="Path 876355" d="M214.453,93.21a4.115,4.115,0,1,1-4.115-4.114,4.115,4.115,0,0,1,4.115,4.114m-2.827.028a1.256,1.256,0,1,0-1.256,1.256,1.256,1.256,0,0,0,1.256-1.256" transform="translate(-159.194 -68.778)" fill="#12263f"/>
        </g>
      </g>
    </g>
  </g>
</svg>
