<svg xmlns="http://www.w3.org/2000/svg" xmlns:xlink="http://www.w3.org/1999/xlink" width="180" height="180" viewBox="0 0 180 180">
  <defs>
    <clipPath id="clip-path">
      <rect id="Rectangle_404240" data-name="Rectangle 404240" width="91.86" height="87.834" fill="#12263f"/>
    </clipPath>
  </defs>
  <g id="img38" transform="translate(-358.668 -5326)">
    <rect id="Rectangle_403656" data-name="Rectangle 403656" width="180" height="180" transform="translate(358.668 5326)" fill="none"/>
    <g id="Group_1101106" data-name="Group 1101106" transform="translate(-148.045 -2662)">
      <g id="Group_1101010" data-name="Group 1101010" transform="translate(601.04 7999.387)">
        <path id="Path_875656" data-name="Path 875656" d="M213.638,10.626,141.848,82.417v2.494h2.494L216.133,13.12V10.626Z" transform="translate(-141.846 -10.626)" fill="#225a78"/>
        <path id="Path_875657" data-name="Path 875657" d="M202.64,10.626,141.848,71.419v4.989l65.781-65.782Z" transform="translate(-141.846 -10.626)" fill="#225a78"/>
        <path id="Path_875658" data-name="Path 875658" d="M191.64,10.626,141.847,60.42v4.988l54.782-54.783Z" transform="translate(-141.846 -10.626)" fill="#225a78"/>
        <path id="Path_875659" data-name="Path 875659" d="M180.642,10.626l-38.8,38.8V54.41l43.784-43.784Z" transform="translate(-141.846 -10.626)" fill="#225a78"/>
        <path id="Path_875660" data-name="Path 875660" d="M169.644,10.626l-27.8,27.8v4.988l32.786-32.786Z" transform="translate(-141.846 -10.626)" fill="#225a78"/>
        <path id="Path_875661" data-name="Path 875661" d="M158.645,10.626l-16.8,16.8v4.989l21.787-21.787Z" transform="translate(-141.846 -10.626)" fill="#225a78"/>
        <path id="Path_875662" data-name="Path 875662" d="M147.646,10.626l-5.8,5.8v4.989l10.788-10.788Z" transform="translate(-141.846 -10.626)" fill="#225a78"/>
        <path id="Path_875663" data-name="Path 875663" d="M268.109,147.676H273.1l5.8-5.8v-4.988Z" transform="translate(-204.61 -73.39)" fill="#225a78"/>
        <path id="Path_875664" data-name="Path 875664" d="M246.238,136.8h4.989l16.8-16.8v-4.988Z" transform="translate(-193.738 -62.518)" fill="#225a78"/>
        <path id="Path_875665" data-name="Path 875665" d="M224.368,125.933h4.989l27.8-27.8V93.147Z" transform="translate(-182.867 -51.646)" fill="#225a78"/>
        <path id="Path_875666" data-name="Path 875666" d="M202.5,115.061h4.989l38.795-38.8V71.277Z" transform="translate(-171.996 -40.775)" fill="#225a78"/>
        <path id="Path_875667" data-name="Path 875667" d="M180.628,104.19h4.988L235.41,54.4V49.407Z" transform="translate(-161.123 -29.904)" fill="#225a78"/>
        <path id="Path_875668" data-name="Path 875668" d="M158.757,93.318h4.989l60.792-60.793V27.536Z" transform="translate(-150.252 -19.032)" fill="#225a78"/>
      </g>
      <rect id="Rectangle_403642" data-name="Rectangle 403642" width="62.268" height="62.267" transform="translate(518.1 8094.346)" fill="none" stroke="#225a78" stroke-linecap="round" stroke-linejoin="round" stroke-width="2"/>
      <rect id="Rectangle_403641" data-name="Rectangle 403641" width="135.46" height="135.39" transform="translate(530.543 8008.745)" fill="#88c0de"/>
      <g id="Group_1101650" data-name="Group 1101650" transform="translate(552.343 8029.756)">
        <g id="Group_1101649" data-name="Group 1101649" clip-path="url(#clip-path)">
          <path id="Path_876368" data-name="Path 876368" d="M76.61,33.849a4.583,4.583,0,0,1,4.243,5.8c-.242.937-2.644,4.347-2.607,4.724.03.3.674.46.878.742,1.42,1.968.587,4.088-.913,5.678,4.754,5.64,13.014,14.266,13.6,21.928,1.122,14.769-15.721,15.487-26.42,14.89-1.507-.084-3.966-.772-5.282-.693-.573.035-1.355.6-2.309.692-7.687.7-16.429-.553-24.23,0-2.969-.265-4.463-2.758-3.97-5.6.131-.757.917-1.618.875-2.114-.035-.4-.749-1.166-.875-1.916-.119-.7,0-1.4-.086-2.1a47.612,47.612,0,0,1-6.189-2C-10.671,60.048-6.5,9.106,29.309,1.018c22.895-5.17,44.029,9.893,47.3,32.831m-3.029,1.182c-.644-11.964-8.775-23.19-19.394-28.449A35.516,35.516,0,0,0,2.8,40.679,35.127,35.127,0,0,0,30,73.076c-.289-.622-.358-2.164-.789-2.552-.394-.355-5.16-1.916-6.284-2.479C-3.42,54.846.5,14.619,28.62,6.555c17.938-5.144,36.313,4.608,41.619,22.482.235.791.864,4.238,1.018,4.462.116.168,2.032.957,2.323,1.532M68.27,33.637c.283-.316-1.146-5.052-1.428-5.815C58.656,5.6,28.042.9,14,20.069c-12.625,17.235-4.488,42.5,16.46,47.7-.034-.861-.712-1.361-.865-2.245-.493-2.851,1-5.339,3.97-5.6,6.235-.556,13.3.425,19.62.021l.7-.226A111.864,111.864,0,0,1,61.347,50.8c.079-.471-.657-.637-.911-.954a4.156,4.156,0,0,1,0-4.729c.147-.235.583-.258.677-.544.272-.827-2.153-3.7-2.413-4.915a4.6,4.6,0,0,1,5.5-5.725,13.053,13.053,0,0,1,1.9,1.061c.132,0,.863-.88,1.182-1.085a4.03,4.03,0,0,1,1-.27m3.238,9.7V38.375a10.777,10.777,0,0,0-.445-1.63,1.661,1.661,0,0,0-2.752.277c-.471.936.081,2.448-1.118,2.8-1.762.524-2.013-1.433-2.829-2.378a1.643,1.643,0,0,0-2.821,1.669,45.731,45.731,0,0,0,2.479,4.206c.146.176.252.367.5.425l10.333.046c.308.009.387-.21.55-.372a47.934,47.934,0,0,0,2.7-4.7,1.71,1.71,0,0,0-2.775-1.6Zm5.3,3.459c-.614-.415-12.3.317-14.065,0a2.184,2.184,0,0,0,0,1.383h13.72c.456,0,.652-1.176.346-1.383M61.823,84.377c10.505.943,31.842,1.855,26.06-14.877-2.366-6.847-8.5-13.041-13.305-18.284l-9.752.077c-2.553,2.765-5.1,5.531-7.382,8.528a4.814,4.814,0,0,1,4.327,5.941c-.134.658-1.128,1.62-1.084,1.865.033.185.562.555.722.908a5.422,5.422,0,0,1,.312,3.4,19.865,19.865,0,0,1-1,1.95c.015.187.485.459.6.723A5.135,5.135,0,0,1,61.41,79c-.17.376-.78.755-.722,1.074.037.207.513.479.642.758a6.732,6.732,0,0,1,.493,3.541M58.535,65.64c1.011-1.08.2-2.767-1.439-2.938-7.149-.746-15.544.556-22.827,0-2.578.2-2.744,3.151,0,3.458,7.021.786,15.438-.6,22.608.012a3.143,3.143,0,0,0,1.657-.532M33.627,68.976c-2.1.792-1.578,3.353.643,3.409,7.29-.551,15.666.738,22.827,0,2.563-.264,2.4-3.322,0-3.458Zm.236,6.231a1.708,1.708,0,0,0,.17,3.409c7.186.832,15.944-.636,23.3,0,2.056-.239,2.267-3.2-.235-3.462-7.266-.748-15.833.513-23.233.054M58.536,81.9a3.3,3.3,0,0,0-1.658-.531c-7.252-.656-15.487.52-22.844.007-2.271.263-2.475,3.16.236,3.464,7.083.793,15.592-.592,22.827,0A1.76,1.76,0,0,0,58.536,81.9" transform="translate(0 0)" fill="#12263f"/>
          <path id="Path_876369" data-name="Path 876369" d="M294.586,253.829c.45.474.172,1.589.317,1.76a9.06,9.06,0,0,1,1.932.949c1.311,1.169,2.676,5.094.2,5.233-1.823.1-1.195-2.04-2.152-3.047-1.766-1.858-5,.718-3.236,3,.811,1.049,2.224.742,3.455,1.157,3.888,1.307,4.4,6.558,1.145,8.97-.312.232-1.3.564-1.333.627-.318.539.379,2.085-1.526,2.054-1.717-.028-.908-1.306-1.5-1.977-.343-.386-1.725-.737-2.41-1.51-.858-.968-2.149-4.15-.372-4.729,2.371-.774,1.775,1.826,2.543,2.789a2.217,2.217,0,0,0,3.776-2.154c-.528-1.755-2.381-1.324-3.769-1.773-3.7-1.2-4.634-6.751-1.37-8.975.419-.285,1.618-.647,1.725-.812.253-.391-.087-1.028.331-1.513a1.682,1.682,0,0,1,2.25-.053" transform="translate(-221.754 -194.988)" fill="#12263f"/>
          <path id="Path_876370" data-name="Path 876370" d="M82.675,118.1l-18.263-9.7c-1.058-1.378-.018-3.045,1.691-2.442l18.279,9.764a5.21,5.21,0,0,1,7.194,7.429c-1.33,1.717-2.871,1.738-4.86,2.058l-8.185,9.108a1.5,1.5,0,0,1-2.407-1.712c.766-1.228,7.918-8.29,7.914-8.885,0-.124-.674-.659-.846-.957a5.9,5.9,0,0,1-.516-4.667m7.181,1.758a2.31,2.31,0,1,0-2.31,2.309,2.309,2.309,0,0,0,2.31-2.309" transform="translate(-49.232 -81.43)" fill="#12263f"/>
          <path id="Path_876371" data-name="Path 876371" d="M45.733,160.93a1.578,1.578,0,0,1-.8,2.658c-1.489.332-5.923.321-4.737-2.2.5-1.074,4.986-.975,5.534-.456" transform="translate(-30.776 -123.532)" fill="#12263f"/>
          <path id="Path_876372" data-name="Path 876372" d="M160.442,41.661c.825-.28,1.891-.156,2.1.819a21.077,21.077,0,0,1,.046,4.093,1.423,1.423,0,0,1-2.755,0c-.153-.821-.214-4.633.608-4.912" transform="translate(-122.908 -31.954)" fill="#12263f"/>
        </g>
      </g>
    </g>
  </g>
</svg>
