<svg xmlns="http://www.w3.org/2000/svg" xmlns:xlink="http://www.w3.org/1999/xlink" width="180" height="180" viewBox="0 0 180 180">
  <defs>
    <clipPath id="clip-path">
      <rect id="Rectangle_404231" data-name="Rectangle 404231" width="89.323" height="89.348" fill="#12263f"/>
    </clipPath>
  </defs>
  <g id="img31" transform="translate(-358.668 -5326)">
    <rect id="Rectangle_403656" data-name="Rectangle 403656" width="180" height="180" transform="translate(358.668 5326)" fill="none"/>
    <g id="Group_1101106" data-name="Group 1101106" transform="translate(-148.045 -2662)">
      <g id="Group_1101010" data-name="Group 1101010" transform="translate(601.04 7999.387)">
        <path id="Path_875656" data-name="Path 875656" d="M213.638,10.626,141.848,82.417v2.494h2.494L216.133,13.12V10.626Z" transform="translate(-141.846 -10.626)" fill="#225a78"/>
        <path id="Path_875657" data-name="Path 875657" d="M202.64,10.626,141.848,71.419v4.989l65.781-65.782Z" transform="translate(-141.846 -10.626)" fill="#225a78"/>
        <path id="Path_875658" data-name="Path 875658" d="M191.64,10.626,141.847,60.42v4.988l54.782-54.783Z" transform="translate(-141.846 -10.626)" fill="#225a78"/>
        <path id="Path_875659" data-name="Path 875659" d="M180.642,10.626l-38.8,38.8V54.41l43.784-43.784Z" transform="translate(-141.846 -10.626)" fill="#225a78"/>
        <path id="Path_875660" data-name="Path 875660" d="M169.644,10.626l-27.8,27.8v4.988l32.786-32.786Z" transform="translate(-141.846 -10.626)" fill="#225a78"/>
        <path id="Path_875661" data-name="Path 875661" d="M158.645,10.626l-16.8,16.8v4.989l21.787-21.787Z" transform="translate(-141.846 -10.626)" fill="#225a78"/>
        <path id="Path_875662" data-name="Path 875662" d="M147.646,10.626l-5.8,5.8v4.989l10.788-10.788Z" transform="translate(-141.846 -10.626)" fill="#225a78"/>
        <path id="Path_875663" data-name="Path 875663" d="M268.109,147.676H273.1l5.8-5.8v-4.988Z" transform="translate(-204.61 -73.39)" fill="#225a78"/>
        <path id="Path_875664" data-name="Path 875664" d="M246.238,136.8h4.989l16.8-16.8v-4.988Z" transform="translate(-193.738 -62.518)" fill="#225a78"/>
        <path id="Path_875665" data-name="Path 875665" d="M224.368,125.933h4.989l27.8-27.8V93.147Z" transform="translate(-182.867 -51.646)" fill="#225a78"/>
        <path id="Path_875666" data-name="Path 875666" d="M202.5,115.061h4.989l38.795-38.8V71.277Z" transform="translate(-171.996 -40.775)" fill="#225a78"/>
        <path id="Path_875667" data-name="Path 875667" d="M180.628,104.19h4.988L235.41,54.4V49.407Z" transform="translate(-161.123 -29.904)" fill="#225a78"/>
        <path id="Path_875668" data-name="Path 875668" d="M158.757,93.318h4.989l60.792-60.793V27.536Z" transform="translate(-150.252 -19.032)" fill="#225a78"/>
      </g>
      <rect id="Rectangle_403642" data-name="Rectangle 403642" width="62.268" height="62.267" transform="translate(518.1 8094.346)" fill="none" stroke="#225a78" stroke-linecap="round" stroke-linejoin="round" stroke-width="2"/>
      <rect id="Rectangle_403641" data-name="Rectangle 403641" width="135.46" height="135.39" transform="translate(530.543 8008.745)" fill="#88c0de"/>
      <g id="Group_1101636" data-name="Group 1101636" transform="translate(553.722 8031.765)">
        <g id="Group_1101635" data-name="Group 1101635" clip-path="url(#clip-path)">
          <path id="Path_876318" data-name="Path 876318" d="M267.236,217c-7.5,7.867-15.6,15.206-23.086,23.1a61.492,61.492,0,0,1-8.31,3.914c-2.254.512-2.377-.92-1.735-2.631.924-2.462,2.477-4.979,3.521-7.422l26.02-26.02a4.486,4.486,0,0,1,6.855,5.291c-.506,1.21-2.316,2.775-3.266,3.77m-1.08-7.018c-.414.076-1.779,1.23-1.712,1.61a8.555,8.555,0,0,0,2.075,1.913c1.521-.7,1.913-3.94-.363-3.523m-3.962,3.631-1.026,1.026,2.142,2.142,1.026-1.026Zm-7.516,11.6c.794-.8,6.306-5.811,6.383-6.251-.255-.531-1.728-2.244-2.215-1.993l-18.656,18.658-1.894,3.8c.227.174,3.673-1.435,4.13-1.785,4.137-4.09,8.149-8.309,12.252-12.428" transform="translate(-181.556 -160.798)" fill="#12263f"/>
          <rect id="Rectangle_404224" data-name="Rectangle 404224" width="17.868" height="3.127" transform="translate(53.612 43.115)" fill="#12263f"/>
          <rect id="Rectangle_404225" data-name="Rectangle 404225" width="17.868" height="2.904" transform="translate(53.612 37.308)" fill="#12263f"/>
          <rect id="Rectangle_404226" data-name="Rectangle 404226" width="17.868" height="2.904" transform="translate(53.612 31.277)" fill="#12263f"/>
          <rect id="Rectangle_404227" data-name="Rectangle 404227" width="17.868" height="2.904" transform="translate(53.612 49.145)" fill="#12263f"/>
          <path id="Path_876319" data-name="Path 876319" d="M213.2,192.908c.38-.124,2.456-.12,2.663.178a5.25,5.25,0,0,1-.112,2.82,5.248,5.248,0,0,1-2.82-.112c-.221-.317-.266-2.712.269-2.887" transform="translate(-165.252 -149.762)" fill="#12263f"/>
          <rect id="Rectangle_404228" data-name="Rectangle 404228" width="3.127" height="2.904" transform="translate(47.582 37.308)" fill="#12263f"/>
          <rect id="Rectangle_404229" data-name="Rectangle 404229" width="3.127" height="2.904" transform="translate(47.582 49.145)" fill="#12263f"/>
          <rect id="Rectangle_404230" data-name="Rectangle 404230" width="3.127" height="2.904" transform="translate(47.582 31.277)" fill="#12263f"/>
          <path id="Path_876320" data-name="Path 876320" d="M41.775,6.039H60.2l18.65,18.65V47.582h-2.9V26.81H58.079V8.942h-16.3V46.8c0,.086-.53,1.439-.624,1.61-.463.845-2.345,2.3-3.285,2.3H13.409V86.445H75.947V68.577h2.9V89.348H10.506V50.709H3.917c-1.628,0-3.907-2.447-3.909-4.131L0,4.355A4.447,4.447,0,0,1,4.355,0L37.847.027c2.913.588,4.279,3.161,3.928,6.011M38.661,2.9H2.9V47.594h35.76ZM73.714,23.907,60.983,11.176v12.4a2.241,2.241,0,0,0,.335.335Z" fill="#12263f"/>
          <path id="Path_876321" data-name="Path 876321" d="M52.869,30.533H20.036v-10.5H52.869ZM49.742,22.94H22.94v4.467h26.8Z" transform="translate(-15.561 -15.561)" fill="#12263f"/>
          <path id="Path_876322" data-name="Path 876322" d="M75.369,72.707c2.181-.367,5.977-.342,6.317,2.51.218,1.825.386,5.386-1.626,6.2a19.736,19.736,0,0,1-5.14.117,3.1,3.1,0,0,1-2.17-2.967c-.23-2.265-.19-5.39,2.619-5.862m.5,5.981h2.911V75.776H75.87Z" transform="translate(-56.435 -56.34)" fill="#12263f"/>
          <path id="Path_876323" data-name="Path 876323" d="M29.436,72.682c2.9-.441,5.953-.281,6.3,3.183.217,2.133.173,5.371-2.561,5.7-1.847.221-5.16.384-6.119-1.485a17.047,17.047,0,0,1-.2-5.285,3.106,3.106,0,0,1,2.58-2.111m.273,5.976h2.911V75.747H29.709Z" transform="translate(-20.771 -56.312)" fill="#12263f"/>
          <path id="Path_876324" data-name="Path 876324" d="M74.8,166.835a23.929,23.929,0,0,1,4.815,0,3.87,3.87,0,0,1,1.6,1.3c.555.888.5,4.89.1,5.886-.936,2.328-6.81,2.328-8.119.347-1.13-1.711-1.041-7,1.6-7.532m3.861,2.849H75.75V172.6h2.911Z" transform="translate(-56.314 -129.476)" fill="#12263f"/>
          <path id="Path_876325" data-name="Path 876325" d="M28.661,166.756c1.146-.259,4.948-.2,5.862.521,1.692,1.339,1.661,6.773-.356,7.889-1.5.827-5.709.789-6.884-.649-.741-.907-.744-4.477-.555-5.673a3.4,3.4,0,0,1,1.933-2.087m3.866,2.853H29.615v2.911h2.911Z" transform="translate(-20.677 -129.401)" fill="#12263f"/>
          <path id="Path_876326" data-name="Path 876326" d="M122.221,72.722c2.345-.394,5.97-.252,6.312,2.739.261,2.288.345,5.809-2.569,6.142-2.277.26-6.009.441-6.37-2.563-.279-2.316-.313-5.823,2.627-6.317M122.5,78.7h3.127V75.8H122.5Z" transform="translate(-92.789 -56.356)" fill="#12263f"/>
          <path id="Path_876327" data-name="Path 876327" d="M75.142,119.848a19.915,19.915,0,0,1,4.365,0c2.594.528,2.443,4.469,2.153,6.517a2.857,2.857,0,0,1-2.771,2.366c-2.675.286-5.773.28-6.143-3.015-.228-2.025-.148-5.35,2.4-5.868m3.634,2.852h-2.9v3.127h2.9Z" transform="translate(-56.433 -92.987)" fill="#12263f"/>
          <path id="Path_876328" data-name="Path 876328" d="M28.911,119.848a19.915,19.915,0,0,1,4.365,0c3.326.677,3.542,8.433-.4,8.883-2.24.256-5.8.345-6.147-2.563a25.4,25.4,0,0,1,.016-4.238,3.343,3.343,0,0,1,2.162-2.081m3.634,2.852c-3.273-.273-3.027.078-2.9,3.128h2.9Z" transform="translate(-20.7 -92.987)" fill="#12263f"/>
          <path id="Path_876329" data-name="Path 876329" d="M121.787,166.82a22.264,22.264,0,0,1,4.4-.037c2.711.419,2.637,4.235,2.339,6.331-.51,3.589-8.446,3.738-8.919-.2-.241-2-.343-5.583,2.178-6.1m.731,5.756h3.127v-2.9c-3.05-.122-3.4-.369-3.128,2.9" transform="translate(-92.804 -129.462)" fill="#12263f"/>
          <path id="Path_876330" data-name="Path 876330" d="M121.846,119.724c1.236-.276,4.59-.217,5.592.568,1.674,1.311,1.739,6.571.047,7.751-1.456,1.016-5.972.954-7.193-.605-.785-1-.844-4.355-.568-5.592a3.658,3.658,0,0,1,2.122-2.122m1.1,2.888c-.535.175-.49,2.569-.269,2.887a5.248,5.248,0,0,0,2.82.112,5.25,5.25,0,0,0,.112-2.82c-.207-.3-2.283-.3-2.663-.178" transform="translate(-92.867 -92.867)" fill="#12263f"/>
          <path id="Path_876331" data-name="Path 876331" d="M116.457,254.911a14.9,14.9,0,1,1-14.9-14.9,14.9,14.9,0,0,1,14.9,14.9m-2.982-.007a11.911,11.911,0,1,0-11.911,11.911A11.911,11.911,0,0,0,113.475,254.9" transform="translate(-67.309 -186.408)" fill="#12263f"/>
          <path id="Path_876332" data-name="Path 876332" d="M135.518,272.57a1.409,1.409,0,0,0-.587-.864c-1.174-.759-4.8-.731-5.2.8-.432,1.683,4.18,1.661,5.158,1.919,4.041,1.065,5.31,5.779,1.272,7.84-.447.228-1.9.526-1.965.6-.161.186.09,1.654-.022,1.766s-2.343-.077-2.776,0c-.338-.05.022-1.618-.138-1.781-.067-.069-1.332-.234-1.861-.483a4.211,4.211,0,0,1-2.6-3.77c.769.125,2.089-.2,2.757.036.257.09.5.691,1.024.987,2.719,1.549,6.9-.847,3.939-2.152-1.257-.554-2.478-.28-3.712-.532-3.9-.8-5.776-5.221-2.072-7.681a23.091,23.091,0,0,1,2.509-.952c.156-.182-.085-1.436.021-1.543a13.694,13.694,0,0,1,2.906,0c.11.111-.147,1.256.03,1.534.059.094,1.549.48,1.907.661a4.321,4.321,0,0,1,2.529,3.614c-.556-.122-2.866.165-3.127,0" transform="translate(-98.433 -207.121)" fill="#12263f"/>
        </g>
      </g>
    </g>
  </g>
</svg>
