<svg xmlns="http://www.w3.org/2000/svg" xmlns:xlink="http://www.w3.org/1999/xlink" width="180" height="180" viewBox="0 0 180 180">
  <defs>
    <clipPath id="clip-path">
      <rect id="Rectangle_404236" data-name="Rectangle 404236" width="83.079" height="83.525" fill="#12263f"/>
    </clipPath>
  </defs>
  <g id="img35" transform="translate(-358.668 -5326)">
    <rect id="Rectangle_403656" data-name="Rectangle 403656" width="180" height="180" transform="translate(358.668 5326)" fill="none"/>
    <g id="Group_1101106" data-name="Group 1101106" transform="translate(-148.045 -2662)">
      <g id="Group_1101010" data-name="Group 1101010" transform="translate(601.04 7999.387)">
        <path id="Path_875656" data-name="Path 875656" d="M213.638,10.626,141.848,82.417v2.494h2.494L216.133,13.12V10.626Z" transform="translate(-141.846 -10.626)" fill="#225a78"/>
        <path id="Path_875657" data-name="Path 875657" d="M202.64,10.626,141.848,71.419v4.989l65.781-65.782Z" transform="translate(-141.846 -10.626)" fill="#225a78"/>
        <path id="Path_875658" data-name="Path 875658" d="M191.64,10.626,141.847,60.42v4.988l54.782-54.783Z" transform="translate(-141.846 -10.626)" fill="#225a78"/>
        <path id="Path_875659" data-name="Path 875659" d="M180.642,10.626l-38.8,38.8V54.41l43.784-43.784Z" transform="translate(-141.846 -10.626)" fill="#225a78"/>
        <path id="Path_875660" data-name="Path 875660" d="M169.644,10.626l-27.8,27.8v4.988l32.786-32.786Z" transform="translate(-141.846 -10.626)" fill="#225a78"/>
        <path id="Path_875661" data-name="Path 875661" d="M158.645,10.626l-16.8,16.8v4.989l21.787-21.787Z" transform="translate(-141.846 -10.626)" fill="#225a78"/>
        <path id="Path_875662" data-name="Path 875662" d="M147.646,10.626l-5.8,5.8v4.989l10.788-10.788Z" transform="translate(-141.846 -10.626)" fill="#225a78"/>
        <path id="Path_875663" data-name="Path 875663" d="M268.109,147.676H273.1l5.8-5.8v-4.988Z" transform="translate(-204.61 -73.39)" fill="#225a78"/>
        <path id="Path_875664" data-name="Path 875664" d="M246.238,136.8h4.989l16.8-16.8v-4.988Z" transform="translate(-193.738 -62.518)" fill="#225a78"/>
        <path id="Path_875665" data-name="Path 875665" d="M224.368,125.933h4.989l27.8-27.8V93.147Z" transform="translate(-182.867 -51.646)" fill="#225a78"/>
        <path id="Path_875666" data-name="Path 875666" d="M202.5,115.061h4.989l38.795-38.8V71.277Z" transform="translate(-171.996 -40.775)" fill="#225a78"/>
        <path id="Path_875667" data-name="Path 875667" d="M180.628,104.19h4.988L235.41,54.4V49.407Z" transform="translate(-161.123 -29.904)" fill="#225a78"/>
        <path id="Path_875668" data-name="Path 875668" d="M158.757,93.318h4.989l60.792-60.793V27.536Z" transform="translate(-150.252 -19.032)" fill="#225a78"/>
      </g>
      <rect id="Rectangle_403642" data-name="Rectangle 403642" width="62.268" height="62.267" transform="translate(518.1 8094.346)" fill="none" stroke="#225a78" stroke-linecap="round" stroke-linejoin="round" stroke-width="2"/>
      <rect id="Rectangle_403641" data-name="Rectangle 403641" width="135.46" height="135.39" transform="translate(530.543 8008.745)" fill="#88c0de"/>
      <g id="Group_1101644" data-name="Group 1101644" transform="translate(557.105 8034.677)">
        <g id="Group_1101643" data-name="Group 1101643" clip-path="url(#clip-path)">
          <path id="Path_876356" data-name="Path 876356" d="M26.836.028a14.558,14.558,0,0,1,8.814,2.255c.583.388,1.919,1.74,2.218,1.873.743.331,2.193.313,3.158.718,4.933,2.071,4.813,9.267,4.348,13.691-.1.982-.531,2.051-.617,3.044-.46,5.3.511,8.383-2.595,13.341-.446.712-2.676,3.039-2.748,3.282a45.8,45.8,0,0,0,.049,6.969c5.157,1.564,11.373,1.352,15.12,5.778a20.977,20.977,0,0,1,7.347-3.153c15.018-2.591,26.44,13.565,18.609,26.792A18.016,18.016,0,0,1,55,80.291a7.743,7.743,0,0,1-4.551,3c-9.834.132-19.68.094-29.48,0-4.322-.039-10.6.546-14.634-.01A7.89,7.89,0,0,1,.17,76.312C.6,69.9-.372,62.816.17,56.484c.807-9.441,10.6-9.462,17.738-11.118.289-.063.313-.255.359-.5a47.088,47.088,0,0,0-.045-5.986,28.768,28.768,0,0,0-2.414-2.539c-3.8-4.7-3.246-8.108-3.562-13.666-.146-2.566-.628-4.821-.448-7.537C12.372,6.448,18.091.565,26.836.028M42.814,19.775C43.5,15.8,44.222,7.249,38.555,6.681c-.726-.073-1.176.367-1.973-.163-.4-.266-.574-.841-.97-1.182-3.449-2.961-7.443-3.433-11.791-2.3-7.91,2.067-10.274,9.476-9.429,16.949l.763-.2c.993-.741,4.043-3.824,5-4.058.65-.159,2.5.522,3.392.6a15.65,15.65,0,0,0,9.909-2.144c.924-.579,2.249-2.26,3.241-1.528Zm-4.6,16.291a14.958,14.958,0,0,0,3.95-7.787,31.778,31.778,0,0,0-.008-5.156,3,3,0,0,0-.642-1.081c-.886-.737-5.323-6.631-5.876-6.546-.2.031-1.893,1.283-2.37,1.518a18.781,18.781,0,0,1-12.663,1.147L14.712,23c-.789,6.267,1.525,12.15,7.073,15.327a14.007,14.007,0,0,0,16.434-2.265M20.636,40.449v4.845a73.652,73.652,0,0,0,7.845,4.637L37,45.079V40.018a16.405,16.405,0,0,1-12.709,1.834,20.528,20.528,0,0,1-3.658-1.4m21.1,7.755-3.665-.767-7.1,4.1L37.1,55.308ZM25.8,51.219c-1.893-.454-4.761-3.239-6.413-3.61-.972-.219-2.615.57-3.707.6l.11.639,4.518,6.445c1.417-1.23,3.392-1.973,4.832-3.116.186-.148.865-.684.66-.952m-12.746-2.33c-5.337.432-10.313,2.377-10.736,8.455a150.84,150.84,0,0,0,0,18.322,5.463,5.463,0,0,0,4.258,5.217l13.482.061c1.693-6.025,3.32-12.117,4.579-18.243.005-2.029-1.894-3.768-2.706-5.578-1.383.153-1.767,1.815-3.142.348ZM36.149,80.925l13.647-.01c.863-.055,3.75-1.7,2.917-2.663-.514-.592-1.3-1.2-1.8-1.858a18.065,18.065,0,0,1,1.809-23.778c-1.984-2.64-5.35-3.281-8.391-3.671l-6.044,8.827c-1.3,1.061-2.414-.644-3.642-.953-1.066,2.236-3.328,4.222-2.755,6.943ZM80.618,65.563A15.473,15.473,0,1,0,65.145,81.035,15.473,15.473,0,0,0,80.618,65.563M22.789,80.934H33.556c-.845-4.914-2.5-9.723-3.6-14.6-.583-2.6-1.1-3.9.045-6.505.288-.656,2.843-4.3,2.691-4.518l-4.411-2.518-4.415,2.851c1.3,2.468,3.545,4.741,3.235,7.748Z" transform="translate(0 0)" fill="#12263f"/>
          <path id="Path_876357" data-name="Path 876357" d="M283.318,249.24c.118.135,2.215.739,3.081,1.763.884,1.044,2.53,4.488.4,4.9-1.6.312-1.257-2.313-2.31-3.42-2.825-2.97-7.36,1.01-4.851,4.2,1.5,1.908,4.454.811,6.6,2.985a5.627,5.627,0,0,1-1.282,8.793c-.41.241-1.574.562-1.632.628-.195.223.43,2.369-1.208,2.369s-.961-1.939-1.219-2.358c-.141-.228-2.769-1.02-3.722-2.845-.5-.949-1.185-3.578.257-3.829,1.6-.278,1.33,1.21,1.669,2.116a3.227,3.227,0,1,0,6.124-2.033c-.81-2.446-2.971-1.933-4.844-2.477-4.447-1.291-5.133-7.628-1.246-10.1.394-.25,1.717-.629,1.767-.709.249-.395-.369-3.09,1.6-2.517,1.268.37.6,2.266.826,2.522" transform="translate(-217.005 -193.525)" fill="#12263f"/>
          <path id="Path_876358" data-name="Path 876358" d="M251.967,7.7c2.663.25,6.681.067,7.112,3.546.306,2.468-.918,7.47-1.27,10.154-.812,6.189-1.36,12.538-2.425,18.679a7.1,7.1,0,0,1-.826,2.62,7.221,7.221,0,0,1-1.881,1.349c-2.516.575-9.561-1.013-12.471-1.437-2.325-.338-8.858-.674-10.406-1.868-1.873-1.444-.954-3.149-1.331-3.729-.057-.088-1.23-.325-1.565-.482a3.777,3.777,0,0,1-2.045-3.123c.585-9.281-.86-19.692-.033-28.842A3.918,3.918,0,0,1,227.736.8l21.711.051c2.951,1.159,2.561,4.2,2.52,6.847M227.192,34.627h22.417V3.163H227.192Zm3.671,2.358c-.415,2.5,1.5,1.916,3.1,2.18,5.815.961,11.664,1.7,17.5,2.542a1.6,1.6,0,0,0,1.574-1.4c1.727-9.258,2.126-19.121,3.894-28.419-.026-2.049-3.543-1.4-4.958-1.825V33.647c0,1.263-1.889,3.338-3.123,3.338Z" transform="translate(-176.203 -0.629)" fill="#12263f"/>
          <path id="Path_876359" data-name="Path 876359" d="M272.344,39.417c-.357-.364-.143-1.158-.306-1.417-.085-.135-1.893-.837-2.513-1.9-.472-.812-1.151-3.121.121-3.488,1.674-.484,1.41,1.095,1.834,1.964a1.917,1.917,0,0,0,3.56-1.405c-.383-1.453-1.577-1.048-2.545-1.332-3.7-1.088-5-5.261-1.9-7.747.318-.255,1.393-.754,1.44-.822.256-.379.055-1.517,1.212-1.461s.962,1.128,1.426,1.613c.411.431,1.274.562,1.9,1.331.661.812,1.6,3.523.312,3.909-1.839.551-1.489-1.278-2.027-2.194-1.035-1.764-5.005-.147-3.107,2.246.876,1.1,1.834.656,2.925.95,3.052.822,3.8,5.472,1.4,7.442-.4.325-1.176.5-1.4.75-.481.52-.108,1.787-1.393,1.844a1.688,1.688,0,0,1-.924-.28" transform="translate(-210.957 -17.109)" fill="#12263f"/>
          <rect id="Rectangle_404235" data-name="Rectangle 404235" width="15.755" height="2.391" transform="translate(54.433 29.239)" fill="#12263f"/>
          <path id="Path_876360" data-name="Path 876360" d="M251.927,114.6c.237-.238.791-.247,1.124-.275a47.925,47.925,0,0,1,7.11.014c1.272.238,1.265,2.171.221,2.364a62.058,62.058,0,0,1-7.962-.006c-.952-.179-.98-1.608-.493-2.1" transform="translate(-197.431 -89.606)" fill="#12263f"/>
        </g>
      </g>
    </g>
  </g>
</svg>
