<svg xmlns="http://www.w3.org/2000/svg" xmlns:xlink="http://www.w3.org/1999/xlink" width="151" height="151" viewBox="0 0 151 151">
  <defs>
    <clipPath id="clip-path">
      <rect id="Rectangle_404213" data-name="Rectangle 404213" width="83.296" height="83.32" fill="#00513f"/>
    </clipPath>
  </defs>
  <g id="img3" transform="translate(-505.713 -7988)">
    <g id="Group_1101010" data-name="Group 1101010" transform="translate(559.448 7988)">
      <path id="Path_875656" data-name="Path 875656" d="M235.845,10.626l-94,94v3.266h3.265l94-94V10.626Z" transform="translate(-141.847 -10.626)" fill="#00503e"/>
      <path id="Path_875657" data-name="Path 875657" d="M221.444,10.626l-79.6,79.6v6.532l86.128-86.13Z" transform="translate(-141.847 -10.626)" fill="#00503e"/>
      <path id="Path_875658" data-name="Path 875658" d="M207.043,10.626l-65.2,65.2v6.531l71.728-71.728Z" transform="translate(-141.847 -10.626)" fill="#00503e"/>
      <path id="Path_875659" data-name="Path 875659" d="M192.642,10.626l-50.8,50.8v6.531l57.327-57.328Z" transform="translate(-141.847 -10.626)" fill="#00503e"/>
      <path id="Path_875660" data-name="Path 875660" d="M178.242,10.626l-36.395,36.4v6.531l42.927-42.927Z" transform="translate(-141.847 -10.626)" fill="#00503e"/>
      <path id="Path_875661" data-name="Path 875661" d="M163.841,10.626,141.847,32.62v6.532l28.526-28.526Z" transform="translate(-141.847 -10.626)" fill="#00503e"/>
      <path id="Path_875662" data-name="Path 875662" d="M149.44,10.626l-7.593,7.593v6.532l14.125-14.125Z" transform="translate(-141.847 -10.626)" fill="#00503e"/>
      <path id="Path_875663" data-name="Path 875663" d="M268.109,151.013h6.532l7.593-7.593v-6.531Z" transform="translate(-184.97 -53.748)" fill="#00503e"/>
      <path id="Path_875664" data-name="Path 875664" d="M246.238,143.543h6.532l21.994-21.995v-6.531Z" transform="translate(-177.499 -46.278)" fill="#00503e"/>
      <path id="Path_875665" data-name="Path 875665" d="M224.368,136.074H230.9l36.394-36.4V93.147Z" transform="translate(-170.03 -38.809)" fill="#00503e"/>
      <path id="Path_875666" data-name="Path 875666" d="M202.5,128.6h6.532l50.795-50.8V71.277Z" transform="translate(-162.562 -31.34)" fill="#00503e"/>
      <path id="Path_875667" data-name="Path 875667" d="M180.628,121.135h6.531l65.2-65.2V49.407Z" transform="translate(-155.091 -23.871)" fill="#00503e"/>
      <path id="Path_875668" data-name="Path 875668" d="M158.757,113.666h6.532l79.6-79.6V27.536Z" transform="translate(-147.622 -16.401)" fill="#00503e"/>
    </g>
    <rect id="Rectangle_403642" data-name="Rectangle 403642" width="71.286" height="71.286" transform="translate(506.713 8066.713)" fill="none" stroke="#00513f" stroke-linecap="round" stroke-linejoin="round" stroke-width="2"/>
    <rect id="Rectangle_403641" data-name="Rectangle 403641" width="125.08" height="125" transform="translate(520.96 7998.713)" fill="#ccf6ec"/>
    <g id="Group_1101012" data-name="Group 1101012" transform="translate(546.224 8020.968)">
      <g id="Group_1099618" data-name="Group 1099618" transform="translate(0 0)">
        <rect id="Rectangle_401104" data-name="Rectangle 401104" width="83.401" height="84.406" fill="none"/>
      </g>
      <g id="Group_1101623" data-name="Group 1101623" transform="translate(-132.849 -87.914)">
        <g id="Group_1101622" data-name="Group 1101622" transform="translate(124 84)" clip-path="url(#clip-path)">
          <path id="Path_876277" data-name="Path 876277" d="M148.707,47.488c-5.027,9.452-18.349,10.631-25.321,2.472a15.783,15.783,0,0,1,1.621-21.986c.734-.633,3.947-2.372,4.072-2.578.471-.775-.254-3.888.215-4.933.482-1.072,3.407-1.221,3.924-2.082.243-.4.348-1.257.581-1.779.2-.443,1.313-2.533,1.314-2.683.012-1.058-1.8-2.7-1.334-4.194a37.776,37.776,0,0,1,5.047-5.047c1.334-.425,3.237,1.441,4.158,1.362a20.757,20.757,0,0,0,2.291-1.129,17.013,17.013,0,0,0,2.229-.774c.9-.677.82-3.509,2.26-3.96a40.023,40.023,0,0,1,6.541-.083c1.815.3,1.583,3.321,2.611,4.039a16.572,16.572,0,0,0,2.224.779,20.684,20.684,0,0,0,2.291,1.128c.756.066,2.825-1.7,3.984-1.41.651.161,5.107,4.617,5.268,5.268.257,1.043-1.176,2.891-1.41,3.984.873.95,1.363,3.927,2,4.642.648.733,3.324.878,3.8,1.991a36.567,36.567,0,0,1,.149,6.69c-.3,1.913-3.276,1.589-4.044,2.606a17.015,17.015,0,0,0-.774,2.23,20.669,20.669,0,0,0-1.129,2.291c-.079.921,1.786,2.823,1.362,4.157a47.682,47.682,0,0,1-4.761,4.9c-1.659.871-3.645-1.375-4.6-1.162-.268.059-.6.455-.909.586-.609.256-3.483,1.259-3.683,1.464-.7.716-.738,3.587-2.152,3.854a49.665,49.665,0,0,1-6.64,0c-.58-.111-.654-.7-1.181-.639m1.714-11.583a20.65,20.65,0,0,1,.425,5.465c-.046.867-.914,3.5.36,3.938a21.224,21.224,0,0,0,4.157-.064c.313-.211.743-2.13,1.019-2.628.568-1.023,3.328-1.588,4.546-2.1.925-.391,1.72-1.361,2.846-1.138.659.131,2.486,1.355,3.011,1.22a25.683,25.683,0,0,0,2.9-2.9c.138-.7-1.359-2.424-1.241-3.6a23.82,23.82,0,0,1,1.6-3.348c.349-.821.489-2.124.877-2.77.666-1.108,3.344-1.067,3.525-2.053a22.468,22.468,0,0,0-.1-3.978c-.257-.385-2.693-.682-3.339-1.595a31.86,31.86,0,0,1-1.245-3.474,24.33,24.33,0,0,1-1.285-2.59c-.269-1.383,1.6-3.081,1.048-4.03a29.747,29.747,0,0,0-2.741-2.645c-.6-.154-2.518,1.361-3.581,1.258a20.347,20.347,0,0,1-2.924-1.387c-.916-.372-2.333-.655-3.055-1.021-1.368-.693-1.281-3.425-2.191-3.6a21.578,21.578,0,0,0-3.975.106c-.513.309-.734,2.7-1.6,3.335a32.935,32.935,0,0,1-3.476,1.243,24.422,24.422,0,0,1-2.591,1.285c-1.381.267-3.213-1.589-4.025-1.053a29.825,29.825,0,0,0-2.649,2.745c-.158.613,1.355,2.6,1.258,3.581-.072.73-.89,1.6-1.176,2.276-.461,1.089-1.136,3.954-1.962,4.473-.7.437-2.719.643-2.87,1.42-.126.647.092,1.564,0,2.254,3.157-.773,6.151-.177,9.222.645-1.013-11.1,12.717-17.563,20.6-9.556,8.45,8.579.274,22.9-11.378,20.282m-5.943-8.643c.334.415,1.46,1.029,1.979,1.558.694.708,2.468,3.613,2.824,3.826a9.37,9.37,0,1,0-5.2-10.692c-.32,1.3-.462,4.244.393,5.308m3.715,12.526a12.927,12.927,0,1,0-12.927,12.927,12.927,12.927,0,0,0,12.927-12.927" transform="translate(-94.008 0)" fill="#00513f"/>
          <path id="Path_876278" data-name="Path 876278" d="M172.031,139.45c.048.073,1.277.438,1.619.635,1.207.7,3.879,3.836,1.626,4.505-1.695.5-1.691-1.409-2.774-2.069-1.5-.915-4.428-.608-4.7,1.46-.292,2.206,3.629,2.285,5.115,2.847,4.067,1.536,5.152,6.27,1.022,8.433-.454.238-1.529.459-1.728.631-.42.363-.027,2.164-1.6,2.161-1.783,0-1.3-2.149-1.4-2.256a16.147,16.147,0,0,1-2.035-.645c-1.33-.76-3.884-4.236-1.664-4.9,1.827-.543,1.693,1.727,2.955,2.532,1.724,1.1,6.035.591,5.159-2.158-.714-2.24-7.04-1.025-8.282-5.016a4.7,4.7,0,0,1,2.221-5.527c.35-.2,1.578-.555,1.624-.629.293-.47-.351-2.124,1.423-2.126,1.708,0,1.091,1.607,1.429,2.12" transform="translate(-129.313 -107.872)" fill="#00513f"/>
          <path id="Path_876279" data-name="Path 876279" d="M272.126,83.5c.98.574,3.827,1.78,4.349,2.628a1.358,1.358,0,0,1-1.223,2.089,48.347,48.347,0,0,1-5.538-3.109,2.38,2.38,0,0,1-.206-1.028,44.854,44.854,0,0,1,.013-6.654,1.306,1.306,0,0,1,2.524.042c.26,1.131-.213,5.564.081,6.034" transform="translate(-211.603 -60.07)" fill="#00513f"/>
          <path id="Path_876280" data-name="Path 876280" d="M43.113,257.251c.148.122,1.569-.663,1.86-.819,4.364-2.342,13.2-8.85,17.767-8.845,4.809.005,6.7,5.223,3.762,8.708-7.668,4.344-15.271,10.248-23.03,14.294a9.5,9.5,0,0,1-7.013,1.148c-5.144-.895-10.466-3.044-15.608-4.142-.471-.315-2.095.612-2.173.941-.091.381.716,1.255.88,1.653a3.417,3.417,0,0,1-.156,3.143c-.568.947-5.067,3.486-6.205,3.451a3.56,3.56,0,0,1-2.65-1.657C7.783,269.252,3.12,263.308.524,257.476c-.55-1.236-.805-2.036-.066-3.3.632-1.083,5.035-3.614,6.266-3.559a3.5,3.5,0,0,1,2.59,1.5c.343.457.417,1.324.859,1.275,4.348-1.763,10.272-7.164,15.028-7.1,2.325.032,7.3,2.288,9.812,3.077,1.82.572,4.474.872,6.021,1.7a4.73,4.73,0,0,1,2.08,6.177m-31.747-1.5c.856,1.112,5.341,10.148,5.92,10.28.493.113,2.415-1.885,3.388-1.251,5.341.916,11.173,3.575,16.423,4.385a7.01,7.01,0,0,0,5.089-.94c7.287-3.778,14.342-9.406,21.634-13.331,2.832-2.074,1.308-5.235-2.3-4.445-5.449,1.193-11.892,7.439-17.272,9.325-4.593,1.611-10.568-1.033-15.072-2.206a1.4,1.4,0,0,1,.585-2.43c.927-.161,5.381,1.471,6.743,1.751,1.148.236,2.94.814,3.83-.171a2.143,2.143,0,0,0-.864-3.439c-1.662-.691-4.671-1.149-6.6-1.762s-5.2-2.207-7.04-2.4c-4.535-.467-10.258,5.146-14.457,6.629m-4.539-2.671L2.5,255.526l10.574,18.747,4.33-2.442Z" transform="translate(0 -193.463)" fill="#00513f"/>
          <path id="Path_876281" data-name="Path 876281" d="M25.109,290.755a1.219,1.219,0,1,1-1.219-1.219,1.219,1.219,0,0,1,1.219,1.219" transform="translate(-17.808 -227.428)" fill="#00513f"/>
        </g>
      </g>
    </g>
  </g>
</svg>
