<svg xmlns="http://www.w3.org/2000/svg" xmlns:xlink="http://www.w3.org/1999/xlink" width="100" height="100" viewBox="0 0 100 100">
  <defs>
    <clipPath id="clip-path">
      <rect id="Rectangle_404254" data-name="Rectangle 404254" width="55.979" height="50.25" fill="#12263f"/>
    </clipPath>
  </defs>
  <g id="img47" transform="translate(-505.713 -7988)">
    <g id="Group_1101010" data-name="Group 1101010" transform="translate(536.702 7988)">
      <path id="Path_875656" data-name="Path 875656" d="M208.54,10.626,141.848,77.319v2.317h2.317l66.693-66.693V10.626Z" transform="translate(-141.847 -10.626)" fill="#225a78"/>
      <path id="Path_875657" data-name="Path 875657" d="M198.323,10.626,141.848,67.1v4.635l61.109-61.11Z" transform="translate(-141.847 -10.626)" fill="#225a78"/>
      <path id="Path_875658" data-name="Path 875658" d="M188.1,10.626,141.847,56.884v4.634l50.892-50.892Z" transform="translate(-141.847 -10.626)" fill="#225a78"/>
      <path id="Path_875659" data-name="Path 875659" d="M177.887,10.626l-36.04,36.041V51.3l40.675-40.675Z" transform="translate(-141.847 -10.626)" fill="#225a78"/>
      <path id="Path_875660" data-name="Path 875660" d="M167.67,10.626,141.847,36.449v4.634L172.3,10.626Z" transform="translate(-141.847 -10.626)" fill="#225a78"/>
      <path id="Path_875661" data-name="Path 875661" d="M157.452,10.626l-15.6,15.605v4.635l20.239-20.24Z" transform="translate(-141.847 -10.626)" fill="#225a78"/>
      <path id="Path_875662" data-name="Path 875662" d="M147.234,10.626l-5.388,5.388v4.635l10.022-10.022Z" transform="translate(-141.847 -10.626)" fill="#225a78"/>
      <path id="Path_875663" data-name="Path 875663" d="M268.109,146.91h4.634l5.387-5.388v-4.634Z" transform="translate(-209.12 -77.899)" fill="#225a78"/>
      <path id="Path_875664" data-name="Path 875664" d="M246.238,135.257h4.635l15.6-15.606v-4.634Z" transform="translate(-197.467 -66.246)" fill="#225a78"/>
      <path id="Path_875665" data-name="Path 875665" d="M224.368,123.6H229l25.822-25.823V93.147Z" transform="translate(-185.815 -54.594)" fill="#225a78"/>
      <path id="Path_875666" data-name="Path 875666" d="M202.5,111.952h4.634l36.04-36.041V71.277Z" transform="translate(-174.163 -42.941)" fill="#225a78"/>
      <path id="Path_875667" data-name="Path 875667" d="M180.628,100.3h4.634L231.52,54.041V49.407Z" transform="translate(-162.509 -31.289)" fill="#225a78"/>
      <path id="Path_875668" data-name="Path 875668" d="M158.757,88.646h4.634l56.475-56.476V27.536Z" transform="translate(-150.857 -19.636)" fill="#225a78"/>
    </g>
    <rect id="Rectangle_403642" data-name="Rectangle 403642" width="71.286" height="71.286" transform="translate(506.713 8015.713)" fill="none" stroke="#225a78" stroke-linecap="round" stroke-linejoin="round" stroke-width="2"/>
    <rect id="Rectangle_403641" data-name="Rectangle 403641" width="74.08" height="74" transform="translate(520.96 7998.713)" fill="#88c0de"/>
    <g id="Group_1101663" data-name="Group 1101663" transform="translate(530.01 8010.588)">
      <g id="Group_1101662" data-name="Group 1101662" clip-path="url(#clip-path)">
        <path id="Path_876418" data-name="Path 876418" d="M61.157,54.172a12.488,12.488,0,0,1,16.754,15.24,19.727,19.727,0,0,0-1.1,2.66,32.183,32.183,0,0,0,2.394,2.391c.211.087.745-.133,1.19-.045,1.59.315,5.57,5.546,7.256,6.606a2,2,0,0,1,.278,2.6,35.984,35.984,0,0,1-2.965,2.955,1.926,1.926,0,0,1-2.116-.17,49.429,49.429,0,0,1-4.445-4.218c-.747-.735-2.58-2.287-2.662-3.271-.036-.437.233-.848.07-1.2a22.149,22.149,0,0,0-2.189-2.156,12.694,12.694,0,0,1-16.08-.807,25.757,25.757,0,0,0-1.8-1.956c-.945.01-.548,1.565-.918,2.414-.412.946-1.347,1.207-1.448,1.367a18.339,18.339,0,0,1-.238,2c-.713,1.929-3.2,1.917-4.911,1.732a2.728,2.728,0,0,1-2.491-2.129c-.066-.392.041-1.445-.058-1.6-.025-.039-.643-.249-.835-.392-1.32-.986-.552-2.145-.945-2.952-.116-.239-.751-.478-1-.735-1.176-1.221-.7-3.267-.826-4.8-.549-6.832-6.282-9.538-3.6-17.206a11.989,11.989,0,0,1,6.55-6.878A11.7,11.7,0,0,1,61.157,54.172M44.047,68.033c.573.178,1.988-.131,2.671,0V57.927H44.624a4.072,4.072,0,0,1-2.09-1.231,3.4,3.4,0,0,1,4.285-5.151c1.63.881,1.9,2.823,1.774,4.506h1.878V53.812a4.554,4.554,0,0,1,.863-1.592,3.413,3.413,0,0,1,5.7,3.537c-.316.857-1.671,2.17-2.595,2.17H52.2v9.746c.117.632,1.117.278,1.589.361A12.889,12.889,0,0,1,56.54,57.57c.456-.542,2.79-2.422,2.853-2.633a11.322,11.322,0,0,0-.579-3.837c-3.109-8.919-16.2-8.573-18.775.508C38.3,57.743,42.37,59.818,43.5,65.117a19.051,19.051,0,0,1,.354,2.678.438.438,0,0,0,.194.239M46.718,56.05c-.042-.888.242-2.191-.581-2.813a1.616,1.616,0,0,0-2.433,2,2.866,2.866,0,0,0,.92.813Zm5.487,0h2.238a3.471,3.471,0,0,0,.83-.758,1.592,1.592,0,0,0-2.249-2.1c-1,.624-.794,1.819-.819,2.863M76.66,65.631A10.625,10.625,0,1,0,66.035,76.255,10.625,10.625,0,0,0,76.66,65.631m-26.188-7.7H48.595V68.033h1.877Zm3.9,11.839h-10.4c-.027.757-.116,1.578.8,1.723,2.926-.186,6.213.279,9.094.016.353-.032.724-.043.919-.391-.081-.2-.367-1.3-.421-1.349m-1.155,3.465H45.707c-.034,1.044-.1,1.632,1.076,1.739a38.918,38.918,0,0,0,6.011-.07c.611-.166.383-1.186.42-1.669m24.688,2.6-2.237-2.3c-.181.224-.654.506-.655.791A14.561,14.561,0,0,0,77.128,76.4c.353.061.389-.624.775-.57m2.065.257-2.54,2.628,6.615,6.394,2.54-2.627Zm-28.486.756h-3.9c.043.418-.179,1.29.288,1.517a12.863,12.863,0,0,0,3.177,0c.46-.219.471-1.072.433-1.516" transform="translate(-32.317 -36.567)" fill="#12263f"/>
        <path id="Path_876419" data-name="Path 876419" d="M.645,64.9a.978.978,0,0,1,.624.039c.161.052,2.337,1.355,2.437,1.463.773.824.027,1.76-1.037,1.47A19.3,19.3,0,0,1,.324,66.464.9.9,0,0,1,.645,64.9" transform="translate(0 -55.5)" fill="#12263f"/>
        <path id="Path_876420" data-name="Path 876420" d="M213.963,66.482a22.228,22.228,0,0,1-2.638,1.479c-1.215.189-1.553-.859-.629-1.643a13.33,13.33,0,0,1,2.526-1.382.936.936,0,0,1,.741,1.546" transform="translate(-179.823 -55.559)" fill="#12263f"/>
        <path id="Path_876421" data-name="Path 876421" d="M48.314,17.819a1.239,1.239,0,0,1,.992.1,25.663,25.663,0,0,1,1.345,2.263c.424,1.053-.268,1.945-1.223,1.367a13.433,13.433,0,0,1-1.623-2.716.835.835,0,0,1,.508-1.016" transform="translate(-40.885 -15.198)" fill="#12263f"/>
        <path id="Path_876422" data-name="Path 876422" d="M170.95,17.81c.728-.218,1.445.2,1.278.983a27.77,27.77,0,0,1-1.459,2.589.9.9,0,0,1-1.56-.825,9.207,9.207,0,0,1,1.741-2.747" transform="translate(-144.751 -15.189)" fill="#12263f"/>
        <path id="Path_876423" data-name="Path 876423" d="M112.962.013a.906.906,0,0,1,1.045.63,19.815,19.815,0,0,1,0,3.025.874.874,0,0,1-1.72-.15c-.121-.772-.266-3.335.676-3.506" transform="translate(-95.999 0)" fill="#12263f"/>
        <path id="Path_876424" data-name="Path 876424" d="M188.279,146.9a9.184,9.184,0,1,1-9.184-9.184,9.184,9.184,0,0,1,9.184,9.184m-1.8-.007a7.371,7.371,0,1,0-7.371,7.371,7.371,7.371,0,0,0,7.371-7.371" transform="translate(-145.379 -117.831)" fill="#12263f"/>
        <path id="Path_876425" data-name="Path 876425" d="M202.125,169.168a2.175,2.175,0,0,1,1.483,3.794,58.534,58.534,0,0,1-5.244,5.152,2.182,2.182,0,0,1-2.288-.081,21.192,21.192,0,0,1-3.477-3.6,2.152,2.152,0,0,1,3.28-2.558c.293.215,1.168,1.333,1.425,1.288,1.3-.932,3.2-3.906,4.821-4m-7.231,4.205c-.282-.227-.382-.193-.61.09a13.6,13.6,0,0,0,3.02,3.167l4.935-4.892.21-.51-.435-.15c-1.355,1.076-2.691,3.077-4.034,4.051-1.3.942-2.183-1.033-3.086-1.757" transform="translate(-164.659 -144.741)" fill="#12263f"/>
      </g>
    </g>
  </g>
</svg>
