<svg xmlns="http://www.w3.org/2000/svg" xmlns:xlink="http://www.w3.org/1999/xlink" width="100" height="100.002" viewBox="0 0 100 100.002">
  <defs>
    <clipPath id="clip-path">
      <rect id="Rectangle_404251" data-name="Rectangle 404251" width="53.203" height="53.481" fill="#12263f"/>
    </clipPath>
  </defs>
  <g id="img49" transform="translate(-505.713 -7987.999)">
    <g id="Group_1101010" data-name="Group 1101010" transform="translate(536.702 7988)">
      <path id="Path_875656" data-name="Path 875656" d="M208.54,10.626,141.848,77.319v2.317h2.317l66.693-66.693V10.626Z" transform="translate(-141.847 -10.626)" fill="#225a78"/>
      <path id="Path_875657" data-name="Path 875657" d="M198.323,10.626,141.848,67.1v4.635l61.109-61.11Z" transform="translate(-141.847 -10.626)" fill="#225a78"/>
      <path id="Path_875658" data-name="Path 875658" d="M188.1,10.626,141.847,56.884v4.634l50.892-50.892Z" transform="translate(-141.847 -10.626)" fill="#225a78"/>
      <path id="Path_875659" data-name="Path 875659" d="M177.887,10.626l-36.04,36.041V51.3l40.675-40.675Z" transform="translate(-141.847 -10.626)" fill="#225a78"/>
      <path id="Path_875660" data-name="Path 875660" d="M167.67,10.626,141.847,36.449v4.634L172.3,10.626Z" transform="translate(-141.847 -10.626)" fill="#225a78"/>
      <path id="Path_875661" data-name="Path 875661" d="M157.452,10.626l-15.6,15.605v4.635l20.239-20.24Z" transform="translate(-141.847 -10.626)" fill="#225a78"/>
      <path id="Path_875662" data-name="Path 875662" d="M147.234,10.626l-5.388,5.388v4.635l10.022-10.022Z" transform="translate(-141.847 -10.626)" fill="#225a78"/>
      <path id="Path_875663" data-name="Path 875663" d="M268.109,146.91h4.634l5.387-5.388v-4.634Z" transform="translate(-209.12 -77.899)" fill="#225a78"/>
      <path id="Path_875664" data-name="Path 875664" d="M246.238,135.257h4.635l15.6-15.606v-4.634Z" transform="translate(-197.467 -66.246)" fill="#225a78"/>
      <path id="Path_875665" data-name="Path 875665" d="M224.368,123.6H229l25.822-25.823V93.147Z" transform="translate(-185.815 -54.594)" fill="#225a78"/>
      <path id="Path_875666" data-name="Path 875666" d="M202.5,111.952h4.634l36.04-36.041V71.277Z" transform="translate(-174.163 -42.941)" fill="#225a78"/>
      <path id="Path_875667" data-name="Path 875667" d="M180.628,100.3h4.634L231.52,54.041V49.407Z" transform="translate(-162.509 -31.289)" fill="#225a78"/>
      <path id="Path_875668" data-name="Path 875668" d="M158.757,88.646h4.634l56.475-56.476V27.536Z" transform="translate(-150.857 -19.636)" fill="#225a78"/>
    </g>
    <rect id="Rectangle_403642" data-name="Rectangle 403642" width="71.286" height="71.286" transform="translate(506.713 8015.713)" fill="none" stroke="#225a78" stroke-linecap="round" stroke-linejoin="round" stroke-width="2"/>
    <rect id="Rectangle_403641" data-name="Rectangle 403641" width="74.08" height="74" transform="translate(520.96 7998.713)" fill="#88c0de"/>
    <g id="Group_1101657" data-name="Group 1101657" transform="translate(531.264 8008.972)">
      <g id="Group_1101656" data-name="Group 1101656" clip-path="url(#clip-path)">
        <path id="Path_876395" data-name="Path 876395" d="M59.934,128.444a8.385,8.385,0,1,1-8.385-8.385,8.385,8.385,0,0,1,8.385,8.385m-1.781,0a6.6,6.6,0,1,0-6.6,6.6,6.6,6.6,0,0,0,6.6-6.6" transform="translate(-36.568 -101.713)" fill="#12263f"/>
        <path id="Path_876396" data-name="Path 876396" d="M72.127,163.5c-.516.437-1.219,1.471-2,.813-.15-.127-2.025-3.111-2.1-3.324-.365-1.091.361-1.806,1.336-1.223.306.183,1.207,2.063,1.557,2.453.931-.584,3.959-4.013,4.761-4.094.6-.06,1.3.983.732,1.489-1.4,1.326-2.818,2.639-4.289,3.887" transform="translate(-57.552 -133.962)" fill="#12263f"/>
        <path id="Path_876397" data-name="Path 876397" d="M14.058,2.816A4.19,4.19,0,0,1,16.742,0L42.83.021C46.38,3.178,49.587,6.747,53.025,10.03c.359,13.353.044,26.782.159,40.164a3.521,3.521,0,0,1-2.978,3.287l-33.324,0c-1.045-.02-2.824-1.9-2.824-2.831V42.318c-2.141.041-2.387.319-3.13-1.684-.156-.42-.545-2.195-.725-2.407-.089-.106-.509-.162-.713-.281C8.885,37.593,7.582,36.641,7,36.693,5.8,36.8,3.8,37.9,2.863,36.976a42.06,42.06,0,0,1-2.43-4.183c-.349-.717-.666-.973-.2-1.776.448-.766,2.225-2.147,2.357-2.837a18.338,18.338,0,0,0-.029-3.02C2.383,24.528.676,23.2.237,22.445c-.47-.8-.153-1.059.2-1.776a35.436,35.436,0,0,1,2.338-4.08c.87-1.116,3.023.072,4.226.18.586.053,1.889-.9,2.494-1.253.2-.119.623-.175.713-.281.18-.212.569-1.986.725-2.407.743-2,.989-1.725,3.13-1.684ZM41.564,1.67H17.191c-.273,0-1.3.978-1.3,1.3v8.175c1.167.1,2.314-.439,2.871.872.236.555.81,3.016.984,3.218.11.128.606.183.833.314.634.366,1.719,1.279,2.373,1.22,1.175-.105,3.128-1.168,4.082-.341a52.386,52.386,0,0,1,2.67,4.511c.675,1.559-.481,1.989-1.362,3.039a8.313,8.313,0,0,0-.992,1.3c-.023.25.16.588.161.908,0,.441-.184,1.941-.138,2.112.109.408,1.976,2.094,2.339,2.715s.266.875-.008,1.506a44.41,44.41,0,0,1-2.528,4.349c-1.025,1.112-2.9-.059-4.224-.178-.654-.059-1.74.855-2.373,1.22-.227.131-.723.186-.833.314-.174.2-.748,2.663-.984,3.218-.557,1.311-1.7.773-2.871.872v8.175c0,.33.766,1.051,1.113,1.179,11,.23,22.1.136,33.121.048.434-.113,1.218-.768,1.218-1.227V11.45H44.391a10.6,10.6,0,0,1-1.349-.637,4.3,4.3,0,0,1-1.478-2.5Zm8.4,7.946L43.4,3.045V8.47a3.065,3.065,0,0,0,1.146,1.146ZM17.252,12.993l-4.423.055c-.241.161-.809,2.653-1.1,3.18-.327.594-1.553.95-2.206,1.309-.555.306-1.227,1.026-1.823,1.093-.851.095-3.255-.835-3.7-.576-.241.141-1.656,3.1-2.019,3.561,0,.446,2.315,2.3,2.444,3.065a6.9,6.9,0,0,1-.156,1.358,26.526,26.526,0,0,1,.123,2.872c-.2.759-2.058,2.084-2.411,2.939a33.209,33.209,0,0,0,1.974,3.494c.415.372,2.944-.6,3.743-.509.567.063,1.365.832,1.923,1.146.644.363,1.771.646,2.106,1.255.375.681.7,2.708,1.027,3.1.294.353,3.781.058,4.5.135.249-.787.72-3.225,1.309-3.657.346-.254,1.355-.6,1.864-.886.461-.261,1.258-1.024,1.666-1.092.89-.149,3.435.82,3.888.536.412-.258,1.45-2.879,1.965-3.4.109-.708-2.43-2.341-2.439-3.48,0-.436.171-.812.172-1.215a15.583,15.583,0,0,1-.093-2.849c.123-.424,1.98-2.024,2.308-2.587l-.046-.561-1.972-3.237c-.567-.188-2.841.748-3.783.59-.408-.069-1.2-.831-1.666-1.092-.509-.288-1.518-.632-1.864-.886-.589-.432-1.06-2.87-1.309-3.657" transform="translate(0 0.001)" fill="#12263f"/>
        <path id="Path_876398" data-name="Path 876398" d="M166.182,291.532a1.353,1.353,0,0,1-.795.2l-21.561,0c-1.269-.163-.985-1.7.153-1.85h21.562a.979.979,0,0,1,.641,1.649" transform="translate(-121.142 -245.585)" fill="#12263f"/>
        <path id="Path_876399" data-name="Path 876399" d="M143.523,48.147l13.182.048c.857.667.577,1.63-.528,1.757-3.782.435-8.367-.339-12.236,0-.967-.18-1.445-1.287-.418-1.81" transform="translate(-121.104 -40.79)" fill="#12263f"/>
        <path id="Path_876400" data-name="Path 876400" d="M202.207,98.385a1.168,1.168,0,0,1,.114-1.417l13.38-.082a.849.849,0,1,1-.158,1.691c-4.057-.264-8.534.343-12.539,0-.237-.02-.628-.026-.8-.2" transform="translate(-171.15 -82.081)" fill="#12263f"/>
        <path id="Path_876401" data-name="Path 876401" d="M202.207,241.5c.169-.169.56-.175.8-.2,4.006-.339,8.482.268,12.539,0A.849.849,0,1,1,215.7,243l-13.38-.082a1.168,1.168,0,0,1-.114-1.417" transform="translate(-171.15 -204.343)" fill="#12263f"/>
        <path id="Path_876402" data-name="Path 876402" d="M221.829,144.954l9.9-.035c1.4.14,1.145,1.745-.152,1.84-2.95-.259-6.447.334-9.328,0-1.144-.133-1.625-1.358-.422-1.8" transform="translate(-187.338 -122.774)" fill="#12263f"/>
        <path id="Path_876403" data-name="Path 876403" d="M222.029,192.949l9.6-.036c1.284.1,1.573,1.673.152,1.84-2.97.348-6.59-.267-9.632,0-1.279-.119-1.247-1.43-.117-1.8" transform="translate(-187.385 -163.434)" fill="#12263f"/>
      </g>
    </g>
  </g>
</svg>
