<svg xmlns="http://www.w3.org/2000/svg" xmlns:xlink="http://www.w3.org/1999/xlink" width="100" height="100.002" viewBox="0 0 100 100.002">
  <defs>
    <clipPath id="clip-path">
      <rect id="Rectangle_404253" data-name="Rectangle 404253" width="48.174" height="50.97" fill="#12263f"/>
    </clipPath>
  </defs>
  <g id="img51" transform="translate(-505.713 -7987.999)">
    <g id="Group_1101010" data-name="Group 1101010" transform="translate(536.702 7988)">
      <path id="Path_875656" data-name="Path 875656" d="M208.54,10.626,141.848,77.319v2.317h2.317l66.693-66.693V10.626Z" transform="translate(-141.847 -10.626)" fill="#225a78"/>
      <path id="Path_875657" data-name="Path 875657" d="M198.323,10.626,141.848,67.1v4.635l61.109-61.11Z" transform="translate(-141.847 -10.626)" fill="#225a78"/>
      <path id="Path_875658" data-name="Path 875658" d="M188.1,10.626,141.847,56.884v4.634l50.892-50.892Z" transform="translate(-141.847 -10.626)" fill="#225a78"/>
      <path id="Path_875659" data-name="Path 875659" d="M177.887,10.626l-36.04,36.041V51.3l40.675-40.675Z" transform="translate(-141.847 -10.626)" fill="#225a78"/>
      <path id="Path_875660" data-name="Path 875660" d="M167.67,10.626,141.847,36.449v4.634L172.3,10.626Z" transform="translate(-141.847 -10.626)" fill="#225a78"/>
      <path id="Path_875661" data-name="Path 875661" d="M157.452,10.626l-15.6,15.605v4.635l20.239-20.24Z" transform="translate(-141.847 -10.626)" fill="#225a78"/>
      <path id="Path_875662" data-name="Path 875662" d="M147.234,10.626l-5.388,5.388v4.635l10.022-10.022Z" transform="translate(-141.847 -10.626)" fill="#225a78"/>
      <path id="Path_875663" data-name="Path 875663" d="M268.109,146.91h4.634l5.387-5.388v-4.634Z" transform="translate(-209.12 -77.899)" fill="#225a78"/>
      <path id="Path_875664" data-name="Path 875664" d="M246.238,135.257h4.635l15.6-15.606v-4.634Z" transform="translate(-197.467 -66.246)" fill="#225a78"/>
      <path id="Path_875665" data-name="Path 875665" d="M224.368,123.6H229l25.822-25.823V93.147Z" transform="translate(-185.815 -54.594)" fill="#225a78"/>
      <path id="Path_875666" data-name="Path 875666" d="M202.5,111.952h4.634l36.04-36.041V71.277Z" transform="translate(-174.163 -42.941)" fill="#225a78"/>
      <path id="Path_875667" data-name="Path 875667" d="M180.628,100.3h4.634L231.52,54.041V49.407Z" transform="translate(-162.509 -31.289)" fill="#225a78"/>
      <path id="Path_875668" data-name="Path 875668" d="M158.757,88.646h4.634l56.475-56.476V27.536Z" transform="translate(-150.857 -19.636)" fill="#225a78"/>
    </g>
    <rect id="Rectangle_403642" data-name="Rectangle 403642" width="71.286" height="71.286" transform="translate(506.713 8015.713)" fill="none" stroke="#225a78" stroke-linecap="round" stroke-linejoin="round" stroke-width="2"/>
    <rect id="Rectangle_403641" data-name="Rectangle 403641" width="74.08" height="74" transform="translate(520.96 7998.713)" fill="#88c0de"/>
    <g id="Group_1101661" data-name="Group 1101661" transform="translate(527.913 8009.228)">
      <g id="Group_1101660" data-name="Group 1101660" transform="translate(3 1)" clip-path="url(#clip-path)">
        <path id="Path_876410" data-name="Path 876410" d="M105.233,5.327c-.18.623-1.4.51-1.542-.261a33.121,33.121,0,0,1,0-4.371,1.053,1.053,0,0,1,.732-.684L126.4,0a4.145,4.145,0,0,1,1.818.628l9.591,9.591a3.5,3.5,0,0,1,.649,1.668L138.44,43.3a.76.76,0,0,1-.708.708,19.537,19.537,0,0,1-3.312-.019.87.87,0,0,1-.445-1.357,5.3,5.3,0,0,1,.546-.29H136.9l-.031-30.416a2.1,2.1,0,0,0-1.609-1.609c-1.79-.3-4.179.177-6.023-.027-.721-.08-.91-.281-.968-.963-.155-1.818.267-4.2,0-5.92-.082-.522-.94-1.746-1.473-1.746H105.233c-.174.941.233,2.859,0,3.669M133.942,8.61l-4.12-4.12V8.61Z" transform="translate(-90.279)" fill="#12263f"/>
        <path id="Path_876411" data-name="Path 876411" d="M60.233,80.643a.791.791,0,0,1-1.547-.255l0-26.658a.847.847,0,0,1,.966-.966c7.013.393,14.561-.5,21.511,0a3.832,3.832,0,0,1,2.122.711l9.463,9.462.54,1.005c.387,10.557.049,21.185.171,31.769.03.755-.515,1.09-1.224,1.093l-32.7-.012a1.056,1.056,0,0,1-.841-.7,33.1,33.1,0,0,1,0-4.371c.179-.953,1.542-.682,1.542-.132v3.54H91.9V64.68c0-.8-1.285-1.6-2.029-1.7-1.022-.147-6.074.171-6.437-.193-.39-.39-.014-5.515-.19-6.569-.078-.464-.856-1.769-1.321-1.769H60.233ZM88.942,61.4l-4.12-4.12V61.4Z" transform="translate(-51.072 -45.835)" fill="#12263f"/>
        <path id="Path_876412" data-name="Path 876412" d="M97.973,345.872l22.89-.035c1.383-.021,1.682,1.429.255,1.681H98.069c-1.209-.142-1.34-1.423-.1-1.646" transform="translate(-84.599 -301.313)" fill="#12263f"/>
        <path id="Path_876413" data-name="Path 876413" d="M97.724,122.889l14.007-.03a.78.78,0,0,1,.133,1.554H97.818a.771.771,0,0,1-.094-1.524" transform="translate(-84.609 -107.042)" fill="#12263f"/>
        <path id="Path_876414" data-name="Path 876414" d="M97.81,91.889l13.747-.034c1.192.14,1.252,1.422.261,1.554H97.772a.761.761,0,0,1,.038-1.52" transform="translate(-84.563 -80.03)" fill="#12263f"/>
        <path id="Path_876415" data-name="Path 876415" d="M32.928,149.833c10.925,10.314-3.442,27.611-15.646,18.539-.371-.276-1.87-1.808-2-1.82a15.32,15.32,0,0,0-1.832,1.03c-.237.283-.317.906-.759,1.366a71.841,71.841,0,0,1-8.328,4.932A3.123,3.123,0,0,1,1.022,168.7c2.193-.918,7.129-4.906,9.238-5.023.391-.022.77.155,1.089.078.489-.118,1.235-.862,1.8-.985a12.142,12.142,0,0,1,19.778-12.942m2.191,8.812a10.562,10.562,0,1,0-10.562,10.562A10.562,10.562,0,0,0,35.12,158.645m-20.809,6.712-.577-1.143-.968.5c.234.14.47.994.517,1.028.135.1.793-.426,1.028-.388m-4.021-.1a4.364,4.364,0,0,0-1.086.469c-2.37,1.172-4.716,2.873-7.057,4.143A1.517,1.517,0,0,0,3.5,172.507l7.785-4.446a1.551,1.551,0,0,0-1-2.808" transform="translate(0 -127.653)" fill="#12263f"/>
        <path id="Path_876416" data-name="Path 876416" d="M120.321,207.747c-1.312-1.387-1.528-1.547-.2-3.076a11.28,11.28,0,0,1,15.771-.844c.46.41,1.727,1.689,1.745,2.261.029.92-2.157,2.744-2.932,3.254a11.151,11.151,0,0,1-14.384-1.6m7.495-5.165a9.559,9.559,0,0,0-6.787,3.52,9.563,9.563,0,0,0,13.44,1.459,14.53,14.53,0,0,0,1.335-1.367c.085-.439-1.652-1.768-2.052-2.029a9.924,9.924,0,0,0-5.936-1.582" transform="translate(-103.876 -175.138)" fill="#12263f"/>
        <path id="Path_876417" data-name="Path 876417" d="M173.981,221.053a2.9,2.9,0,1,1-2.9-2.9,2.9,2.9,0,0,1,2.9,2.9m-1.575,0a1.318,1.318,0,1,0-1.318,1.318,1.318,1.318,0,0,0,1.318-1.318" transform="translate(-146.531 -190.069)" fill="#12263f"/>
      </g>
    </g>
  </g>
</svg>
