<svg xmlns="http://www.w3.org/2000/svg" xmlns:xlink="http://www.w3.org/1999/xlink" width="100" height="100.002" viewBox="0 0 100 100.002">
  <defs>
    <clipPath id="clip-path">
      <rect id="Rectangle_404252" data-name="Rectangle 404252" width="53.676" height="53.462" fill="#12263f"/>
    </clipPath>
  </defs>
  <g id="img50" transform="translate(-505.713 -7987.999)">
    <g id="Group_1101010" data-name="Group 1101010" transform="translate(536.702 7988)">
      <path id="Path_875656" data-name="Path 875656" d="M208.54,10.626,141.848,77.319v2.317h2.317l66.693-66.693V10.626Z" transform="translate(-141.847 -10.626)" fill="#225a78"/>
      <path id="Path_875657" data-name="Path 875657" d="M198.323,10.626,141.848,67.1v4.635l61.109-61.11Z" transform="translate(-141.847 -10.626)" fill="#225a78"/>
      <path id="Path_875658" data-name="Path 875658" d="M188.1,10.626,141.847,56.884v4.634l50.892-50.892Z" transform="translate(-141.847 -10.626)" fill="#225a78"/>
      <path id="Path_875659" data-name="Path 875659" d="M177.887,10.626l-36.04,36.041V51.3l40.675-40.675Z" transform="translate(-141.847 -10.626)" fill="#225a78"/>
      <path id="Path_875660" data-name="Path 875660" d="M167.67,10.626,141.847,36.449v4.634L172.3,10.626Z" transform="translate(-141.847 -10.626)" fill="#225a78"/>
      <path id="Path_875661" data-name="Path 875661" d="M157.452,10.626l-15.6,15.605v4.635l20.239-20.24Z" transform="translate(-141.847 -10.626)" fill="#225a78"/>
      <path id="Path_875662" data-name="Path 875662" d="M147.234,10.626l-5.388,5.388v4.635l10.022-10.022Z" transform="translate(-141.847 -10.626)" fill="#225a78"/>
      <path id="Path_875663" data-name="Path 875663" d="M268.109,146.91h4.634l5.387-5.388v-4.634Z" transform="translate(-209.12 -77.899)" fill="#225a78"/>
      <path id="Path_875664" data-name="Path 875664" d="M246.238,135.257h4.635l15.6-15.606v-4.634Z" transform="translate(-197.467 -66.246)" fill="#225a78"/>
      <path id="Path_875665" data-name="Path 875665" d="M224.368,123.6H229l25.822-25.823V93.147Z" transform="translate(-185.815 -54.594)" fill="#225a78"/>
      <path id="Path_875666" data-name="Path 875666" d="M202.5,111.952h4.634l36.04-36.041V71.277Z" transform="translate(-174.163 -42.941)" fill="#225a78"/>
      <path id="Path_875667" data-name="Path 875667" d="M180.628,100.3h4.634L231.52,54.041V49.407Z" transform="translate(-162.509 -31.289)" fill="#225a78"/>
      <path id="Path_875668" data-name="Path 875668" d="M158.757,88.646h4.634l56.475-56.476V27.536Z" transform="translate(-150.857 -19.636)" fill="#225a78"/>
    </g>
    <rect id="Rectangle_403642" data-name="Rectangle 403642" width="71.286" height="71.286" transform="translate(506.713 8015.713)" fill="none" stroke="#225a78" stroke-linecap="round" stroke-linejoin="round" stroke-width="2"/>
    <rect id="Rectangle_403641" data-name="Rectangle 403641" width="74.08" height="74" transform="translate(520.96 7998.713)" fill="#88c0de"/>
    <g id="Group_1101659" data-name="Group 1101659" transform="translate(531.162 8008.982)">
      <g id="Group_1101658" data-name="Group 1101658" clip-path="url(#clip-path)">
        <path id="Path_876404" data-name="Path 876404" d="M247.587,81.169l13.665-.032c1.31.152,1.182,1.636-.279,1.8-3.99.448-8.786-.334-12.862,0-1.16-.022-1.727-1.252-.524-1.768" transform="translate(-212.767 -69.915)" fill="#12263f"/>
        <path id="Path_876405" data-name="Path 876405" d="M247.626,41.207l9.648-.026c1.189.584.891,1.648-.411,1.794-2.752.309-6.043-.232-8.855,0-1.094-.088-1.5-1.346-.382-1.771" transform="translate(-212.806 -35.485)" fill="#12263f"/>
        <path id="Path_876406" data-name="Path 876406" d="M23.8,13.575a14.362,14.362,0,0,1,6.085,0V.644c0-.168.481-.726.754-.629L48.2.025c1.86,1.535,3.5,3.429,5.252,5.12l.22.748,0,27.67a.859.859,0,0,1-.9.9H35.347a13.443,13.443,0,0,1-5.452,2.915c.141.95-.24,2.8-.017,3.623a8.775,8.775,0,0,1,.753.661c.628.884.312,3.185.35,4.352.052,1.6.438,4.543.084,6.02a2.239,2.239,0,0,1-1.424,1.342,23.037,23.037,0,0,1-4.329-.033,1.936,1.936,0,0,1-1.246-1.8c-.261-2.771.121-6.026-.133-8.857A2.433,2.433,0,0,1,25.181,41c.2-.837-.152-2.429,0-3.359a12.876,12.876,0,0,1-6.848-3.179H.9a.859.859,0,0,1-.9-.9L0,5.893l.22-.748L5.185.152C11.078-.155,17.1.115,23.041.015c.273-.1.754.462.754.629ZM22,1.681H6.645V5.623c0,.236-.52.9-.761.9H1.8V32.8H16.88A22.6,22.6,0,0,1,15.2,29.5L5.063,29.472c-1.234-.195-.633-1.651-.285-1.651H14.6c.316,0-.066-1.688-.074-2a17.565,17.565,0,0,1,.143-1.873H4.778c-.393,0-.832-1.47.141-1.657l9.936-.022c.446-.874.788-1.843,1.261-2.75.133-.255.5-.665.558-.83a.231.231,0,0,0-.14-.274H4.778c-.34,0-.9-1.382.168-1.63l13.1-.036c1.314-.825,2.415-2.016,3.948-2.483Zm25.033,0H31.679V14.267c1.533.467,2.634,1.657,3.948,2.483l13.1.036c1.072.248.508,1.63.168,1.63H37.142a.231.231,0,0,0-.14.274c.059.164.425.574.558.83.473.907.815,1.876,1.261,2.75l9.936.022c.973.186.534,1.657.141,1.657H39.009a17.566,17.566,0,0,1,.143,1.873c-.008.311-.391,2-.074,2H48.9c.348,0,.949,1.456-.285,1.651L38.478,29.5A22.6,22.6,0,0,1,36.8,32.8H51.871V6.522h-4.08c-.241,0-.761-.663-.761-.9ZM4.848,4.725l0-1.66L3.188,4.655Zm44.9-.92c-.26-.26-.648-.478-.918-.74l0,1.66,1.66,0c-.262-.271-.48-.658-.74-.918M37.38,25.5A10.542,10.542,0,1,0,26.838,36.047,10.542,10.542,0,0,0,37.38,25.5m-10.4,15.317h1.106V37.779H26.976ZM25.87,51.748H28.7c.033,0,.6-.187.623-.206.318-.232,0-.868-.006-1.24-.066-2.239.263-5.077.013-7.2-.016-.139-.063-.477-.215-.477H25.731Z" transform="translate(0 0)" fill="#12263f"/>
        <path id="Path_876407" data-name="Path 876407" d="M147.147,128.572a8.967,8.967,0,1,1-8.967-8.967,8.967,8.967,0,0,1,8.967,8.967m-1.735.007a7.233,7.233,0,1,0-7.233,7.233,7.233,7.233,0,0,0,7.233-7.233" transform="translate(-111.342 -103.063)" fill="#12263f"/>
        <path id="Path_876408" data-name="Path 876408" d="M31.6,81.169l13.665-.032c1.425.165,1.049,1.82-.279,1.8-4.075-.335-8.874.449-12.862,0-1.189-.134-1.7-1.208-.524-1.768" transform="translate(-26.656 -69.915)" fill="#12263f"/>
        <path id="Path_876409" data-name="Path 876409" d="M61.825,41.238l9.644-.02c1.126.176,1.028,1.641-.265,1.792-2.811-.236-6.1.307-8.855,0-1.22-.137-1.6-1.06-.525-1.769" transform="translate(-52.731 -35.517)" fill="#12263f"/>
      </g>
    </g>
  </g>
</svg>
