<svg xmlns="http://www.w3.org/2000/svg" xmlns:xlink="http://www.w3.org/1999/xlink" width="400" height="189.795" viewBox="0 0 400 189.795">
  <defs>
    <clipPath id="clip-path">
      <rect id="Rectangle_404325" data-name="Rectangle 404325" width="253.7" height="188.933" transform="translate(0 0)" fill="none"/>
    </clipPath>
  </defs>
  <g id="img2" transform="translate(-1020 -973.205)">
    <rect id="Rectangle_404305" data-name="Rectangle 404305" width="400" height="77" rx="38.5" transform="translate(1020 1086)" fill="#88c0de"/>
    <g id="Group_1101732" data-name="Group 1101732" transform="translate(1098.013 973.207)">
      <g id="Group_1101731" data-name="Group 1101731" transform="translate(0 -0.002)" clip-path="url(#clip-path)">
        <path id="Path_876622" data-name="Path 876622" d="M21.617,186.685c-7.152-3.5-24.25-8.443-21.272-29.63.955-6.793,9.681-17.134,16.045-19.693,24.558-9.875,18.7-18.174,8.069-36.092C16.19,82.171,20.168,48.493,39,38.4c12.162-6.518,33.945,3.022,46.726-2.179,13.789-5.611,15.167-21.44,28.465-28.134,39.893-20.084,98.145-1.733,99.959,43.5,3.306,82.467,67.959,50.99,22.95,136.219Z" transform="translate(0 0.002)" fill="#e3e9ff"/>
        <path id="Path_876623" data-name="Path 876623" d="M282.322,1484.45l-.387-.191c-.153-.075-3.749-1.875-4.667-4.595a8.151,8.151,0,0,1-.42-3.753,2.606,2.606,0,0,1,1.532-2.274c1.584-.535,3.577,1.275,4.537,4.12.911,2.7-.385,6.144-.441,6.289Zm-4.049-9.852a2.417,2.417,0,0,0-.646,1.435,7.355,7.355,0,0,0,.388,3.379c.646,1.914,2.939,3.39,3.871,3.924a9.567,9.567,0,0,0,.286-5.327l.373-.126-.373.126c-.792-2.346-2.412-4.006-3.539-3.626a1.035,1.035,0,0,0-.359.214" transform="translate(-248.531 -1323.157)" fill="#f7f9ff"/>
        <path id="Path_876624" data-name="Path 876624" d="M254.981,1582.154l-.385.2c-.152.078-3.742,1.888-6.472,1-2.855-.928-4.688-2.9-4.171-4.49a2.606,2.606,0,0,1,2.256-1.557,8.146,8.146,0,0,1,3.757.377c2.709.88,4.7,3.976,4.782,4.108Zm-9.956-3.524a1.1,1.1,0,0,0-.323.475c-.368,1.131,1.311,2.733,3.666,3.5,1.921.624,4.474-.335,5.459-.763a9.564,9.564,0,0,0-4.1-3.409,7.356,7.356,0,0,0-3.383-.35,2.624,2.624,0,0,0-1.315.549" transform="translate(-218.978 -1416.255)" fill="#f7f9ff"/>
        <path id="Path_876625" data-name="Path 876625" d="M345.217,1536.827a12.641,12.641,0,0,1-3.913,2.258l-.409.139-.1-.42c-.039-.165-.948-4.083.561-6.525a8.149,8.149,0,0,1,2.622-2.717,2.258,2.258,0,0,1,3.707,2.29,8.147,8.147,0,0,1-1.257,3.561,6.543,6.543,0,0,1-1.211,1.415m-3.743,1.35a9.568,9.568,0,0,0,4.284-3.179,7.358,7.358,0,0,0,1.141-3.2,1.5,1.5,0,0,0-2.519-1.556,7.354,7.354,0,0,0-2.355,2.454c-1.062,1.719-.735,4.426-.552,5.485" transform="translate(-305.739 -1372.967)" fill="#f7f9ff"/>
        <path id="Path_876626" data-name="Path 876626" d="M324.564,1573.135l-.929.585-.021-.022-.095.045-.316.148-.185-.3c-.455-.73-.883-1.429-1.272-2.08-4.858-8.129-5.721-11.908-5.755-12.065l-.084-.385,1.525-.331.079.387c.021.089.917,3.844,5.71,11.831.368.612.75,1.236,1.135,1.852Z" transform="translate(-283.666 -1399.653)" fill="#f7f9ff"/>
        <path id="Path_876627" data-name="Path 876627" d="M383.856,1511.733a13.411,13.411,0,0,0-26.1-4.346,5.086,5.086,0,0,0-7.569,5.6,10.77,10.77,0,0,0-12.368,10.644c0,5.944,4.666,10.214,10.611,10.214,2.5,0,25.245-1,25.245-1s10.18-15.358,10.18-21.114" transform="translate(-303.343 -1345.407)" fill="#3f964f"/>
        <path id="Path_876628" data-name="Path 876628" d="M1744.483,1448.439a7.724,7.724,0,0,1-.131,1.422H1674.3l4.422-22.609a10.934,10.934,0,0,1-5.4-9.145c0-6.3,6.012-11.406,13.427-11.406s13.426,5.107,13.426,11.406a9.77,9.77,0,0,1-.325,2.5c.533-.052,1.074-.08,1.623-.08,6.152,0,11.378,3.367,13.266,8.05a6.01,6.01,0,0,1,2.76-.656c2.936,0,5.316,2.022,5.316,4.516a3.881,3.881,0,0,1-.163,1.111,13.4,13.4,0,0,1,1.678-.106c5.341,0,9.813,3.161,10.964,7.4a7.732,7.732,0,0,1,9.188,7.593" transform="translate(-1502.546 -1263.136)" fill="#3f964f"/>
        <path id="Path_876629" data-name="Path 876629" d="M1830.628,1088.269c-2.31,2.489-6.818,3.085-6.818,3.085s-.193-4.96,2.118-7.449,5.235-3.53,6.533-2.325.478,4.2-1.832,6.688" transform="translate(-1637.672 -970.747)" fill="#3f964f"/>
        <path id="Path_876630" data-name="Path 876630" d="M1739.72,1110.606c.618,3.339-1.595,7.312-1.595,7.312s-4.094-2.806-4.712-6.146.294-6.307,2.035-6.63,3.654,2.124,4.272,5.463" transform="translate(-1556.331 -992.329)" fill="#3f964f"/>
        <path id="Path_876631" data-name="Path 876631" d="M1680.368,1211.606c-.226.545-.411.909-.458,1a.123.123,0,0,1-.012.023v0l0,0-.014-.008c-.045-.031-.177-.122-.373-.266-1.048-.773-3.884-3.079-4.438-5.779-.68-3.327.176-6.312,1.91-6.666s3.694,2.054,4.374,5.38a9.722,9.722,0,0,1-.337,4.46,16.146,16.146,0,0,1-.649,1.857" transform="translate(-1503.906 -1077.418)" fill="#3f964f"/>
        <path id="Path_876632" data-name="Path 876632" d="M1788.012,1206.31c-3.391-.191-6.726-3.282-6.726-3.282s3.7-3.313,7.087-3.122,6.058,1.779,5.958,3.548-2.929,3.047-6.319,2.856" transform="translate(-1599.492 -1077.439)" fill="#3f964f"/>
        <path id="Path_876633" data-name="Path 876633" d="M1728.394,1291.009c-3.392.163-7.031-2.563-7.031-2.563s3.331-3.68,6.723-3.844,6.21,1.138,6.3,2.907-2.6,3.336-5.987,3.5" transform="translate(-1545.683 -1153.486)" fill="#3f964f"/>
        <path id="Path_876634" data-name="Path 876634" d="M1732.38,1167.214c-.039.033-3.64,3.21-9.617,13.337q-.656,1.114-1.351,2.339l-.049-.027-.365-.207v0h0l-.014-.008c-.045-.031-.177-.122-.373-.266q.78-1.376,1.51-2.606c5.958-10.052,9.482-13.144,9.641-13.281Z" transform="translate(-1545.006 -1047.443)" fill="#3f964f"/>
        <path id="Path_876635" data-name="Path 876635" d="M345.057,836.251c2.487,2.2,3.174,6.6,3.174,6.6s-4.846.3-7.334-1.9-3.572-5.039-2.424-6.336,4.1-.564,6.583,1.638" transform="translate(-303.518 -748.858)" fill="#3f964f"/>
        <path id="Path_876636" data-name="Path 876636" d="M369.944,946.6c3.251-.681,7.188,1.391,7.188,1.391s-2.65,4.069-5.9,4.75-6.175-.142-6.53-1.838,1.993-3.623,5.244-4.3" transform="translate(-327.447 -849.873)" fill="#3f964f"/>
        <path id="Path_876637" data-name="Path 876637" d="M470.094,1001.946c.538.208.9.381.99.426a.128.128,0,0,1,.022.011h0l0,0-.007.014c-.029.045-.115.176-.251.37-.732,1.042-2.922,3.869-5.55,4.473-3.238.742-6.177-.026-6.563-1.715s1.924-3.66,5.161-4.4a9.514,9.514,0,0,1,4.369.227,15.972,15.972,0,0,1,1.83.592" transform="translate(-411.879 -898.806)" fill="#3f964f"/>
        <path id="Path_876638" data-name="Path 876638" d="M461.558,842.449c-.109,3.32-3.055,6.654-3.055,6.654s-3.325-3.539-3.216-6.859,1.6-5.966,3.332-5.909,3.047,2.794,2.939,6.114" transform="translate(-408.819 -750.98)" fill="#3f964f"/>
        <path id="Path_876639" data-name="Path 876639" d="M545.645,899.134c.238,3.313-2.344,6.936-2.344,6.936s-3.676-3.173-3.914-6.486.97-6.1,2.7-6.224,3.322,2.461,3.56,5.775" transform="translate(-484.311 -802.181)" fill="#3f964f"/>
        <path id="Path_876640" data-name="Path 876640" d="M423.734,909.292c.033.037,3.223,3.486,13.264,9.1q1.1.616,2.319,1.267l-.026.049-.194.362h0v0l-.007.014c-.03.044-.115.176-.251.37q-1.364-.731-2.584-1.417c-9.967-5.6-13.072-8.971-13.21-9.123Z" transform="translate(-379.868 -816.491)" fill="#3f964f"/>
        <path id="Path_876641" data-name="Path 876641" d="M409.2,1250.728c2.46-1.355,6.155-.653,6.155-.653s-1.136,3.945-3.6,5.3-5.027,1.413-5.734.13.715-3.422,3.175-4.776" transform="translate(-364.423 -1122.332)" fill="#3f964f"/>
        <path id="Path_876642" data-name="Path 876642" d="M513.463,1229.716c.382-2.782,3.15-5.328,3.15-5.328s2.487,3.266,2.105,6.048-1.867,4.877-3.318,4.678-2.318-2.616-1.937-5.4" transform="translate(-460.979 -1099.429)" fill="#3f964f"/>
        <path id="Path_876643" data-name="Path 876643" d="M586.184,1165.777c.319-.369.558-.607.62-.668l.015-.015h0a0,0,0,0,1,0,0l.009.01c.027.036.108.142.224.305.622.879,2.251,3.425,1.985,5.69-.329,2.789-1.776,4.911-3.23,4.739s-2.367-2.572-2.039-5.359a8.044,8.044,0,0,1,1.422-3.415,13.466,13.466,0,0,1,.991-1.289" transform="translate(-524.132 -1046.187)" fill="#3f964f"/>
        <path id="Path_876644" data-name="Path 876644" d="M450.65,1176.534c2.613,1.03,4.43,4.322,4.43,4.322s-3.762,1.642-6.375.613-4.3-2.969-3.758-4.332,3.091-1.632,5.7-.6" transform="translate(-399.447 -1055.898)" fill="#3f964f"/>
        <path id="Path_876645" data-name="Path 876645" d="M518.6,1127.245c2.706.752,4.857,3.837,4.857,3.837s-3.571,2.026-6.276,1.274-4.582-2.505-4.19-3.917,2.9-1.946,5.609-1.194" transform="translate(-460.591 -1011.895)" fill="#3f964f"/>
        <path id="Path_876646" data-name="Path 876646" d="M487.394,1171.7c.039-.016,3.691-1.576,11.013-7.977q.8-.7,1.668-1.486l.032.034.233.257h0l0,0,.009.01c.027.036.108.142.224.305q-.969.878-1.862,1.655c-7.287,6.347-10.857,7.861-11.017,7.927Z" transform="translate(-437.652 -1043.622)" fill="#3f964f"/>
        <path id="Path_876647" data-name="Path 876647" d="M2321.659,1400.951l-.075-.4c-.03-.156-.705-3.847.808-6.058,1.187-1.734,2.792-2.854,4.089-2.854a1.783,1.783,0,0,1,1.029.3c1.288.881,1.056,3.382-.526,5.695-1.5,2.194-4.8,3.16-4.937,3.2Zm4.822-8.573c-1.03,0-2.462,1.042-3.483,2.534-1.064,1.555-.878,4.094-.753,5.088a8.927,8.927,0,0,0,4.133-2.776c1.3-1.907,1.633-4.047.718-4.674a1.065,1.065,0,0,0-.614-.173" transform="translate(-2084.491 -1249.615)" fill="#f7f9ff"/>
        <path id="Path_876648" data-name="Path 876648" d="M2256.5,1434.937l-.362-.176c-.143-.069-3.508-1.731-4.378-4.264-.91-2.65-.468-5.123,1.007-5.63a1.692,1.692,0,0,1,.549-.09c1.391,0,2.915,1.609,3.706,3.912.864,2.514-.328,5.735-.379,5.871Zm-3.185-9.426a.957.957,0,0,0-.31.051c-1.049.361-1.3,2.511-.551,4.7.612,1.783,2.76,3.149,3.633,3.642a8.925,8.925,0,0,0,.24-4.972c-.669-1.947-1.964-3.416-3.011-3.416" transform="translate(-2021.53 -1279.367)" fill="#f7f9ff"/>
        <path id="Path_876649" data-name="Path 876649" d="M2223.651,1511.9l-.513-.084-.034-.048c-.06-.03-.143-.072-.248-.127-.99-.525-3.373-1.967-4.119-4.01a7.608,7.608,0,0,1-.476-3.492,2.431,2.431,0,0,1,1.378-2.156,1.69,1.69,0,0,1,.581-.1c1.38,0,2.919,1.579,3.745,3.841a7.533,7.533,0,0,1,.263,3.531,12.6,12.6,0,0,1-.285,1.5c-.106.425-.2.723-.236.817Zm-3.432-9.283a.961.961,0,0,0-.329.057c-.464.169-.792.738-.9,1.561a6.868,6.868,0,0,0,.438,3.144c.656,1.8,2.911,3.146,3.7,3.573.031-.108.066-.236.1-.38a11.857,11.857,0,0,0,.269-1.411,6.824,6.824,0,0,0-.225-3.187c-.7-1.914-2.012-3.358-3.055-3.358" transform="translate(-1991.829 -1348.604)" fill="#f7f9ff"/>
        <path id="Path_876650" data-name="Path 876650" d="M2300.579,1490.509a10.647,10.647,0,0,1-5.141-1.781l-.333-.228.257-.31c.1-.122,2.513-3,5.18-3.243.282-.026.566-.039.844-.039,2.456,0,4.26.967,4.387,2.351.143,1.553-1.931,2.971-4.721,3.228-.153.014-.312.021-.473.021m-4.369-2.164a9.5,9.5,0,0,0,4.369,1.429c.138,0,.274-.006.405-.018,2.3-.212,4.158-1.324,4.057-2.429-.088-.96-1.66-1.684-3.656-1.684-.256,0-.517.012-.776.036-1.881.173-3.714,1.936-4.4,2.666" transform="translate(-2060.872 -1333.361)" fill="#f7f9ff"/>
        <path id="Path_876651" data-name="Path 876651" d="M2265.816,1559.536a11.291,11.291,0,0,1-4.677-1.266l-.355-.192.223-.335c.088-.132,2.187-3.244,4.814-3.766a8.833,8.833,0,0,1,1.719-.174c2.029,0,3.491.757,3.724,1.928.3,1.53-1.61,3.157-4.359,3.7a5.617,5.617,0,0,1-1.09.1m-3.948-1.728a10.235,10.235,0,0,0,3.948.993,4.9,4.9,0,0,0,.947-.088c2.266-.451,4-1.75,3.781-2.839-.157-.787-1.392-1.337-3-1.337a8.091,8.091,0,0,0-1.576.16c-1.852.368-3.492,2.312-4.1,3.11" transform="translate(-2030.054 -1395.225)" fill="#f7f9ff"/>
        <path id="Path_876652" data-name="Path 876652" d="M2262.2,1475.526l-.958-.365,0-.028-.086-.045-.288-.153.117-.3c.288-.748.57-1.46.838-2.116,3.334-8.18,5.668-10.948,5.766-11.061l.24-.279,1.1.951-.244.279c-.021.024-2.329,2.786-5.616,10.9-.251.62-.5,1.254-.744,1.886Z" transform="translate(-2030.137 -1312.051)" fill="#f7f9ff"/>
        <path id="Path_876653" data-name="Path 876653" d="M1483.806,155.861a4.565,4.565,0,1,1,4.565-4.565,4.57,4.57,0,0,1-4.565,4.565m0-8.186a3.621,3.621,0,1,0,3.621,3.621,3.625,3.625,0,0,0-3.621-3.621" transform="translate(-1328.273 -131.756)" fill="#f7f9ff"/>
        <path id="Path_876654" data-name="Path 876654" d="M426.067,1831.472H201.932a1.123,1.123,0,0,1,0-2.246H426.067a1.123,1.123,0,1,1,0,2.246" transform="translate(-180.315 -1642.539)" fill="#2c2858"/>
        <path id="Path_876655" data-name="Path 876655" d="M317.39,1314.122a4.565,4.565,0,1,1,4.565-4.565,4.57,4.57,0,0,1-4.565,4.565m0-8.186a3.621,3.621,0,1,0,3.621,3.621,3.625,3.625,0,0,0-3.621-3.621" transform="translate(-280.899 -1171.807)" fill="#f7f9ff"/>
        <path id="Path_876656" data-name="Path 876656" d="M436.814,1427.005a2.741,2.741,0,1,1-2.741-2.741,2.741,2.741,0,0,1,2.741,2.741" transform="translate(-387.31 -1278.907)" fill="#f7f9ff"/>
        <path id="Path_876657" data-name="Path 876657" d="M1406.875,80.568a2.742,2.742,0,1,1-2.741-2.741,2.742,2.742,0,0,1,2.741,2.741" transform="translate(-1258.369 -69.884)" fill="#f7f9ff"/>
        <path id="Path_876658" data-name="Path 876658" d="M2280.585,1213.532a2.741,2.741,0,1,1-2.741-2.741,2.741,2.741,0,0,1,2.741,2.741" transform="translate(-2042.91 -1087.22)" fill="#f7f9ff"/>
        <path id="Path_876659" data-name="Path 876659" d="M688.312,450.116H576.892a3.177,3.177,0,0,1-3.177-3.177V296.5a3.177,3.177,0,0,1,3.177-3.177H688.312a3.177,3.177,0,0,1,3.177,3.177V446.939a3.177,3.177,0,0,1-3.177,3.177" transform="translate(-515.163 -263.391)" fill="#8ea5ed"/>
        <rect id="Rectangle_404306" data-name="Rectangle 404306" width="32.568" height="30.831" transform="matrix(0.932, -0.362, 0.362, 0.932, 47.459, 50.843)" fill="#f5a3b7"/>
        <path id="Path_876660" data-name="Path 876660" d="M656.3,417.141v33.026l1.89-.575V416.4Z" transform="translate(-589.319 -373.904)" fill="#f291a9"/>
        <path id="Path_876661" data-name="Path 876661" d="M790.1,480.457H709.35l-18.826-13.512V334.678H790.1Z" transform="translate(-620.051 -300.521)" fill="#5f7fcf"/>
        <path id="Path_876662" data-name="Path 876662" d="M775.31,479.405H694.565l-18.826-13.4V334.829H775.31Z" transform="translate(-606.775 -300.657)" fill="#fff"/>
        <path id="Path_876663" data-name="Path 876663" d="M694.628,1611.315l-18.819-13.457,12.492-2.533Z" transform="translate(-606.838 -1432.51)" fill="#cdd8fa"/>
        <path id="Path_876664" data-name="Path 876664" d="M675.81,1620.142l20.328,14.588s-15.356-4.537-20.328-14.588" transform="translate(-606.838 -1454.794)" fill="#5f7fcf"/>
        <path id="Path_876665" data-name="Path 876665" d="M938.995,249.913v7.258a1.36,1.36,0,0,1-1.36,1.359H882.213a1.36,1.36,0,0,1-1.36-1.359v-7.258a5.63,5.63,0,0,1,5.631-5.629h46.882a5.629,5.629,0,0,1,5.63,5.629" transform="translate(-790.955 -219.352)" fill="#f37a50"/>
        <path id="Path_876666" data-name="Path 876666" d="M1072.476,158.183h-23.909a11.954,11.954,0,1,1,23.909,0" transform="translate(-941.553 -131.305)" fill="#f37a50"/>
        <path id="Path_876667" data-name="Path 876667" d="M937.135,157.684l-56.282,10.076v-5.9a5.63,5.63,0,0,1,5.631-5.63h11.644a11.956,11.956,0,0,1,23.592,0h11.645a5.609,5.609,0,0,1,3.77,1.448" transform="translate(-790.955 -131.305)" fill="#de623c"/>
        <path id="Path_876668" data-name="Path 876668" d="M1137.823,177.881a3.575,3.575,0,1,1-3.575-3.575,3.575,3.575,0,0,1,3.575,3.575" transform="translate(-1015.279 -156.517)" fill="#e3e9ff"/>
        <path id="Path_876669" data-name="Path 876669" d="M750.6,581.614H733.741a.967.967,0,0,1-.967-.967V563.787a.967.967,0,0,1,.967-.967H750.6a.967.967,0,0,1,.967.967v16.861a.967.967,0,0,1-.967.967m-15.894-1.933h14.927V564.753H734.707Z" transform="translate(-657.989 -505.38)" fill="#8ea5ed"/>
        <path id="Path_876670" data-name="Path 876670" d="M728.654,559.305l-9.034-10.471,3.2-2.765,5.86,6.792,11.935-13.577,3.179,2.794Z" transform="translate(-646.177 -484.246)" fill="#00d1a1"/>
        <rect id="Rectangle_404307" data-name="Rectangle 404307" width="38.889" height="3.465" transform="translate(101.449 58.71)" fill="#cdd8fa"/>
        <rect id="Rectangle_404308" data-name="Rectangle 404308" width="20.949" height="3.465" transform="translate(142.993 58.71)" fill="#cdd8fa"/>
        <rect id="Rectangle_404309" data-name="Rectangle 404309" width="22.316" height="3.465" transform="translate(101.449 65.599)" fill="#cdd8fa"/>
        <rect id="Rectangle_404310" data-name="Rectangle 404310" width="48.926" height="3.465" transform="translate(101.449 72.488)" fill="#cdd8fa"/>
        <rect id="Rectangle_404311" data-name="Rectangle 404311" width="37.672" height="3.465" transform="translate(126.27 65.599)" fill="#cdd8fa"/>
        <path id="Path_876671" data-name="Path 876671" d="M750.6,958.344H733.741a.967.967,0,0,1-.967-.967V940.517a.967.967,0,0,1,.967-.967H750.6a.967.967,0,0,1,.967.967v16.861a.967.967,0,0,1-.967.967m-15.894-1.933h14.927V941.483H734.707Z" transform="translate(-657.989 -843.661)" fill="#8ea5ed"/>
        <path id="Path_876672" data-name="Path 876672" d="M728.654,936.036l-9.034-10.471,3.2-2.765,5.86,6.792,11.935-13.576,3.179,2.794Z" transform="translate(-646.177 -822.528)" fill="#00d1a1"/>
        <rect id="Rectangle_404312" data-name="Rectangle 404312" width="54.649" height="3.465" transform="translate(101.449 96.672)" fill="#cdd8fa"/>
        <rect id="Rectangle_404313" data-name="Rectangle 404313" width="34.517" height="3.465" transform="translate(101.449 103.561)" fill="#cdd8fa"/>
        <rect id="Rectangle_404314" data-name="Rectangle 404314" width="13.587" height="3.465" transform="translate(101.449 110.45)" fill="#cdd8fa"/>
        <rect id="Rectangle_404315" data-name="Rectangle 404315" width="46.418" height="3.465" transform="translate(117.244 110.45)" fill="#cdd8fa"/>
        <rect id="Rectangle_404316" data-name="Rectangle 404316" width="24.89" height="3.465" transform="translate(138.772 103.561)" fill="#cdd8fa"/>
        <path id="Path_876673" data-name="Path 876673" d="M750.6,1333.42H733.741a.967.967,0,0,1-.967-.967v-16.861a.967.967,0,0,1,.967-.967H750.6a.967.967,0,0,1,.967.967v16.861a.966.966,0,0,1-.967.967m-15.894-1.933h14.927v-14.927H734.707Z" transform="translate(-657.989 -1180.458)" fill="#8ea5ed"/>
        <path id="Path_876674" data-name="Path 876674" d="M728.654,1311.11l-9.034-10.471,3.2-2.765,5.86,6.792,11.935-13.576,3.179,2.795Z" transform="translate(-646.177 -1159.323)" fill="#00d1a1"/>
        <rect id="Rectangle_404317" data-name="Rectangle 404317" width="16.769" height="3.465" transform="translate(101.449 134.803)" fill="#cdd8fa"/>
        <rect id="Rectangle_404318" data-name="Rectangle 404318" width="43.429" height="3.465" transform="translate(120.072 134.803)" fill="#cdd8fa"/>
        <rect id="Rectangle_404319" data-name="Rectangle 404319" width="45.34" height="3.465" transform="translate(101.449 141.692)" fill="#cdd8fa"/>
        <rect id="Rectangle_404320" data-name="Rectangle 404320" width="28.828" height="3.465" transform="translate(101.449 148.581)" fill="#cdd8fa"/>
        <rect id="Rectangle_404321" data-name="Rectangle 404321" width="22.371" height="3.465" transform="translate(132.208 148.581)" fill="#cdd8fa"/>
        <rect id="Rectangle_404322" data-name="Rectangle 404322" width="14.276" height="3.465" transform="translate(149.386 141.692)" fill="#cdd8fa"/>
        <path id="Path_876675" data-name="Path 876675" d="M1807.479,720.849c-.25-3.428-3.069-3.3-3.069-3.3-2.006-.1-10.255,3.779-15.341,7.008-.1.062-.195.125-.291.186-.859-4.129-4.371-10.6-4.815-14.07,0-.022-.006-.043-.01-.065-.936.929-2.027,1.768-2.892,2.763.069.114.112.187.115.2.926,3.229,1.37,15.726,4.33,17.736,2.076,1.409,18.419-6.1,18.419-6.1s3.776-1.3,3.552-4.364" transform="translate(-1599.292 -638.089)" fill="#f37a50"/>
        <rect id="Rectangle_404323" data-name="Rectangle 404323" width="90.6" height="15.016" transform="translate(150.197 78.001) rotate(-12.655)" fill="#b0173e"/>
        <path id="Path_876676" data-name="Path 876676" d="M2349,566.2l-7.817,1.75-3.28-14.653,7.817-1.75a5.119,5.119,0,0,1,6.113,3.877l1.044,4.663A5.12,5.12,0,0,1,2349,566.2" transform="translate(-2099.302 -495.143)" fill="#e62552"/>
        <rect id="Rectangle_404324" data-name="Rectangle 404324" width="7.164" height="15.032" transform="translate(232.003 59.612) rotate(-12.618)" fill="#f3c8b9"/>
        <path id="Path_876677" data-name="Path 876677" d="M2334.25,581.017l-.311.07a.444.444,0,0,1-.531-.337l-3.258-14.551a.444.444,0,0,1,.336-.531l.311-.07a.444.444,0,0,1,.531.337l3.257,14.551a.445.445,0,0,1-.336.531" transform="translate(-2092.331 -507.864)" fill="#f3ae9c"/>
        <path id="Path_876678" data-name="Path 876678" d="M2301.4,588.847l-.311.07a.445.445,0,0,1-.531-.337l-3.257-14.551a.444.444,0,0,1,.336-.531l.311-.07a.445.445,0,0,1,.531.337l3.257,14.551a.445.445,0,0,1-.337.531" transform="translate(-2062.837 -514.895)" fill="#f3ae9c"/>
        <path id="Path_876679" data-name="Path 876679" d="M2266.848,596.211l-.311.07a.445.445,0,0,1-.531-.337l-3.257-14.551a.445.445,0,0,1,.337-.531l.311-.069a.445.445,0,0,1,.531.337l3.258,14.551a.445.445,0,0,1-.337.531" transform="translate(-2031.808 -521.507)" fill="#f3ae9c"/>
        <path id="Path_876680" data-name="Path 876680" d="M1305.99,771c-.906-4.046-2.522-7.129-3.61-6.885l-.014,0h0l0,0a.642.642,0,0,0-.292.177l-10.975,6.653-7.821,4.742a.324.324,0,0,0,.132.6l9.044,1.008,12.848,1.433a.648.648,0,0,0,.34.038h.01v0l.015,0c1.088-.244,1.236-3.721.33-7.767" transform="translate(-1152.163 -686.121)" fill="#f3c8b9"/>
        <path id="Path_876681" data-name="Path 876681" d="M1292.185,834.2a10.8,10.8,0,0,1,.261,3.371l-9.044-1.008a.324.324,0,0,1-.132-.6l7.821-4.741a11.145,11.145,0,0,1,1.093,2.977" transform="translate(-1152.162 -746.388)" fill="#e62552"/>
        <path id="Path_876682" data-name="Path 876682" d="M1919.526,567.636c-2.552-3.317-2.3-9.951-.383-12.375s2.005-4.251.893-6.634c-2.679-5.741,7.654-10.461,12.247-9.951s13.523,2.552,13.778,9.313.638,7.144,3.7,8.8,4.21,6.889,3.062,9.313-5.231,5.741-3.572,8.42,3.7,6.124,1.4,9.058-4.72,8.548-6.506,9.313-7.272.128-7.272.128Z" transform="translate(-1721.948 -483.666)" fill="#201d40"/>
        <path id="Path_876683" data-name="Path 876683" d="M2042.269,730.932l4.948-.741-.394,4.594s-2.507,4.516-4.884,3.738a1.821,1.821,0,0,1-1.218-2.773Z" transform="translate(-1832.195 -655.669)" fill="#f37a50"/>
        <path id="Path_876684" data-name="Path 876684" d="M1998.811,571.306c-.186,5.483-2.849,8.908-7.155,8.762s-7.647-4.709-7.462-10.192,3.827-9.81,8.134-9.665,6.669,5.611,6.483,11.094" transform="translate(-1781.685 -503.034)" fill="#f37a50"/>
        <path id="Path_876685" data-name="Path 876685" d="M2051.225,642.591a.282.282,0,0,1-.163-.091,2.149,2.149,0,0,0-1.751-.576.282.282,0,0,1-.319-.238.489.489,0,0,1,.448-.474,2.475,2.475,0,0,1,2.076.8.448.448,0,0,1-.056.515.281.281,0,0,1-.235.066" transform="translate(-1839.874 -575.76)" fill="#201d40"/>
        <path id="Path_876686" data-name="Path 876686" d="M1986.073,649.272a.282.282,0,0,1-.162-.43,1.981,1.981,0,0,1,1.83-.865.282.282,0,0,1-.073.559,1.415,1.415,0,0,0-1.289.62.282.282,0,0,1-.307.116" transform="translate(-1783.19 -581.837)" fill="#201d40"/>
        <path id="Path_876687" data-name="Path 876687" d="M2016.03,679.063a7.154,7.154,0,0,1-.876,1.254.283.283,0,0,0-.016.388,3.884,3.884,0,0,0,1.931.837.075.075,0,0,0,.052-.14,3.663,3.663,0,0,1-1.066-.828.337.337,0,0,1-.06-.3c.065-.239.194-.725.267-1.121a.127.127,0,0,0-.232-.09" transform="translate(-1809.415 -609.706)" fill="#de623c"/>
        <path id="Path_876688" data-name="Path 876688" d="M2022.893,712.651a.225.225,0,0,0-.265-.317,15.951,15.951,0,0,1-4.172.73.225.225,0,0,0-.142.389,2.807,2.807,0,0,0,4.579-.8" transform="translate(-1812.265 -639.626)" fill="#fff"/>
        <path id="Path_876689" data-name="Path 876689" d="M2037.227,560.348c-5.035.343-12.4-4.532-13.489-6.98.32-3.272,2.633-5.363,5.776-4.519s9,7.2,7.714,11.5" transform="translate(-1817.199 -492.666)" fill="#201d40"/>
        <path id="Path_876690" data-name="Path 876690" d="M1987.321,566.125s-2.636,3.369-5.576,4.4c.655-3.654,1.1-6.419,2.817-7.493a12.2,12.2,0,0,1,3.7-1.452Z" transform="translate(-1779.492 -504.27)" fill="#201d40"/>
        <path id="Path_876691" data-name="Path 876691" d="M2104.912,645.5a1.95,1.95,0,1,0,2.972-.53,2.156,2.156,0,0,0-2.972.53" transform="translate(-1889.506 -578.791)" fill="#f37a50"/>
        <path id="Path_876692" data-name="Path 876692" d="M2115.956,657.476a.279.279,0,0,1-.114-.061,1.275,1.275,0,0,1-.409-1.512,1.359,1.359,0,0,1,1.357-.8.282.282,0,0,1-.066.56.8.8,0,0,0-.776.469.722.722,0,0,0,.268.859.282.282,0,0,1-.26.484" transform="translate(-1899.442 -588.238)" fill="#de623c"/>
        <path id="Path_876693" data-name="Path 876693" d="M1995.476,663.976a.77.77,0,1,1-.852-.678.77.77,0,0,1,.852.678" transform="translate(-1790.444 -595.599)"/>
        <path id="Path_876694" data-name="Path 876694" d="M2051.149,656.266a.821.821,0,1,1-.909-.723.821.821,0,0,1,.909.723" transform="translate(-1840.343 -588.635)"/>
        <path id="Path_876695" data-name="Path 876695" d="M1968.138,1172.385c.332-3.3-1.374-28.458-1.374-28.458-4.822-22.113-2.928-37.942-2.928-37.942l8.289.582,3.267,12.5-1.55,20.868s.582,1.606.889,2.891c1.664,6.966.007,15.291-1.018,20.84-.475,2.571-1.214,7.975-1.233,9.2l.649,2.084-10.087,4.929c3.1-3.181,5-6.547,5.1-7.494" transform="translate(-1762.698 -993.111)" fill="#f37a50"/>
        <path id="Path_876696" data-name="Path 876696" d="M1926.335,1761.33a3.058,3.058,0,0,0-2.164-2.205c-2.946,4.109-10.037,1.486-9.865,7.091,10.827.051,15.326.174,15.326.174a42.483,42.483,0,0,0-.415-5.541l-.565.1Z" transform="translate(-1718.933 -1579.592)" fill="#201d40"/>
        <path id="Path_876697" data-name="Path 876697" d="M2010.221,1107.595l11.677-1.609c4.467,10.106,5.923,27.7,7.135,33.97,4.868,8.161,6.413,32.91,6.413,32.91l.631,2.5-6.244,3.887c-2.006-1.548,1.113-4.835,1.313-5.765.3-1.4-9.452-28.853-9.452-28.853l-1.041-2.605c-11.912-19.675-13.867-34.549-13.867-34.549Z" transform="translate(-1801.978 -993.111)" fill="#f37a50"/>
        <path id="Path_876698" data-name="Path 876698" d="M2159.685,1771.07a3.058,3.058,0,0,0-2.164-2.205c-2.946,4.109-10.037,1.486-9.865,7.091,10.827.051,15.326.174,15.326.174a42.441,42.441,0,0,0-.415-5.542l-.565.1Z" transform="translate(-1928.468 -1588.339)" fill="#201d40"/>
        <path id="Path_876699" data-name="Path 876699" d="M1956.372,1077.711c-1.166-3.9-4.531-28.8-14.826-36.4l-17.715,1.867c-4.094,6.626-4.979,19.488-5.5,35.318,16.53-6.384,15.48,7.259,38.045-.787" transform="translate(-1722.547 -935.039)" fill="#201d40"/>
        <path id="Path_876700" data-name="Path 876700" d="M1950.885,795.389c0-3.88-3.362-9.692-1.75-13.608,1.174-3.15,3.48-10.258,5.993-10.738a27.822,27.822,0,0,0,3.551-.389s-.737,3.29.922,3.423c3.195.256,4.874-3.84,4.874-3.84,1.723-.165,7.73,1.628,7.726,2.277-.019,5.082-2.254,13.3-3.6,18.794a24.653,24.653,0,0,0,.228,6.551c.512,1.65,1.136,2.6,1.14,2.952,0,0-11.842,4.023-19.377-.125,0,0,.3-2.678.3-5.3" transform="translate(-1749.817 -691.619)" fill="#8ea5ed"/>
        <path id="Path_876701" data-name="Path 876701" d="M2113.75,1041.086c-1.369,2.971-3.809,2.616-4.509,2.421-.763-.213-1.81-.194-2.207.335-.408.545-.621,1.152-1.166.964-.76-.263-.02-2.225,1.534-2.3,0,0-1.22.041-1.623.66-.441.677-.768,1.181-1.232,1.11a.523.523,0,0,1-.391-.657c-.29.245-.951.455-1.008-.007a3.59,3.59,0,0,1,2.933-3.8c-2.511-.382-2.691,1.853-3.476,1.9-.472.025-.514-.557-.417-.934a3.387,3.387,0,0,1,2.522-2.409c1.214-.285,3.076.057,3.775,1.089,0,0,1.468.533,2.06-.365Z" transform="translate(-1887.608 -932.302)" fill="#f37a50"/>
        <path id="Path_876702" data-name="Path 876702" d="M2141.577,789.661s8.438,4.943,12.523,16.79c-3.669,4.068-6.761,1.032-6.761,1.032l-8.175-8.077a7.521,7.521,0,0,1-1.254-6.557,4.181,4.181,0,0,1,3.667-3.187" transform="translate(-1919.441 -709.07)" fill="#f37a50"/>
        <path id="Path_876703" data-name="Path 876703" d="M2184.451,958.511l5.095-7.966s1.394-3.314,6.625-1.437c.253,2.812-.15,5.442-8.578,11.418a5.933,5.933,0,0,1-3.141-2.015" transform="translate(-1961.511 -851.727)" fill="#f37a50"/>
        <path id="Path_876704" data-name="Path 876704" d="M2141.577,789.661s8.438,4.943,12.523,16.79c-3.669,4.068-7.08.718-7.08.718l-7.856-7.763a7.521,7.521,0,0,1-1.254-6.557,4.181,4.181,0,0,1,3.667-3.187" transform="translate(-1919.441 -709.07)" fill="#f37a50"/>
        <path id="Path_876705" data-name="Path 876705" d="M1776.563,670.644a.772.772,0,0,1,.222.091c0-.014,0-.027.007-.041.176-.809.789-1.362,1.369-1.236a.79.79,0,0,1,.263.112,1.109,1.109,0,0,1,1.121-.616.833.833,0,0,1,.426.248,1.108,1.108,0,0,1,1.178-.64,1.3,1.3,0,0,1-.544,2.5.926.926,0,0,1-.392-.191c-.231.684-.781,1.126-1.306,1.012a.794.794,0,0,1-.264-.112,1.108,1.108,0,0,1-1.121.616.822.822,0,0,1-.4-.221.947.947,0,0,1-1.02.59,1.1,1.1,0,0,1,.459-2.112" transform="translate(-1594.221 -600.311)" fill="#f37a50"/>
      </g>
    </g>
  </g>
</svg>
