<svg xmlns="http://www.w3.org/2000/svg" xmlns:xlink="http://www.w3.org/1999/xlink" width="338.999" height="643" viewBox="0 0 338.999 643">
  <defs>
    <clipPath id="clip-path">
      <rect id="Rectángulo_403593" data-name="Rectángulo 403593" width="217" height="54" rx="20" transform="translate(-14536 -11646)" fill="#fff" stroke="#707070" stroke-width="1" opacity="0.7"/>
    </clipPath>
    <clipPath id="clip-path-2">
      <rect id="Rectángulo_403577" data-name="Rectángulo 403577" width="227.028" height="155.386" fill="none"/>
    </clipPath>
    <clipPath id="clip-path-3">
      <rect id="Rectángulo_403595" data-name="Rectángulo 403595" width="111" height="88" transform="translate(-14386.238 -11135.452)" fill="#fff" stroke="#707070" stroke-width="1"/>
    </clipPath>
    <clipPath id="clip-path-4">
      <rect id="Rectángulo_403583" data-name="Rectángulo 403583" width="93.919" height="105.3" fill="none"/>
    </clipPath>
    <clipPath id="clip-path-5">
      <rect id="Rectángulo_403584" data-name="Rectángulo 403584" width="66.552" height="8.35" transform="translate(0 0)" fill="none"/>
    </clipPath>
  </defs>
  <g id="Grupo_1101094" data-name="Grupo 1101094" transform="translate(14536 11646)">
    <rect id="fondo3" width="642.613" height="338.999" rx="20" transform="translate(-14197.001 -11646) rotate(90)" fill="#d8eaf4"/>
    <g id="Enmascarar_grupo_1098813" data-name="Enmascarar grupo 1098813" clip-path="url(#clip-path)">
      <g id="Grupo_1100932" data-name="Grupo 1100932" transform="translate(-14551.832 -11761.1)">
        <g id="Grupo_1100912" data-name="Grupo 1100912" clip-path="url(#clip-path-2)">
          <path id="Trazado_875505" data-name="Trazado 875505" d="M187.618,246.824a7.918,7.918,0,1,0,7.918,7.918,7.918,7.918,0,0,0-7.918-7.918" transform="translate(-78.1 -107.274)" fill="#00d1a1"/>
          <path id="Trazado_875506" data-name="Trazado 875506" d="M254.947,246.824a7.918,7.918,0,1,0,7.918,7.918,7.918,7.918,0,0,0-7.918-7.918" transform="translate(-107.363 -107.274)" fill="#225a78"/>
          <path id="Trazado_875507" data-name="Trazado 875507" d="M322.275,246.824a7.918,7.918,0,1,0,7.918,7.918,7.918,7.918,0,0,0-7.918-7.918" transform="translate(-136.624 -107.274)" fill="#225a78"/>
          <path id="Trazado_875508" data-name="Trazado 875508" d="M1,1V62.265A85.638,85.638,0,0,0,86.637,147.9H226.9" transform="translate(-0.435 -0.435)" fill="none" stroke="#225a78" stroke-linecap="round" stroke-linejoin="round" stroke-width="2"/>
          <path id="Trazado_875509" data-name="Trazado 875509" d="M194.571,257.947a3.748,3.748,0,1,0-3.747,3.747,3.747,3.747,0,0,0,3.747-3.747" transform="translate(-81.306 -110.479)" fill="#225a78"/>
        </g>
      </g>
    </g>
    <g id="Enmascarar_grupo_1098815" data-name="Enmascarar grupo 1098815" transform="translate(63.238 44.452)" clip-path="url(#clip-path-3)">
      <g id="Grupo_1100934" data-name="Grupo 1100934" transform="translate(-14377.579 -11129.264)">
        <path id="Trazado_875559" data-name="Trazado 875559" d="M42.005,40.771,22.015,20.78,0,42.794l19.99,19.991L0,82.776l22.015,22.016L42.005,84.8,62,104.792,84.012,82.776,64.02,62.786,84.012,42.794,62,20.78Z" transform="translate(0 0.508)" fill="#00d1a1"/>
        <g id="Grupo_1100920" data-name="Grupo 1100920">
          <g id="Grupo_1100919" data-name="Grupo 1100919" clip-path="url(#clip-path-4)">
            <path id="Trazado_875560" data-name="Trazado 875560" d="M92.682,23.015,70.667,1,50.676,20.99,30.686,1,8.671,23.015,28.661,43,8.671,63,30.686,85.011l19.99-19.99,19.991,19.99L92.682,63,72.692,43Z" transform="translate(0.212 0.024)" fill="none" stroke="#225a78" stroke-linecap="round" stroke-linejoin="round" stroke-width="2"/>
          </g>
        </g>
      </g>
    </g>
    <g id="Grupo_1100935" data-name="Grupo 1100935" transform="translate(-14510.5 -11031)">
      <g id="Grupo_1100922" data-name="Grupo 1100922" clip-path="url(#clip-path-5)">
        <path id="Trazado_875562" data-name="Trazado 875562" d="M65.552,4.175A3.175,3.175,0,1,0,62.377,7.35a3.176,3.176,0,0,0,3.175-3.175" fill="#225a78" stroke="#225a78" stroke-width="1"/>
        <circle id="Elipse_11539" data-name="Elipse 11539" cx="3.175" cy="3.175" r="3.175" transform="translate(59.202 1)" fill="none" stroke="#225a78" stroke-linecap="round" stroke-linejoin="round" stroke-width="2"/>
        <path id="Trazado_875563" data-name="Trazado 875563" d="M46.151,4.175A3.175,3.175,0,1,0,42.976,7.35a3.175,3.175,0,0,0,3.175-3.175" fill="#043056"/>
        <circle id="Elipse_11540" data-name="Elipse 11540" cx="3.175" cy="3.175" r="3.175" transform="translate(39.801 1)" fill="#225a78" stroke="#225a78" stroke-linecap="round" stroke-linejoin="round" stroke-width="2"/>
        <path id="Trazado_875564" data-name="Trazado 875564" d="M26.751,4.175A3.175,3.175,0,1,0,23.576,7.35a3.176,3.176,0,0,0,3.175-3.175" fill="#225a78" stroke="#225a78" stroke-width="1"/>
        <circle id="Elipse_11541" data-name="Elipse 11541" cx="3.175" cy="3.175" r="3.175" transform="translate(20.401 1)" fill="none" stroke="#215977" stroke-linecap="round" stroke-linejoin="round" stroke-width="2"/>
        <circle id="Elipse_11542" data-name="Elipse 11542" cx="3.175" cy="3.175" r="3.175" transform="translate(1 1)" fill="none" stroke="#225a78" stroke-linecap="round" stroke-linejoin="round" stroke-width="2"/>
      </g>
    </g>
  </g>
</svg>
