<svg xmlns="http://www.w3.org/2000/svg" xmlns:xlink="http://www.w3.org/1999/xlink" width="180" height="180" viewBox="0 0 180 180">
  <defs>
    <clipPath id="clip-path">
      <rect id="Rectangle_404170" data-name="Rectangle 404170" width="91.99" height="92.153" fill="#12263f"/>
    </clipPath>
  </defs>
  <g id="img10" transform="translate(-358.668 -5326)">
    <rect id="Rectangle_403656" data-name="Rectangle 403656" width="180" height="180" transform="translate(358.668 5326)" fill="none"/>
    <g id="Group_1101106" data-name="Group 1101106" transform="translate(-148.045 -2662)">
      <g id="Group_1101010" data-name="Group 1101010" transform="translate(601.04 7999.387)">
        <path id="Path_875656" data-name="Path 875656" d="M213.638,10.626,141.848,82.417v2.494h2.494L216.133,13.12V10.626Z" transform="translate(-141.846 -10.626)" fill="#225a78"/>
        <path id="Path_875657" data-name="Path 875657" d="M202.64,10.626,141.848,71.419v4.989l65.781-65.782Z" transform="translate(-141.846 -10.626)" fill="#225a78"/>
        <path id="Path_875658" data-name="Path 875658" d="M191.64,10.626,141.847,60.42v4.988l54.782-54.783Z" transform="translate(-141.846 -10.626)" fill="#225a78"/>
        <path id="Path_875659" data-name="Path 875659" d="M180.642,10.626l-38.8,38.8V54.41l43.784-43.784Z" transform="translate(-141.846 -10.626)" fill="#225a78"/>
        <path id="Path_875660" data-name="Path 875660" d="M169.644,10.626l-27.8,27.8v4.988l32.786-32.786Z" transform="translate(-141.846 -10.626)" fill="#225a78"/>
        <path id="Path_875661" data-name="Path 875661" d="M158.645,10.626l-16.8,16.8v4.989l21.787-21.787Z" transform="translate(-141.846 -10.626)" fill="#225a78"/>
        <path id="Path_875662" data-name="Path 875662" d="M147.646,10.626l-5.8,5.8v4.989l10.788-10.788Z" transform="translate(-141.846 -10.626)" fill="#225a78"/>
        <path id="Path_875663" data-name="Path 875663" d="M268.109,147.676H273.1l5.8-5.8v-4.988Z" transform="translate(-204.61 -73.39)" fill="#225a78"/>
        <path id="Path_875664" data-name="Path 875664" d="M246.238,136.8h4.989l16.8-16.8v-4.988Z" transform="translate(-193.738 -62.518)" fill="#225a78"/>
        <path id="Path_875665" data-name="Path 875665" d="M224.368,125.933h4.989l27.8-27.8V93.147Z" transform="translate(-182.867 -51.646)" fill="#225a78"/>
        <path id="Path_875666" data-name="Path 875666" d="M202.5,115.061h4.989l38.795-38.8V71.277Z" transform="translate(-171.996 -40.775)" fill="#225a78"/>
        <path id="Path_875667" data-name="Path 875667" d="M180.628,104.19h4.988L235.41,54.4V49.407Z" transform="translate(-161.123 -29.904)" fill="#225a78"/>
        <path id="Path_875668" data-name="Path 875668" d="M158.757,93.318h4.989l60.792-60.793V27.536Z" transform="translate(-150.252 -19.032)" fill="#225a78"/>
      </g>
      <rect id="Rectangle_403642" data-name="Rectangle 403642" width="62.268" height="62.267" transform="translate(518.1 8094.346)" fill="none" stroke="#225a78" stroke-linecap="round" stroke-linejoin="round" stroke-width="2"/>
      <rect id="Rectangle_403641" data-name="Rectangle 403641" width="135.46" height="135.39" transform="translate(530.543 8008.745)" fill="#88c0de"/>
      <g id="Group_1101528" data-name="Group 1101528" transform="translate(553.046 8028.597)">
        <g id="Group_1101527" data-name="Group 1101527" clip-path="url(#clip-path)">
          <path id="Path_876157" data-name="Path 876157" d="M41.4,85.922a7.494,7.494,0,0,1-6.775,5.987c-8.935.769-18.986-.572-28.038-.033A7.582,7.582,0,0,1,0,84.9L.072,41.95a7.4,7.4,0,0,1,6.834-6.389,27.729,27.729,0,0,1-2.242-6.15A16.333,16.333,0,1,1,34.5,35.449a10.83,10.83,0,0,0,1.947.356c.69-.1,2.058-2.315,2.17-3.138.707-5.2-.731-10.738.645-16.141,5.036-19.774,32.7-22.58,41.569-4.187,3.651,7.575,1.2,12.939,2.207,20.328.368,2.7,3.474,2.932,2.943,7.353-.3,2.5-3.037,3.8-2.947,5.757.072,1.557,2.13,2.737,2.69,4.438a5.9,5.9,0,0,1-.676,5.2c-.374.568-2.307,2.144-1.784,2.9.056.08,1.532.385,1.886.528,3.128,1.263,6.835,4.98,6.835,8.572V85.922ZM80.032,26.594V19.35a25.677,25.677,0,0,0-1.944-5.874C71.588.44,53.035-.8,44.892,11.345c-1.22,1.819-3.262,6.1-3.262,8.236v7.014c.577-.744,2.434-.917,2.874-1.38.251-.264.88-2.429,1.259-3.11,1.015-1.825,4.206-4.519,6.34-4.493.827.01,2.039,1.715,2.757,2.308a28.865,28.865,0,0,0,19.424,6.676V20.615h2.759V25.1ZM22.314,35.562h8.393c6.677-7.406,2.968-19.758-6.82-21.924A13.325,13.325,0,0,0,10.931,35.562h8.393c-.088-.446.153-1.506-.037-1.8-.056-.088-.631-.188-.872-.388-1.177-.976-2.19-2.162-2.082-3.787.779.143,2.187-.2,2.848-.014.249.068.11,1.572,1.87,1.413a1.391,1.391,0,0,0,1.226-1.688c-.238-1.343-1.863-1.076-2.947-1.442-3.522-1.188-3.929-5.324-1.272-7.7.351-.314,1.093-.43,1.229-.841.164-.5-.15-3.024.169-3.072l2.858,0c.135.135-.155,2.5.037,3.068.112.33,1.438.973,1.9,1.55a6.62,6.62,0,0,1,1.056,2.624,8.766,8.766,0,0,1-2.841.082c-.622-.206-.242-1.385-1.648-1.352a1.382,1.382,0,0,0-1.48,1.713c.125,1.468,1.775,1.1,2.753,1.392a4.46,4.46,0,0,1,1.728,7.492c-1.092,1-1.866.585-1.505,2.749m51.969-5.979a32.042,32.042,0,0,1-21.034-7.135c-1.521-1.179-1.22-2.246-3.221-.677a7.039,7.039,0,0,0-2.658,5.39c-.694,8.773-.451,19.91,9.777,22.663,7.874,2.119,17.135-3.631,17.135-12.076Zm-29.664-1.15a4.348,4.348,0,0,0-2.034,6.978c.254.3,2.034,1.842,2.034.955Zm32.423.345v7.588c0,.887,1.781-.652,2.034-.955a4.6,4.6,0,0,0-.069-5.839c-.284-.311-1.787-1.5-1.965-.794M51.93,50.555c-.081-.139-2.164-1.461-2.6-1.887a19.092,19.092,0,0,1-3.446-5.062c-.314-.734-.922-3.376-1.15-3.679-.108-.143-1.932-.636-2.493-.956a6.768,6.768,0,0,1-2.338-2.259c-3.7,3.256,1.848,5.141,1.707,9.048-.114,3.142-3.2,4.35-2.982,6.7.161,1.755,2.415,2.79,2.761,4.62,1.282-.354,10.253-2.922,10.555-3.387a17.7,17.7,0,0,0-.017-3.142M69.715,53.7c.3.46,9.194,2.876,10.415,3.453.378-.1.4-.858.626-1.2.734-1.106,2.153-2.126,2.275-3.483.2-2.216-1.569-2.677-2.351-4.328a5.372,5.372,0,0,1-.161-4.612c.941-2.376,4.54-4.073,1.236-6.811a6.663,6.663,0,0,1-2.944,2.572c-.487.232-1.7.393-1.887.642-.133.174-.819,2.872-1.085,3.514a18.081,18.081,0,0,1-3.4,5.112,29.191,29.191,0,0,0-2.64,2.188,10.314,10.314,0,0,0-.087,2.955m-25.1,14.518V71.55c0,.269-2.689,2.37-2.969,4.389-.47,3.387,1.168,4.554,3.017,6.944l10.315-.051.184-.276L56.3,69.992c-.3-.461-1.093-2.321-1.652-2.22-.251.045-3.4,3.122-3.592,2.973L48.068,58.326c-.171-.182-4.125,1.18-4.722,1.372-2.856.918-7.331,2.011-9.169,4.4a9.6,9.6,0,0,0-1.514,3.315V82.932h2.991v2.991H8.172a3.728,3.728,0,0,1-2.185-2.185V56.258H35.651l0,2.989,2.771-1.057c-.494-1.879-2.281-2.979-2.888-4.922H5.987V41.541H35.651v8.968l1.285-2.05c3.81-3.267.194-4.487-.864-7.224-.655-1.695.219-2.558-1.675-2.694-8.922-.64-18.6.5-27.605.01-1.8.149-3.036,1.658-3.685,3.214-.134,14.668-.275,29.443.071,44.093a4.861,4.861,0,0,0,3.609,3.059c8.9-.606,18.83.788,27.609,0,2.571-.23,3.828-1.862,4.22-4.287.062-.383-.037-1.642.023-1.7.087-.087,1.707.066,2.07,0-.3-.881-1.034-1.477-1.423-2.369a9.023,9.023,0,0,1,.639-8.187c.966-1.537,2.22-1.862,1.7-4.161ZM32.662,44.53H8.976v5.749H32.662Zm34.032,7.819a19,19,0,0,1-11.725,0c0,.922-.218,1.47.448,2.195a49.822,49.822,0,0,0,5.415,4.166l5.65-4.39c.387-.577.175-1.315.212-1.97M52.67,65.226l.688-.114,5.054-4.37c-.818-.5-4.895-4.243-5.394-4.251a12.364,12.364,0,0,0-2.209.832ZM70.817,57.2c-.071-.1-1.983-.567-2.35-.68l-5.218,4.226,5.632,4.712c.131-1.038,2.194-7.9,1.936-8.258M89,82.932V67.41c0-1.275-1.642-3.664-2.65-4.479-1.616-1.306-9.569-4.01-11.826-4.5a2.606,2.606,0,0,0-.93-.1L70.6,70.744c-.191.149-3.342-2.928-3.592-2.973-.559-.1-1.347,1.759-1.652,2.22.6,3.986.5,8.383,1.168,12.315.034.2.1.583.322.634L77,82.882c1.85-2.39,3.487-3.558,3.017-6.944-.281-2.019-2.969-4.12-2.969-4.389V68.215h2.991c-.545,2.332.845,2.713,1.8,4.3a9.141,9.141,0,0,1-.878,10.421ZM8.976,65.226H14.61a2.307,2.307,0,0,0,.345-.345V59.592a2.307,2.307,0,0,0-.345-.345H8.976Zm14.717-5.979H18.06a2.307,2.307,0,0,0-.345.345v5.289a2.307,2.307,0,0,0,.345.345h5.634Zm8.968,0H26.683v5.979h3.679c.351-2.4,2.964-3.335,2.3-5.979m31.717,6.232-3.55-2.736-3.576,2.841c.219.387,1.277,2.488,1.441,2.583a33.318,33.318,0,0,0,3.985.066c.412-.048,1.828-2.572,1.7-2.754M14.955,68.215H8.976v5.979H14.61a2.308,2.308,0,0,0,.345-.345Zm8.738,0H17.715v5.634a2.308,2.308,0,0,0,.345.345h5.634Zm5.979,0H26.683v5.634c0,.563,2.471.288,2.989.345ZM62.556,71.2H59.106l-1.15,11.728h5.749Zm-47.6,11.728V77.3a2.308,2.308,0,0,0-.345-.345H8.976v5.979Zm8.738-5.979H18.06a2.308,2.308,0,0,0-.345.345v5.634h5.979Zm5.979,0c-.518.057-2.989-.218-2.989.345v5.634h2.989Z" transform="translate(0 0)" fill="#12263f"/>
          <path id="Path_876158" data-name="Path 876158" d="M242.021,173.531a4.063,4.063,0,0,0,.356,1.6,2.931,2.931,0,0,0,4.253.824,3.035,3.035,0,0,0,1.142-2.423c.1-.109,2.526.078,2.99,0-.066,7.885-11.619,7.927-11.73,0,.464.08,2.887-.108,2.99,0" transform="translate(-184.065 -133.6)" fill="#12263f"/>
          <path id="Path_876159" data-name="Path 876159" d="M228.805,130.209a1.473,1.473,0,1,1-1.473-1.473,1.473,1.473,0,0,1,1.473,1.473" transform="translate(-173.922 -99.133)" fill="#12263f"/>
          <path id="Path_876160" data-name="Path 876160" d="M293.346,130.214a1.473,1.473,0,1,1-1.473-1.473,1.473,1.473,0,0,1,1.473,1.473" transform="translate(-223.622 -99.137)" fill="#12263f"/>
        </g>
      </g>
    </g>
  </g>
</svg>
