<svg xmlns="http://www.w3.org/2000/svg" xmlns:xlink="http://www.w3.org/1999/xlink" width="180" height="180" viewBox="0 0 180 180">
  <defs>
    <clipPath id="clip-path">
      <rect id="Rectangle_404173" data-name="Rectangle 404173" width="90.823" height="90.583" fill="#12263f"/>
    </clipPath>
  </defs>
  <g id="img13" transform="translate(-358.668 -5326)">
    <rect id="Rectangle_403656" data-name="Rectangle 403656" width="180" height="180" transform="translate(358.668 5326)" fill="none"/>
    <g id="Group_1101106" data-name="Group 1101106" transform="translate(-148.045 -2662)">
      <g id="Group_1101010" data-name="Group 1101010" transform="translate(601.04 7999.387)">
        <path id="Path_875656" data-name="Path 875656" d="M213.638,10.626,141.848,82.417v2.494h2.494L216.133,13.12V10.626Z" transform="translate(-141.846 -10.626)" fill="#225a78"/>
        <path id="Path_875657" data-name="Path 875657" d="M202.64,10.626,141.848,71.419v4.989l65.781-65.782Z" transform="translate(-141.846 -10.626)" fill="#225a78"/>
        <path id="Path_875658" data-name="Path 875658" d="M191.64,10.626,141.847,60.42v4.988l54.782-54.783Z" transform="translate(-141.846 -10.626)" fill="#225a78"/>
        <path id="Path_875659" data-name="Path 875659" d="M180.642,10.626l-38.8,38.8V54.41l43.784-43.784Z" transform="translate(-141.846 -10.626)" fill="#225a78"/>
        <path id="Path_875660" data-name="Path 875660" d="M169.644,10.626l-27.8,27.8v4.988l32.786-32.786Z" transform="translate(-141.846 -10.626)" fill="#225a78"/>
        <path id="Path_875661" data-name="Path 875661" d="M158.645,10.626l-16.8,16.8v4.989l21.787-21.787Z" transform="translate(-141.846 -10.626)" fill="#225a78"/>
        <path id="Path_875662" data-name="Path 875662" d="M147.646,10.626l-5.8,5.8v4.989l10.788-10.788Z" transform="translate(-141.846 -10.626)" fill="#225a78"/>
        <path id="Path_875663" data-name="Path 875663" d="M268.109,147.676H273.1l5.8-5.8v-4.988Z" transform="translate(-204.61 -73.39)" fill="#225a78"/>
        <path id="Path_875664" data-name="Path 875664" d="M246.238,136.8h4.989l16.8-16.8v-4.988Z" transform="translate(-193.738 -62.518)" fill="#225a78"/>
        <path id="Path_875665" data-name="Path 875665" d="M224.368,125.933h4.989l27.8-27.8V93.147Z" transform="translate(-182.867 -51.646)" fill="#225a78"/>
        <path id="Path_875666" data-name="Path 875666" d="M202.5,115.061h4.989l38.795-38.8V71.277Z" transform="translate(-171.996 -40.775)" fill="#225a78"/>
        <path id="Path_875667" data-name="Path 875667" d="M180.628,104.19h4.988L235.41,54.4V49.407Z" transform="translate(-161.123 -29.904)" fill="#225a78"/>
        <path id="Path_875668" data-name="Path 875668" d="M158.757,93.318h4.989l60.792-60.793V27.536Z" transform="translate(-150.252 -19.032)" fill="#225a78"/>
      </g>
      <rect id="Rectangle_403642" data-name="Rectangle 403642" width="62.268" height="62.267" transform="translate(518.1 8094.346)" fill="none" stroke="#225a78" stroke-linecap="round" stroke-linejoin="round" stroke-width="2"/>
      <rect id="Rectangle_403641" data-name="Rectangle 403641" width="135.46" height="135.39" transform="translate(530.543 8008.745)" fill="#88c0de"/>
      <g id="Group_1101534" data-name="Group 1101534" transform="translate(552.861 8031.148)">
        <g id="Group_1101533" data-name="Group 1101533" clip-path="url(#clip-path)">
          <path id="Path_876170" data-name="Path 876170" d="M287.657,233.543a13.584,13.584,0,1,1-13.584-13.584,13.584,13.584,0,0,1,13.584,13.584m-3.032,0A10.554,10.554,0,1,0,274.07,244.1a10.554,10.554,0,0,0,10.554-10.554" transform="translate(-201.497 -170.146)" fill="#12263f"/>
          <path id="Path_876171" data-name="Path 876171" d="M301.469,239.773c.092.092-.1,1.491,0,1.584.054.052,1.036.06,1.486.214a4.792,4.792,0,0,1,3.019,3.959c-.119.491-2.367.472-2.778.329-.369-.129-.689-1.769-1.727-1.555.1.5-.147,2.724.021,2.921.058.067,1.329.258,1.719.432,3.62,1.618,3.612,7.009-.09,8.374a16.673,16.673,0,0,1-1.65.276c-.087.084.078,1.584,0,1.584H298.3c-.079,0,.086-1.5,0-1.584-.125-.121-2.058-.151-3.177-1.239-.62-.6-1.981-3.082-.784-3.291a9.41,9.41,0,0,1,2.228.035c.49.161.7,1.742,1.733,1.548-.1-.5.147-2.725-.022-2.921-.074-.086-1.724-.411-2.175-.655-3.187-1.728-2.957-6.86.547-8.151.506-.187,1.59-.218,1.65-.276.087-.084-.078-1.584,0-1.584a29.7,29.7,0,0,1,3.171,0M298.3,244.3c-1.648.024-1.884,2.665-.341,2.947.456.083.3-.057.343-.339.112-.795-.081-1.784,0-2.608m3.173,9.056a1.51,1.51,0,0,0,.341-2.947c-.456-.083-.3.057-.343.339-.113.795.08,1.784,0,2.608" transform="translate(-227.308 -185.434)" fill="#12263f"/>
          <path id="Path_876172" data-name="Path 876172" d="M87.748,30.106c-.232,2.84,1.254,6.8-3.171,6.115C84.248,39,86,42.967,81.633,42.335c.2,1.125-.36,4.845.229,5.548.242.289,1.361.807,1.791,1.153A18.21,18.21,0,0,1,89.339,70.31c-.34.852-1.414,2.413-1.543,2.986-.327,1.45.145,3.605-.051,5.144.058.394,2.382-.413,2.848,1.023a41.716,41.716,0,0,1,.1,6.918,4.5,4.5,0,0,1-4.63,4.2l-81.545,0a4.493,4.493,0,0,1-4.405-4.2,41.691,41.691,0,0,1,.1-6.918c.456-1.407,2.659-.7,2.845-.891s-.227-4.154.171-5.151c.634-1.59,2.508-.613,2.9-1.177.3-.434,0-3.561.1-4.434.232-2.137,2.888-1.191,2.948-1.6l0-23.877C4.8,42.967,6.552,39,6.223,36.22,1.8,36.9,3.282,32.95,3.052,30.106,2,30.043.6,30.513.209,29.212A52.3,52.3,0,0,1,.1,21.156a1.656,1.656,0,0,1,.7-1.34L44.114.4l1.38-.4L90.135,19.908a1.764,1.764,0,0,1,.564,1.248,51.053,51.053,0,0,1-.054,7.883c-.326,1.478-1.761,1.024-2.9,1.067m0-2.943V22.294l-1.433-.832L45.475,3.21C31.3,9.493,17.079,15.7,3.051,22.294v4.869Zm-3.171,2.944H6.221v3.171H84.578ZM9.166,39.166h12V36.222h-12Zm27.176-2.944h-12v4.643c0,1.854-3.142,1.384-3.174,1.6l0,23.876c1.047-.175,3.172.117,3.172,1.471v4.643h12v-5.1c0-.653,2.338-1.28,2.945-1.018l0-23.877c-.585,0-2.948-.357-2.948-1.149Zm15.173,0H39.285v2.944H51.515Zm14.947,0h-12v5.1c0,.792-2.363,1.151-2.948,1.149l0,23.877c.607-.262,2.945.365,2.945,1.018v5.1h2.264c-.474-1.543-1.294-2.954-1.7-4.53A18.265,18.265,0,0,1,69.6,45.476c-.023-.476.142-3.03.031-3.141-.137-.137-3.172.446-3.172-1.471Zm15.173,0h-12v2.944h12ZM12.11,66.341h6.115V42.336H12.11ZM48.344,42.336H42.456V66.341h5.888Zm30.346,0H72.576v2.945c2.081-.09,4.088.572,6.116.9Zm8.982,21.059a15.1,15.1,0,1,0-15.1,15.1,15.1,15.1,0,0,0,15.1-15.1M9.166,72.456h12V69.512h-12Zm42.349-2.944H39.285c.123.641-.331,2.682.371,2.912,1.642-.226,10.916.443,11.646-.067.447-.313.111-2.218.212-2.845m7.36,5.888H6.221v3.171H62.385c-.635-.454-3.021-3.063-3.51-3.171m25.7,3.172,0-1.586-1.808,1.473Zm3.169,2.943H3.051v6.124h84.7Z" transform="translate(0)" fill="#12263f"/>
          <path id="Path_876173" data-name="Path 876173" d="M182.243,47.532a7.546,7.546,0,1,1-7.546-7.546,7.546,7.546,0,0,1,7.546,7.546m-3.033,0a4.517,4.517,0,1,0-4.517,4.517,4.517,4.517,0,0,0,4.517-4.517" transform="translate(-129.297 -30.931)" fill="#12263f"/>
        </g>
      </g>
    </g>
  </g>
</svg>
