<svg xmlns="http://www.w3.org/2000/svg" xmlns:xlink="http://www.w3.org/1999/xlink" width="293.241" height="465.898" viewBox="0 0 293.241 465.898">
  <defs>
    <clipPath id="clip-path">
      <rect id="Rectangle_404206" data-name="Rectangle 404206" width="293.241" height="465.898" fill="none"/>
    </clipPath>
    <clipPath id="clip-path-2">
      <rect id="Rectangle_404205" data-name="Rectangle 404205" width="293.242" height="465.898" fill="none"/>
    </clipPath>
    <clipPath id="clip-path-3">
      <rect id="Rectangle_404176" data-name="Rectangle 404176" width="293.242" height="215.871" fill="none"/>
    </clipPath>
    <clipPath id="clip-path-4">
      <rect id="Rectangle_404177" data-name="Rectangle 404177" width="77.325" height="77.325" fill="none"/>
    </clipPath>
    <clipPath id="clip-path-5">
      <rect id="Rectangle_404178" data-name="Rectangle 404178" width="64.766" height="64.768" fill="none"/>
    </clipPath>
    <clipPath id="clip-path-6">
      <rect id="Rectangle_404179" data-name="Rectangle 404179" width="8.109" height="22.868" fill="none"/>
    </clipPath>
    <clipPath id="clip-path-7">
      <rect id="Rectangle_404183" data-name="Rectangle 404183" width="31.06" height="27.997" fill="none"/>
    </clipPath>
    <clipPath id="clip-path-8">
      <rect id="Rectangle_404184" data-name="Rectangle 404184" width="43.842" height="22.238" fill="none"/>
    </clipPath>
    <clipPath id="clip-path-10">
      <rect id="Rectangle_404186" data-name="Rectangle 404186" width="43.841" height="22.238" fill="none"/>
    </clipPath>
    <clipPath id="clip-path-11">
      <rect id="Rectangle_404188" data-name="Rectangle 404188" width="14.411" height="212.625" fill="none"/>
    </clipPath>
    <clipPath id="clip-path-17">
      <rect id="Rectangle_404196" data-name="Rectangle 404196" width="208.373" height="5.755" fill="none"/>
    </clipPath>
    <clipPath id="clip-path-18">
      <rect id="Rectangle_404198" data-name="Rectangle 404198" width="191.602" height="5.754" fill="none"/>
    </clipPath>
    <clipPath id="clip-path-19">
      <rect id="Rectangle_404200" data-name="Rectangle 404200" width="80.954" height="59.443" fill="none"/>
    </clipPath>
    <clipPath id="clip-path-20">
      <rect id="Rectangle_404201" data-name="Rectangle 404201" width="25.509" height="51.094" fill="none"/>
    </clipPath>
    <clipPath id="clip-path-21">
      <rect id="Rectangle_404202" data-name="Rectangle 404202" width="25.716" height="34.326" fill="none"/>
    </clipPath>
    <clipPath id="clip-path-22">
      <rect id="Rectangle_404203" data-name="Rectangle 404203" width="100.561" height="8.035" fill="none"/>
    </clipPath>
    <clipPath id="clip-path-23">
      <rect id="Rectangle_404204" data-name="Rectangle 404204" width="41.395" height="25.222" fill="none"/>
    </clipPath>
  </defs>
  <g id="img17" transform="translate(0)">
    <g id="Group_1101604" data-name="Group 1101604" transform="translate(0)" clip-path="url(#clip-path)">
      <g id="Group_1101603" data-name="Group 1101603">
        <g id="Group_1101602" data-name="Group 1101602" clip-path="url(#clip-path-2)">
          <g id="Group_1101541" data-name="Group 1101541" transform="translate(0 19.026)" opacity="0.18">
            <g id="Group_1101540" data-name="Group 1101540">
              <g id="Group_1101539" data-name="Group 1101539" clip-path="url(#clip-path-3)">
                <path id="Path_876187" data-name="Path 876187" d="M254.763,231.5c48.512-16.8,44.185-53.788,24.909-84.193-15.164-23.923,7.645-39.436-40.035-66.017C189.792,53.5,212.416,12.557,144.9,33.569c-70.065,21.8-94.2,1.293-102.146,49.3C32.829,142.846,7.21,129.375.8,164.444c-6.546,35.813,28.012,64.149,69.257,72.812,46.115,9.685,142.509,8.858,184.7-5.755" transform="translate(0 -27.787)" fill="#0e7aaa"/>
              </g>
            </g>
          </g>
          <path id="Path_876188" data-name="Path 876188" d="M82.974,157.309a8.077,8.077,0,1,1-8.077-8.077,8.077,8.077,0,0,1,8.077,8.077" transform="translate(-21.067 -47.05)" fill="#fff"/>
          <path id="Path_876189" data-name="Path 876189" d="M265.415,64.686a15.028,15.028,0,1,1-15.028-15.028,15.028,15.028,0,0,1,15.028,15.028" transform="translate(-74.204 -15.656)" fill="#fff"/>
          <path id="Path_876190" data-name="Path 876190" d="M328.988,280.079a7.237,7.237,0,1,1-7.238-7.237,7.237,7.237,0,0,1,7.238,7.237" transform="translate(-99.16 -86.022)" fill="#fff"/>
          <path id="Path_876191" data-name="Path 876191" d="M68.246,222.871a25.2,25.2,0,1,1-25.2-25.2,25.2,25.2,0,0,1,25.2,25.2" transform="translate(-5.628 -62.322)" fill="#fff"/>
          <path id="Path_876192" data-name="Path 876192" d="M211.984,44.512A44.512,44.512,0,1,1,167.472,0a44.512,44.512,0,0,1,44.512,44.512" transform="translate(-38.767)" fill="#1ac195"/>
          <g id="Group_1101544" data-name="Group 1101544" transform="translate(95.893 11.7)" opacity="0.34" style="mix-blend-mode: multiply;isolation: isolate">
            <g id="Group_1101543" data-name="Group 1101543">
              <g id="Group_1101542" data-name="Group 1101542" clip-path="url(#clip-path-4)">
                <path id="Path_876193" data-name="Path 876193" d="M202.932,17.088a44.508,44.508,0,0,1-62.885,62.885,44.509,44.509,0,1,0,62.885-62.885" transform="translate(-140.047 -17.088)" fill="#1ac195"/>
              </g>
            </g>
          </g>
          <path id="Path_876194" data-name="Path 876194" d="M208.571,47.424A38.187,38.187,0,1,1,170.383,9.237a38.187,38.187,0,0,1,38.187,38.187" transform="translate(-41.679 -2.912)" fill="#ffe3ab"/>
          <g id="Group_1101547" data-name="Group 1101547" transform="translate(102.126 17.933)" opacity="0.62" style="mix-blend-mode: multiply;isolation: isolate">
            <g id="Group_1101546" data-name="Group 1101546">
              <g id="Group_1101545" data-name="Group 1101545" clip-path="url(#clip-path-5)">
                <path id="Path_876195" data-name="Path 876195" d="M203.135,26.19A40.981,40.981,0,0,1,149.15,80.176,38.178,38.178,0,0,0,203.135,26.19" transform="translate(-149.15 -26.19)" fill="#ffe3ab"/>
              </g>
            </g>
          </g>
          <path id="Path_876196" data-name="Path 876196" d="M189.168,18.443a2.225,2.225,0,1,1-2.225-2.225,2.225,2.225,0,0,1,2.225,2.225" transform="translate(-58.238 -5.113)" fill="#fff"/>
          <path id="Path_876197" data-name="Path 876197" d="M141.4,61.759a2.225,2.225,0,1,1-2.225,2.225,2.225,2.225,0,0,1,2.225-2.225" transform="translate(-43.88 -19.471)" fill="#fff"/>
          <path id="Path_876198" data-name="Path 876198" d="M184.718,109.525a2.225,2.225,0,1,1,2.225,2.225,2.224,2.224,0,0,1-2.225-2.225" transform="translate(-58.238 -33.83)" fill="#fff"/>
          <path id="Path_876199" data-name="Path 876199" d="M232.484,66.209a2.225,2.225,0,1,1,2.225-2.225,2.225,2.225,0,0,1-2.225,2.225" transform="translate(-72.596 -19.471)" fill="#fff"/>
          <path id="Path_876200" data-name="Path 876200" d="M190.4,62.928a4.518,4.518,0,1,1-4.518-4.518,4.518,4.518,0,0,1,4.518,4.518" transform="translate(-57.182 -18.416)" fill="#fff"/>
          <line id="Line_3362" data-name="Line 3362" y1="16.139" x2="10.754" transform="translate(128.705 28.374)" fill="#c3c3ee"/>
          <line id="Line_3363" data-name="Line 3363" y1="16.139" x2="10.754" transform="translate(128.705 28.374)" fill="none" stroke="#fff" stroke-linecap="round" stroke-miterlimit="10" stroke-width="4"/>
          <line id="Line_3364" data-name="Line 3364" x1="16.661" y1="24.22" transform="translate(128.705 44.513)" fill="#c3c3ee"/>
          <line id="Line_3365" data-name="Line 3365" x1="16.661" y1="24.22" transform="translate(128.705 44.513)" fill="none" stroke="#fff" stroke-linecap="round" stroke-miterlimit="10" stroke-width="2"/>
          <path id="Path_876201" data-name="Path 876201" d="M277.739,131.563l-13.518-3.913,4.017-13.879a7.036,7.036,0,1,1,13.518,3.913Z" transform="translate(-83.304 -34.268)" fill="#fff"/>
          <g id="Group_1101550" data-name="Group 1101550" transform="translate(190.622 74.427)" opacity="0.62" style="mix-blend-mode: multiply;isolation: isolate">
            <g id="Group_1101549" data-name="Group 1101549">
              <g id="Group_1101548" data-name="Group 1101548" clip-path="url(#clip-path-6)">
                <path id="Path_876202" data-name="Path 876202" d="M281.422,108.972h0a7.024,7.024,0,0,0-1.986-.275,7.036,7.036,0,0,1,2.976,7.887l-4.017,13.879,3.813,1.1,4.018-13.879a7.037,7.037,0,0,0-4.8-8.716" transform="translate(-278.395 -108.697)" fill="#ffe3ab"/>
              </g>
            </g>
          </g>
          <path id="Path_876203" data-name="Path 876203" d="M338.205,127.459,274.773,109.1a7.037,7.037,0,0,1,4.8,8.716l-22.269,76.93,63.431,18.362,22.27-76.93a7.037,7.037,0,0,0-4.8-8.716" transform="translate(-81.124 -34.396)" fill="#fff"/>
          <path id="Path_876204" data-name="Path 876204" d="M296.047,138.437c3.111.9,2.165,4.169,5.276,5.069s4.057-2.367,7.168-1.467,2.164,4.169,5.274,5.069,4.057-2.368,7.168-1.467,2.166,4.169,5.278,5.07,4.057-2.367,7.168-1.467,2.167,4.169,5.281,5.07,4.059-2.366,7.172-1.465" transform="translate(-93.338 -43.647)" fill="none" stroke="#ffe3ab" stroke-linecap="round" stroke-linejoin="round" stroke-width="1"/>
          <path id="Path_876205" data-name="Path 876205" d="M288.729,163.717c3.111.9,2.165,4.169,5.276,5.069s4.057-2.366,7.168-1.467,2.164,4.169,5.274,5.069,4.057-2.368,7.168-1.467,2.166,4.169,5.278,5.07,4.057-2.367,7.168-1.467,2.167,4.169,5.281,5.07,4.059-2.366,7.172-1.465" transform="translate(-91.031 -51.617)" fill="none" stroke="#ffe3ab" stroke-linecap="round" stroke-linejoin="round" stroke-width="1"/>
          <path id="Path_876206" data-name="Path 876206" d="M281.41,189c3.111.9,2.165,4.169,5.276,5.069s4.057-2.367,7.168-1.467,2.164,4.169,5.274,5.069,4.057-2.368,7.168-1.467,2.166,4.169,5.278,5.07,4.057-2.367,7.168-1.467,2.167,4.169,5.281,5.07,4.059-2.366,7.172-1.465" transform="translate(-88.723 -59.587)" fill="none" stroke="#ffe3ab" stroke-linecap="round" stroke-linejoin="round" stroke-width="1"/>
          <path id="Path_876207" data-name="Path 876207" d="M274.092,214.279c3.111.9,2.165,4.169,5.276,5.069s4.057-2.367,7.168-1.467,2.164,4.169,5.274,5.069,4.057-2.368,7.168-1.467" transform="translate(-86.416 -67.558)" fill="none" stroke="#ffe3ab" stroke-linecap="round" stroke-linejoin="round" stroke-width="1"/>
          <path id="Path_876208" data-name="Path 876208" d="M66.787,79.682l105.052,4.273V73.2L66.787,77.477a1.1,1.1,0,0,0,0,2.205" transform="translate(-20.723 -23.08)" fill="#f29e25"/>
          <path id="Path_876209" data-name="Path 876209" d="M331.75,77.477,226.7,73.2V83.955L331.75,79.682a1.1,1.1,0,0,0,0-2.205" transform="translate(-71.474 -23.08)" fill="#f29e25"/>
          <rect id="Rectangle_404180" data-name="Rectangle 404180" width="7.73" height="95.883" transform="translate(149.306 39.175)" fill="#ffc440"/>
          <path id="Path_876210" data-name="Path 876210" d="M226.759,234.19H215.411V140.433a2.126,2.126,0,0,1,2.126-2.126h7.1a2.126,2.126,0,0,1,2.125,2.126Z" transform="translate(-67.915 -43.606)" fill="#f29e25"/>
          <rect id="Rectangle_404181" data-name="Rectangle 404181" width="11.348" height="4.708" transform="translate(147.496 141.858)" fill="#ffc440"/>
          <rect id="Rectangle_404182" data-name="Rectangle 404182" width="11.348" height="4.708" transform="translate(147.496 151.216)" fill="#ffc440"/>
          <path id="Path_876211" data-name="Path 876211" d="M201.683,253.622c-16.575,10.616-23.761,22.575-23.761,22.575h62.687s-7.185-11.959-23.76-22.575a13.522,13.522,0,0,0-15.166,0" transform="translate(-56.095 -79.229)" fill="#ffc440"/>
          <path id="Path_876212" data-name="Path 876212" d="M201.493,278.027h46.548s-6.471-10.758-21.28-20.924c9.342,14.9-18.715,19.91-25.268,20.924" transform="translate(-63.527 -81.06)" fill="#f29e25"/>
          <path id="Path_876213" data-name="Path 876213" d="M207.325,260.731a71.955,71.955,0,0,0-14.785,12.057" transform="translate(-60.704 -82.203)" fill="none" stroke="#fff" stroke-linecap="round" stroke-linejoin="round" stroke-width="1"/>
          <path id="Path_876214" data-name="Path 876214" d="M228.421,47.305a8.753,8.753,0,1,1-8.753-8.753,8.754,8.754,0,0,1,8.753,8.753" transform="translate(-66.497 -12.155)" fill="#ffc440"/>
          <path id="Path_876215" data-name="Path 876215" d="M219.667,38.552a8.833,8.833,0,0,0-1.263.1,6.386,6.386,0,1,1-7.389,7.389,8.748,8.748,0,1,0,8.652-7.49" transform="translate(-66.497 -12.155)" fill="#f29e25"/>
          <path id="Path_876216" data-name="Path 876216" d="M360.436,152.175l-22.508-75.4-22.507,75.4" transform="translate(-99.446 -24.206)" fill="none" stroke="#076599" stroke-linecap="round" stroke-linejoin="round" stroke-width="1"/>
          <path id="Path_876217" data-name="Path 876217" d="M350.878,78.656a4.793,4.793,0,1,1-4.793-4.793,4.793,4.793,0,0,1,4.793,4.793" transform="translate(-107.603 -23.288)" fill="#ffc440"/>
          <path id="Path_876218" data-name="Path 876218" d="M309.076,184.843a2.579,2.579,0,0,0-2.566,2.855c.538,5.022,2.611,15.432,10.608,21.022,7.865,5.5,28.126,5.5,35.991,0,8-5.59,10.072-16,10.609-21.022a2.579,2.579,0,0,0-2.567-2.855Z" transform="translate(-96.632 -58.277)" fill="#076599"/>
          <g id="Group_1101553" data-name="Group 1101553" transform="translate(236.041 126.566)" opacity="0.41" style="mix-blend-mode: multiply;isolation: isolate">
            <g id="Group_1101552" data-name="Group 1101552">
              <g id="Group_1101551" data-name="Group 1101551" clip-path="url(#clip-path-7)">
                <path id="Path_876219" data-name="Path 876219" d="M366.961,184.843s0,16.331-9.109,23.877c-2.933,2.43-7.91,3.784-13.123,4.065,7.8.356,16.047-1,20.435-4.065,8-5.59,10.072-16,10.609-21.022a2.579,2.579,0,0,0-2.566-2.855Z" transform="translate(-344.727 -184.843)" fill="#076599"/>
              </g>
            </g>
          </g>
          <g id="Group_1101556" data-name="Group 1101556" transform="translate(209.862 126.566)" opacity="0.3" style="mix-blend-mode: screen;isolation: isolate">
            <g id="Group_1101555" data-name="Group 1101555">
              <g id="Group_1101554" data-name="Group 1101554" clip-path="url(#clip-path-8)">
                <path id="Path_876220" data-name="Path 876220" d="M350.336,184.843H309.077a2.577,2.577,0,0,0-2.568,2.847,35.66,35.66,0,0,0,4.918,15.01,24.06,24.06,0,0,0,13.8,4.381c12.391,0,22.729-9.548,25.113-22.238" transform="translate(-306.494 -184.843)" fill="#076599"/>
              </g>
            </g>
          </g>
          <path id="Path_876221" data-name="Path 876221" d="M314.013,191.16s1.714,11.166,9.443,15.841" transform="translate(-99.002 -60.269)" fill="none" stroke="#fff" stroke-linecap="round" stroke-linejoin="round" stroke-width="1"/>
          <path id="Path_876222" data-name="Path 876222" d="M111.249,152.175,88.74,76.777l-22.507,75.4" transform="translate(-20.882 -24.206)" fill="none" stroke="#076599" stroke-linecap="round" stroke-linejoin="round" stroke-width="1"/>
          <path id="Path_876223" data-name="Path 876223" d="M101.69,78.656A4.793,4.793,0,1,1,96.9,73.863a4.793,4.793,0,0,1,4.793,4.793" transform="translate(-29.039 -23.288)" fill="#ffc440"/>
          <path id="Path_876224" data-name="Path 876224" d="M59.889,184.843a2.579,2.579,0,0,0-2.566,2.855c.538,5.022,2.611,15.432,10.608,21.022,7.865,5.5,28.126,5.5,35.991,0,8-5.59,10.072-16,10.609-21.022a2.579,2.579,0,0,0-2.567-2.855Z" transform="translate(-18.068 -58.277)" fill="#076599"/>
          <g id="Group_1101559" data-name="Group 1101559" transform="translate(65.418 126.566)" opacity="0.41" style="mix-blend-mode: multiply;isolation: isolate">
            <g id="Group_1101558" data-name="Group 1101558">
              <g id="Group_1101557" data-name="Group 1101557" clip-path="url(#clip-path-7)">
                <path id="Path_876225" data-name="Path 876225" d="M117.773,184.843s0,16.331-9.109,23.877c-2.933,2.43-7.91,3.784-13.123,4.065,7.8.356,16.047-1,20.435-4.065,8-5.59,10.072-16,10.609-21.022a2.579,2.579,0,0,0-2.566-2.855Z" transform="translate(-95.54 -184.843)" fill="#076599"/>
              </g>
            </g>
          </g>
          <g id="Group_1101562" data-name="Group 1101562" transform="translate(39.239 126.566)" opacity="0.3" style="mix-blend-mode: screen;isolation: isolate">
            <g id="Group_1101561" data-name="Group 1101561">
              <g id="Group_1101560" data-name="Group 1101560" clip-path="url(#clip-path-10)">
                <path id="Path_876226" data-name="Path 876226" d="M101.148,184.843H59.889a2.577,2.577,0,0,0-2.568,2.847,35.66,35.66,0,0,0,4.918,15.01,24.06,24.06,0,0,0,13.8,4.381c12.391,0,22.729-9.548,25.113-22.238" transform="translate(-57.307 -184.843)" fill="#076599"/>
              </g>
            </g>
          </g>
          <path id="Path_876227" data-name="Path 876227" d="M64.825,191.16S66.539,202.326,74.268,207" transform="translate(-20.438 -60.269)" fill="none" stroke="#fff" stroke-linecap="round" stroke-linejoin="round" stroke-width="1"/>
          <rect id="Rectangle_404187" data-name="Rectangle 404187" width="191.603" height="231.128" transform="translate(57.368 234.77)" fill="#076599"/>
          <g id="Group_1101565" data-name="Group 1101565" transform="translate(80.517 253.274)" opacity="0.41" style="mix-blend-mode: multiply;isolation: isolate">
            <g id="Group_1101564" data-name="Group 1101564">
              <g id="Group_1101563" data-name="Group 1101563" clip-path="url(#clip-path-11)">
                <path id="Path_876228" data-name="Path 876228" d="M124.8,369.894h0a7.206,7.206,0,0,0-7.206,7.206V582.518H132V377.1a7.206,7.206,0,0,0-7.206-7.206" transform="translate(-117.592 -369.894)" fill="#076599"/>
              </g>
            </g>
          </g>
          <g id="Group_1101568" data-name="Group 1101568" transform="translate(106.696 253.274)" opacity="0.41" style="mix-blend-mode: multiply;isolation: isolate">
            <g id="Group_1101567" data-name="Group 1101567">
              <g id="Group_1101566" data-name="Group 1101566" clip-path="url(#clip-path-11)">
                <path id="Path_876229" data-name="Path 876229" d="M163.03,369.894h0a7.206,7.206,0,0,0-7.206,7.206V582.518h14.412V377.1a7.206,7.206,0,0,0-7.206-7.206" transform="translate(-155.825 -369.894)" fill="#076599"/>
              </g>
            </g>
          </g>
          <g id="Group_1101571" data-name="Group 1101571" transform="translate(132.875 253.274)" opacity="0.41" style="mix-blend-mode: multiply;isolation: isolate">
            <g id="Group_1101570" data-name="Group 1101570">
              <g id="Group_1101569" data-name="Group 1101569" clip-path="url(#clip-path-11)">
                <path id="Path_876230" data-name="Path 876230" d="M201.263,369.894h0a7.206,7.206,0,0,0-7.206,7.206V582.518h14.412V377.1a7.206,7.206,0,0,0-7.206-7.206" transform="translate(-194.058 -369.894)" fill="#076599"/>
              </g>
            </g>
          </g>
          <g id="Group_1101574" data-name="Group 1101574" transform="translate(159.054 253.274)" opacity="0.41" style="mix-blend-mode: multiply;isolation: isolate">
            <g id="Group_1101573" data-name="Group 1101573">
              <g id="Group_1101572" data-name="Group 1101572" clip-path="url(#clip-path-11)">
                <path id="Path_876231" data-name="Path 876231" d="M239.5,369.894h0a7.206,7.206,0,0,0-7.206,7.206V582.518H246.7V377.1a7.206,7.206,0,0,0-7.206-7.206" transform="translate(-232.291 -369.894)" fill="#076599"/>
              </g>
            </g>
          </g>
          <g id="Group_1101577" data-name="Group 1101577" transform="translate(185.233 253.274)" opacity="0.41" style="mix-blend-mode: multiply;isolation: isolate">
            <g id="Group_1101576" data-name="Group 1101576">
              <g id="Group_1101575" data-name="Group 1101575" clip-path="url(#clip-path-11)">
                <path id="Path_876232" data-name="Path 876232" d="M277.729,369.894h0a7.206,7.206,0,0,0-7.206,7.206V582.518h14.412V377.1a7.206,7.206,0,0,0-7.206-7.206" transform="translate(-270.524 -369.894)" fill="#076599"/>
              </g>
            </g>
          </g>
          <g id="Group_1101580" data-name="Group 1101580" transform="translate(211.412 253.274)" opacity="0.41" style="mix-blend-mode: multiply;isolation: isolate">
            <g id="Group_1101579" data-name="Group 1101579">
              <g id="Group_1101578" data-name="Group 1101578" clip-path="url(#clip-path-11)">
                <path id="Path_876233" data-name="Path 876233" d="M315.962,369.894h0a7.206,7.206,0,0,0-7.206,7.206V582.518h14.412V377.1a7.206,7.206,0,0,0-7.206-7.206" transform="translate(-308.757 -369.894)" fill="#076599"/>
              </g>
            </g>
          </g>
          <rect id="Rectangle_404194" data-name="Rectangle 404194" width="208.372" height="15.827" transform="translate(48.984 218.943)" fill="#076599"/>
          <g id="Group_1101583" data-name="Group 1101583" transform="translate(48.984 218.943)" opacity="0.41" style="mix-blend-mode: multiply;isolation: isolate">
            <g id="Group_1101582" data-name="Group 1101582">
              <g id="Group_1101581" data-name="Group 1101581" clip-path="url(#clip-path-17)">
                <rect id="Rectangle_404195" data-name="Rectangle 404195" width="208.372" height="5.755" transform="translate(0)" fill="#076599"/>
              </g>
            </g>
          </g>
          <g id="Group_1101586" data-name="Group 1101586" transform="translate(57.369 234.77)" opacity="0.41" style="mix-blend-mode: multiply;isolation: isolate">
            <g id="Group_1101585" data-name="Group 1101585">
              <g id="Group_1101584" data-name="Group 1101584" clip-path="url(#clip-path-18)">
                <rect id="Rectangle_404197" data-name="Rectangle 404197" width="191.603" height="5.755" transform="translate(0)" fill="#076599"/>
              </g>
            </g>
          </g>
          <rect id="Rectangle_404199" data-name="Rectangle 404199" width="249.987" height="23.881" transform="translate(28.176 196.643)" fill="#076599"/>
          <path id="Path_876234" data-name="Path 876234" d="M259.122,252.223,186.1,200.211a4.019,4.019,0,0,0-4.664,6.547l73.018,52.012a4.019,4.019,0,0,0,4.663-6.547" transform="translate(-56.673 -62.887)" fill="#0e7aaa"/>
          <g id="Group_1101589" data-name="Group 1101589" transform="translate(123.182 136.578)" opacity="0.3" style="mix-blend-mode: screen;isolation: isolate">
            <g id="Group_1101588" data-name="Group 1101588">
              <g id="Group_1101587" data-name="Group 1101587" clip-path="url(#clip-path-19)">
                <path id="Path_876235" data-name="Path 876235" d="M257.374,254.741l-73.017-52.012a4.019,4.019,0,0,0-4.456-.138,4.018,4.018,0,0,1,6.249-2.38l73.017,52.012a4.018,4.018,0,0,1-.207,6.684,4.019,4.019,0,0,0-1.586-4.167" transform="translate(-179.901 -199.465)" fill="#076599"/>
              </g>
            </g>
          </g>
          <path id="Path_876236" data-name="Path 876236" d="M210.636,214.655l-13.1-9.333a2.5,2.5,0,0,0-3.489.586l-4.185,5.876a2.5,2.5,0,0,0,.586,3.489l13.1,9.334a2.5,2.5,0,0,0,3.489-.587l4.185-5.875a2.5,2.5,0,0,0-.586-3.489" transform="translate(-59.713 -64.587)" fill="#0e7aaa"/>
          <path id="Path_876237" data-name="Path 876237" d="M161.335,184.254a79.969,79.969,0,0,1,13.925-15.2l24.951,17.773a84.095,84.095,0,0,1-23.736,33.321l-24.95-17.773a79.976,79.976,0,0,1,9.811-18.126" transform="translate(-47.773 -53.301)" fill="#0e7aaa"/>
          <g id="Group_1101592" data-name="Group 1101592" transform="translate(126.928 115.759)" opacity="0.41" style="mix-blend-mode: multiply;isolation: isolate">
            <g id="Group_1101591" data-name="Group 1101591">
              <g id="Group_1101590" data-name="Group 1101590" clip-path="url(#clip-path-20)">
                <path id="Path_876238" data-name="Path 876238" d="M185.374,169.538c.186-.157.372-.325.557-.479l2.976,2.12Z" transform="translate(-185.373 -169.06)" fill="#076599"/>
                <path id="Path_876239" data-name="Path 876239" d="M187.332,222.707l-1.37-.976a99.8,99.8,0,0,0,11.2-17.016c3.528-6.738,7.98-17.677-3.258-27.558l17.167,12.228a84.1,84.1,0,0,1-23.736,33.321" transform="translate(-185.559 -171.613)" fill="#076599"/>
              </g>
            </g>
          </g>
          <g id="Group_1101595" data-name="Group 1101595" transform="translate(103.751 123.926)" opacity="0.3" style="mix-blend-mode: screen;isolation: isolate">
            <g id="Group_1101594" data-name="Group 1101594">
              <g id="Group_1101593" data-name="Group 1101593" clip-path="url(#clip-path-21)">
                <path id="Path_876240" data-name="Path 876240" d="M161.335,188.015c1.6-2.244,3.261-4.359,4.962-6.336,3.087-1.033,5.863-.944,7.89.5,5.392,3.841,3.454,15.811-4.328,26.736a47.157,47.157,0,0,1-5.457,6.4l-12.878-9.173a79.976,79.976,0,0,1,9.811-18.126" transform="translate(-151.524 -180.988)" fill="#076599"/>
              </g>
            </g>
          </g>
          <path id="Path_876241" data-name="Path 876241" d="M175.236,234.626l-25.281-18.008a2.4,2.4,0,0,0-3.346.562l-.22.309a2.4,2.4,0,0,0,.561,3.346l25.281,18.008a2.4,2.4,0,0,0,3.346-.562l.22-.309a2.4,2.4,0,0,0-.562-3.346" transform="translate(-46.014 -68.155)" fill="#ffc440"/>
          <path id="Path_876242" data-name="Path 876242" d="M213.249,181.262l-25.281-18.008a2.4,2.4,0,0,0-3.346.562l-.22.309a2.4,2.4,0,0,0,.561,3.346l25.281,18.008a2.4,2.4,0,0,0,3.346-.562l.22-.309a2.4,2.4,0,0,0-.562-3.346" transform="translate(-57.998 -51.331)" fill="#ffc440"/>
          <path id="Path_876243" data-name="Path 876243" d="M151.408,250.084H55.851a1.173,1.173,0,0,0-.242.025,1.2,1.2,0,0,0,.242,2.377h33.9a3.84,3.84,0,0,1,.389.02,3.8,3.8,0,0,1,3.415,3.784h0V269.1a3.8,3.8,0,0,1-3.8,3.8h-33.9a1.2,1.2,0,0,0,0,2.4h95.557a3.8,3.8,0,0,0,3.8-3.8V253.888a3.8,3.8,0,0,0-3.8-3.8" transform="translate(-17.23 -78.847)" fill="#1ac195"/>
          <g id="Group_1101598" data-name="Group 1101598" transform="translate(37.42 188.424)" opacity="0.34" style="mix-blend-mode: multiply;isolation: isolate">
            <g id="Group_1101597" data-name="Group 1101597">
              <g id="Group_1101596" data-name="Group 1101596" clip-path="url(#clip-path-22)">
                <path id="Path_876244" data-name="Path 876244" d="M151.408,278.989H93a3.8,3.8,0,0,1-3.247,1.83h-33.9a1.2,1.2,0,1,0,0,2.4h95.557a3.8,3.8,0,0,0,3.8-3.8v-4.232a3.8,3.8,0,0,1-3.8,3.8" transform="translate(-54.65 -275.185)" fill="#1ac195"/>
              </g>
            </g>
          </g>
          <path id="Path_876245" data-name="Path 876245" d="M188.226,274.044a3.1,3.1,0,0,0,3.1-3.1V256.6a3.1,3.1,0,0,0-3.1-3.1" transform="translate(-59.344 -79.924)" fill="none" stroke="#fff" stroke-linecap="round" stroke-linejoin="round" stroke-width="1"/>
          <path id="Path_876246" data-name="Path 876246" d="M178.66,274.044a3.1,3.1,0,0,0,3.1-3.1V256.6a3.1,3.1,0,0,0-3.1-3.1" transform="translate(-56.328 -79.924)" fill="none" stroke="#fff" stroke-linecap="round" stroke-linejoin="round" stroke-width="1"/>
          <path id="Path_876247" data-name="Path 876247" d="M130.6,274.044a3.1,3.1,0,0,0,3.1-3.1V256.6a3.1,3.1,0,0,0-3.1-3.1" transform="translate(-41.177 -79.924)" fill="none" stroke="#fff" stroke-linecap="round" stroke-linejoin="round" stroke-width="1"/>
          <path id="Path_876248" data-name="Path 876248" d="M121.038,274.044a3.1,3.1,0,0,0,3.1-3.1V256.6a3.1,3.1,0,0,0-3.1-3.1" transform="translate(-38.161 -79.924)" fill="none" stroke="#fff" stroke-linecap="round" stroke-linejoin="round" stroke-width="1"/>
          <path id="Path_876249" data-name="Path 876249" d="M91.908,253.592H57.678a31.281,31.281,0,0,1,2.054,10.917,19.977,19.977,0,0,1-2.054,9.5h34.23a3.8,3.8,0,0,0,3.8-3.8V257.4a3.8,3.8,0,0,0-3.8-3.8" transform="translate(-18.185 -79.953)" fill="#ffe3ab"/>
          <path id="Path_876250" data-name="Path 876250" d="M54.65,251.285h0a1.2,1.2,0,0,0,1.2,1.2H90.265a3.378,3.378,0,0,1,3.378,3.378v13.662a3.378,3.378,0,0,1-3.378,3.378H55.851a1.2,1.2,0,0,0,0,2.4h35.84a4.354,4.354,0,0,0,4.354-4.353V254.438a4.354,4.354,0,0,0-4.354-4.354H55.851a1.2,1.2,0,0,0-1.2,1.2" transform="translate(-17.23 -78.847)" fill="#1ac195"/>
          <g id="Group_1101601" data-name="Group 1101601" transform="translate(37.42 171.237)" opacity="0.37" style="mix-blend-mode: screen;isolation: isolate">
            <g id="Group_1101600" data-name="Group 1101600">
              <g id="Group_1101599" data-name="Group 1101599" clip-path="url(#clip-path-23)">
                <path id="Path_876251" data-name="Path 876251" d="M54.65,251.285h0a1.2,1.2,0,0,0,1.2,1.2H90.265a3.378,3.378,0,0,1,3.378,3.378v13.662a3.378,3.378,0,0,1-3.378,3.378H55.851a1.2,1.2,0,0,0,0,2.4h35.84a4.354,4.354,0,0,0,4.354-4.353V254.438a4.354,4.354,0,0,0-4.354-4.354H55.851a1.2,1.2,0,0,0-1.2,1.2" transform="translate(-54.65 -250.084)" fill="#1ac195"/>
              </g>
            </g>
          </g>
          <path id="Path_876252" data-name="Path 876252" d="M380.194,249.733l-5.827,10.092H386.02Z" transform="translate(-118.031 -78.736)" fill="none" stroke="#076599" stroke-linecap="round" stroke-linejoin="round" stroke-width="1"/>
          <path id="Path_876253" data-name="Path 876253" d="M139.01,126.638l-4.108,7.116h8.217Z" transform="translate(-42.532 -39.927)" fill="none" stroke="#076599" stroke-linecap="round" stroke-linejoin="round" stroke-width="1"/>
          <line id="Line_3366" data-name="Line 3366" y1="2.842" x2="2.842" transform="translate(172.92 108.838)" fill="none" stroke="#076599" stroke-linecap="round" stroke-linejoin="round" stroke-width="1"/>
          <line id="Line_3367" data-name="Line 3367" y1="2.842" x2="2.842" transform="translate(166.971 114.787)" fill="none" stroke="#076599" stroke-linecap="round" stroke-linejoin="round" stroke-width="1"/>
          <line id="Line_3368" data-name="Line 3368" x2="2.842" y2="2.842" transform="translate(172.92 114.787)" fill="none" stroke="#076599" stroke-linecap="round" stroke-linejoin="round" stroke-width="1"/>
          <line id="Line_3369" data-name="Line 3369" x2="2.842" y2="2.842" transform="translate(166.971 108.838)" fill="none" stroke="#076599" stroke-linecap="round" stroke-linejoin="round" stroke-width="1"/>
          <line id="Line_3370" data-name="Line 3370" y1="4.199" x2="4.199" transform="translate(27.588 151.758)" fill="none" stroke="#076599" stroke-linecap="round" stroke-linejoin="round" stroke-width="1"/>
          <line id="Line_3371" data-name="Line 3371" y1="4.199" x2="4.199" transform="translate(18.798 160.548)" fill="none" stroke="#076599" stroke-linecap="round" stroke-linejoin="round" stroke-width="1"/>
          <line id="Line_3372" data-name="Line 3372" x2="4.199" y2="4.199" transform="translate(27.588 160.548)" fill="none" stroke="#076599" stroke-linecap="round" stroke-linejoin="round" stroke-width="1"/>
          <line id="Line_3373" data-name="Line 3373" x2="4.199" y2="4.199" transform="translate(18.798 151.758)" fill="none" stroke="#076599" stroke-linecap="round" stroke-linejoin="round" stroke-width="1"/>
        </g>
      </g>
    </g>
  </g>
</svg>
