<svg xmlns="http://www.w3.org/2000/svg" xmlns:xlink="http://www.w3.org/1999/xlink" width="180" height="180" viewBox="0 0 180 180">
  <defs>
    <clipPath id="clip-path">
      <rect id="Rectangle_404171" data-name="Rectangle 404171" width="87.725" height="87.957" fill="#12263f"/>
    </clipPath>
  </defs>
  <g id="img11" transform="translate(-358.668 -5326)">
    <rect id="Rectangle_403656" data-name="Rectangle 403656" width="180" height="180" transform="translate(358.668 5326)" fill="none"/>
    <g id="Group_1101106" data-name="Group 1101106" transform="translate(-148.045 -2662)">
      <g id="Group_1101010" data-name="Group 1101010" transform="translate(601.04 7999.387)">
        <path id="Path_875656" data-name="Path 875656" d="M213.638,10.626,141.848,82.417v2.494h2.494L216.133,13.12V10.626Z" transform="translate(-141.846 -10.626)" fill="#225a78"/>
        <path id="Path_875657" data-name="Path 875657" d="M202.64,10.626,141.848,71.419v4.989l65.781-65.782Z" transform="translate(-141.846 -10.626)" fill="#225a78"/>
        <path id="Path_875658" data-name="Path 875658" d="M191.64,10.626,141.847,60.42v4.988l54.782-54.783Z" transform="translate(-141.846 -10.626)" fill="#225a78"/>
        <path id="Path_875659" data-name="Path 875659" d="M180.642,10.626l-38.8,38.8V54.41l43.784-43.784Z" transform="translate(-141.846 -10.626)" fill="#225a78"/>
        <path id="Path_875660" data-name="Path 875660" d="M169.644,10.626l-27.8,27.8v4.988l32.786-32.786Z" transform="translate(-141.846 -10.626)" fill="#225a78"/>
        <path id="Path_875661" data-name="Path 875661" d="M158.645,10.626l-16.8,16.8v4.989l21.787-21.787Z" transform="translate(-141.846 -10.626)" fill="#225a78"/>
        <path id="Path_875662" data-name="Path 875662" d="M147.646,10.626l-5.8,5.8v4.989l10.788-10.788Z" transform="translate(-141.846 -10.626)" fill="#225a78"/>
        <path id="Path_875663" data-name="Path 875663" d="M268.109,147.676H273.1l5.8-5.8v-4.988Z" transform="translate(-204.61 -73.39)" fill="#225a78"/>
        <path id="Path_875664" data-name="Path 875664" d="M246.238,136.8h4.989l16.8-16.8v-4.988Z" transform="translate(-193.738 -62.518)" fill="#225a78"/>
        <path id="Path_875665" data-name="Path 875665" d="M224.368,125.933h4.989l27.8-27.8V93.147Z" transform="translate(-182.867 -51.646)" fill="#225a78"/>
        <path id="Path_875666" data-name="Path 875666" d="M202.5,115.061h4.989l38.795-38.8V71.277Z" transform="translate(-171.996 -40.775)" fill="#225a78"/>
        <path id="Path_875667" data-name="Path 875667" d="M180.628,104.19h4.988L235.41,54.4V49.407Z" transform="translate(-161.123 -29.904)" fill="#225a78"/>
        <path id="Path_875668" data-name="Path 875668" d="M158.757,93.318h4.989l60.792-60.793V27.536Z" transform="translate(-150.252 -19.032)" fill="#225a78"/>
      </g>
      <rect id="Rectangle_403642" data-name="Rectangle 403642" width="62.268" height="62.267" transform="translate(518.1 8094.346)" fill="none" stroke="#225a78" stroke-linecap="round" stroke-linejoin="round" stroke-width="2"/>
      <rect id="Rectangle_403641" data-name="Rectangle 403641" width="135.46" height="135.39" transform="translate(530.543 8008.745)" fill="#88c0de"/>
      <g id="Group_1101530" data-name="Group 1101530" transform="translate(554.411 8032.461)">
        <g id="Group_1101529" data-name="Group 1101529" clip-path="url(#clip-path)">
          <path id="Path_876161" data-name="Path 876161" d="M122.441,148.517c.491-.092,2.239,1.545,2.173,1.921a12.717,12.717,0,0,0-3.256,7.054c-.073.685.17,2.539-.106,2.936-.222.32-2.765.579-2.94-.365-.264-1.427.4-4.7.869-6.15.3-.93,2.426-5.239,3.259-5.4" transform="translate(-90.585 -113.766)" fill="#12263f"/>
          <path id="Path_876162" data-name="Path 876162" d="M68.411,137.175c-.165.856.479,2.845-.584,3.042-9.033-.687-19.833,1.658-28.277-1.905a165.409,165.409,0,0,1-17.468-8.736c-6.609-3.971-3.087-13.525,4.463-11.95,1.324.276,5.064,2.621,5.917,2.488L36,116.348c.535-6.416-.294-13.16.111-19.542C36.66,88.212,42.13,80,50.4,77.277c.3-.317-3.747-6.019-3.933-6.958a1.659,1.659,0,0,1,1.247-1.926l21.164.117c.449.4.954.739.96,1.393.012,1.168-4.332,7.02-4,7.374A21.2,21.2,0,0,1,78.351,89.215c3.11,7.533,1.246,16.571,1.759,24.564H77.068V95.412c0-6.171-6.052-12.632-11.305-15.133-1.35-.643-4.058-.764-3.567-2.767.426-1.74,2.934-4.169,3.408-6.081H50.63c.344,1.63,3.741,5.428,3.473,6.845a1.373,1.373,0,0,1-.576.849c-1,.686-3.4,1.25-4.773,2.012C35.3,88.573,40,104.054,39.152,116.689c.016,1.113-4.106,4.084-3.965,4.688l5.614,2.7a5.848,5.848,0,0,1,2.1-6.205c3.235-2.473,10.429-.668,14.38-1.3a33.364,33.364,0,0,0,3.456-1.457,23.706,23.706,0,0,1,13.932-.228c2.4.72,4.16,2.2,6.842,1.7-.082.471.109,2.937,0,3.044-.075.074-1.114-.052-1.4,0v17.547H94.615v-11.7h3.042V138.93c0,.607-1.359,1.378-1.989,1.287H71.8c-1.064-.2-.419-2.186-.584-3.042h5.849l.009-18.093A19.1,19.1,0,0,0,62.384,117.7c-1.382.4-3.6,1.756-4.633,1.918-3.51.549-8.327-.521-11.862.07a2.964,2.964,0,0,0-1.58,4.912,5.375,5.375,0,0,0,1.524.881H59.52v3.042H43.494c-5.394-2.153-10.51-5.089-15.869-7.294-1.541-.634-2.631-1.336-4.3-.474-2.42,1.251-2.254,4.86,0,6.176,5.823,1.9,17,10.249,22.74,10.249Z" transform="translate(-14.246 -52.392)" fill="#12263f"/>
          <path id="Path_876163" data-name="Path 876163" d="M146.994,36.34c-.085.089-2.049.238-2.428.451-.383-.1-1.215-4.239-1.474-5.065A41.018,41.018,0,0,0,87.262,6.437a56.819,56.819,0,0,0-5.271,2.8c-.331.561,2.837,4.405,3.02,5.354A38.294,38.294,0,0,1,98.054,9.508c26.815-4.416,48.711,22.429,38.07,47.663-.717,1.7-1.485,4.069-3.621,2.343l-.235,9.592,9.357-2.576c-.687-.854-2.161-1.308-1.865-2.667A44.1,44.1,0,0,0,144.9,41.033l2.807-.237a44.113,44.113,0,0,1-4.7,23.031c1.15.965,4.352,2.3,3.038,4.209l-15.665,4.486a1.455,1.455,0,0,1-.932-1.423c.513-4.456-.679-10.466.018-14.731.421-2.574,2.7-.7,3.962-.13A32.1,32.1,0,0,0,101.5,12.022a33.521,33.521,0,0,0-13.379,4.169c-1.968,1.042-3.178,3.093-4.95.818a63.774,63.774,0,0,1-4.537-7.16A2.169,2.169,0,0,1,78.611,8.1c.34-.8,7.005-4.178,8.2-4.679,22.153-9.255,48.008.912,57.424,22.95.54,1.263,3.391,9.3,2.754,9.973" transform="translate(-60.086 0)" fill="#12263f"/>
          <path id="Path_876164" data-name="Path 876164" d="M299.638,327.792a2.913,2.913,0,1,1-2.913-2.913,2.913,2.913,0,0,1,2.913,2.913" transform="translate(-225.071 -248.868)" fill="#12263f"/>
          <path id="Path_876165" data-name="Path 876165" d="M149.438,132.309c.041.514,1.009,2.116.939,2.416a10.243,10.243,0,0,1-1.974,1.254,8.213,8.213,0,0,1-1.709-2.171c.3-.47,2.329-1.794,2.744-1.5" transform="translate(-112.373 -101.32)" fill="#12263f"/>
          <path id="Path_876166" data-name="Path 876166" d="M162.313,158.108c-7.807-.4-7.829-11.49,0-11.7l0-3.044h2.81l0,3.044a5.685,5.685,0,0,1,5.852,5.849l-2.666.014c-.427-1.67-1.318-2.973-3.184-3.056v5.849c7.807.4,7.829,11.49,0,11.7l0,3.044h-2.81l0-3.044a5.685,5.685,0,0,1-5.851-5.849l2.666-.014c.427,1.67,1.318,2.973,3.184,3.056Zm0-8.891c-3.962.3-4,5.716,0,5.849Zm2.808,14.74c3.962-.3,4-5.716,0-5.849Z" transform="translate(-119.846 -109.824)" fill="#12263f"/>
          <path id="Path_876167" data-name="Path 876167" d="M19.843,67.866l-9.124,2.576c-.095.122,1.465,1.188,1.648,1.505.943,1.634-2.32,5.221-2.354,7.149l-2.805-.938,2.121-5.012c-1.023-.809-4.57-2.593-3.069-4.24,4.732-1.88,9.862-2.83,14.7-4.5a1.5,1.5,0,0,1,1.823.876L22.834,80.8c-1.031,2.293-2.485.451-3.925-.067a32.839,32.839,0,0,0,3.23,30.536,5.43,5.43,0,0,1-2.38,1.5,13.848,13.848,0,0,1-1.676-2.555A35.12,35.12,0,0,1,16.292,79.64c.736-1.688,1.422-3.792,3.551-2.181Z" transform="translate(-4.516 -49.295)" fill="#12263f"/>
          <path id="Path_876168" data-name="Path 876168" d="M4.331,139.07a41.407,41.407,0,0,0,2.81,28.905c-.008.528-1.919,1.16-2.452,1.516a37.25,37.25,0,0,1-2.1-4.7,44.278,44.278,0,0,1-1.061-26.429Z" transform="translate(0 -105.993)" fill="#12263f"/>
        </g>
      </g>
    </g>
  </g>
</svg>
