<svg xmlns="http://www.w3.org/2000/svg" xmlns:xlink="http://www.w3.org/1999/xlink" width="132" height="132" viewBox="0 0 132 132">
  <defs>
    <clipPath id="clip-path">
      <rect id="Rectangle_404208" data-name="Rectangle 404208" width="84.315" height="79.323" fill="#fff"/>
    </clipPath>
  </defs>
  <g id="img28" transform="translate(-600.345 -5360.345)">
    <rect id="Rectangle_403644" data-name="Rectangle 403644" width="132" height="132" rx="66" transform="translate(600.345 5360.345)" fill="#821106"/>
    <g id="Group_1101610" data-name="Group 1101610" transform="translate(624.633 5386.683)">
      <g id="Group_1101609" data-name="Group 1101609" clip-path="url(#clip-path)">
        <path id="Path_876258" data-name="Path 876258" d="M165.765,48.939c-5.279-.938-6.031-8.143-1.489-10.667.307-.171,1.418-.478,1.461-.543.2-.309-.281-1.656.988-1.873,1.885-.322,1.337,1.475,1.6,1.873a13.855,13.855,0,0,1,2.8,1.527c.963.975,2.815,4.853.819,5.426-2.446.7-1.285-3.961-3.644-3.972v5.8c.631.477,1.438.61,2.1,1.068a5.894,5.894,0,0,1,0,9.468c-.411.286-1.918.826-2,.953-.275.428.147,1.743-1.058,1.914-1.8.256-1.352-1.427-1.666-1.914-.1-.162-2.333-1-3.18-2.1-.793-1.022-2.09-4.3-.371-4.815,2.521-.751,1.236,3.706,3.647,3.966Zm0-2.743V40.5a3.106,3.106,0,0,0,0,5.7m2.532,8.862c2.539-.813,2.448-4.594,0-5.486Z" transform="translate(-127.244 -28.261)" fill="#fff"/>
        <path id="Path_876259" data-name="Path 876259" d="M66.794,27.009c3.19-.669,7.213-3.748,9.631-.031L84.255,50.8A4.036,4.036,0,0,1,82.2,54.968a66.287,66.287,0,0,1-9.193,3.044,4.47,4.47,0,0,1-3.468-.408c.081,3.849-3.042,6.206-6.754,5.695a5.4,5.4,0,0,1-6.33,5.486,5.5,5.5,0,0,1-6.1,5.718,4.833,4.833,0,0,1-5.771,4.572c-.943-.162-3.989-2.074-4.239-2.027-.389.072-.694.847-1,1.108a4.3,4.3,0,0,1-5.536.3A15.9,15.9,0,0,1,32.7,77.229a18.713,18.713,0,0,1-2.357,1.212,4.8,4.8,0,0,1-5.544-2.9c-.506,0-.724.5-1.261.74a4.848,4.848,0,0,1-6.963-4.962,4.825,4.825,0,0,1-4.595-6.6c.321-.968,2.881-4.125,2.855-4.482-.472-.2-1.362-1.9-1.468-1.959-.144-.081-1.6-.123-2.161-.267a67.543,67.543,0,0,1-9.193-3.045C-.574,53.679-.158,51.268.482,49,2.556,41.629,5.5,34.131,7.876,26.852c2.461-3.535,6.4-.486,9.546.157V3.062c0-1.256,1.942-3.1,3.27-3.06L50.4.047l.893.584c5.122,5.28,10.562,10.29,15.5,15.724ZM48.86,2.745H20.481a2.107,2.107,0,0,0-.316.316V27.748c3.364,1.193,4.13,3.635,2.742,6.855,3.419,1.409,5.276-1.042,8.275-1.956A10.017,10.017,0,0,1,37.2,32.44c1.244.306,4.64,1.928,5.431,1.926,1.066,0,3.576-1.4,4.9-1.609,4.324-.675,5.949,1.114,9.36,2.566.813.346,3.878.327,4.321-.283.35-.481-.44-1.816-.526-2.457-.368-2.743,1.08-3.839,3.357-4.835V17.937H49.6a4.937,4.937,0,0,1-.738-.738ZM62.152,15.4,51.392,4.644V15.088a2.117,2.117,0,0,0,.316.316ZM13.36,55.227l7.628-23.474c-.043-.593-.347-.806-.819-1.055a64.777,64.777,0,0,0-8.433-2.749c-1.5-.3-1.629.206-2.128,1.479-2.649,6.756-4.207,14.39-6.858,21.2-.276,1.011-.159,1.7.839,2.135a68.075,68.075,0,0,0,8.3,2.684,1.93,1.93,0,0,0,1.475-.221m57.5,0a1.937,1.937,0,0,0,1.475.221,73.846,73.846,0,0,0,8.293-2.687c1.079-.535,1.057-1.008.843-2.131-2.664-6.8-4.211-14.449-6.858-21.2-.5-1.273-.628-1.775-2.128-1.479A64.784,64.784,0,0,0,64.047,30.7c-.472.249-.776.462-.819,1.055ZM39.364,35.873c-3.081-1.163-5.138-1.578-8.283-.375-1.233.472-2.834,1.75-3.895,2.011-1.571.387-3.562-.072-5.109-.365L15.566,56.832a4.379,4.379,0,0,0,1.8,2.006c.427.108.795-.194,1.2-.161a5.042,5.042,0,0,1,4.77,5.466A4.637,4.637,0,0,1,27.764,67.1c2.115-1.334,4.62-1.815,6.641,0a9.534,9.534,0,0,1,1.181,1.882c.228.168,1.187-.342,1.579-.388,3.808-.448,5.951,2.683,4.609,6.106,1.366.89,4.832,3.166,5.7.618,1.165-3.413-5.859-3.85-6-6.018a1.3,1.3,0,0,1,1.179-1.355c1.536-.145,5.932,3.488,7.8,3.783a2.67,2.67,0,0,0,3.164-3.585c-.473-1.53-4.625-2.935-5.967-3.843-.658-.818-.513-2.178.678-2.281,1.226-.107,4.683,2.215,6.011,2.87,1.014.5,2.5,1.487,3.6,1.282A2.733,2.733,0,0,0,59.876,62.3C59,60.522,53.418,58.766,51.71,57.39c-1.427-1.149-.619-2.482.947-2.442,3.4,1.368,6.753,4,10.077,5.342,2.766,1.113,5.245-1.168,3.64-3.638-1.255-1.931-9.3-6.278-11.675-7.314-1.632-.711-5.28-2.281-6.9-1.977-4.2.785-9.72,4.04-13.865,4.493-2.38.26-4.1-1.444-5.223-3.32-.52-.868-1.415-2.366-1-3.326a39.352,39.352,0,0,1,3.961-4.057c.941-.818,2.025-1.494,2.987-2.288Zm23,1.685a22.992,22.992,0,0,0-2.658.611c-4.555.519-6.573-3.112-10.727-2.94-4.267.177-12.259,5.108-15.522,7.917-.613.528-2.966,2.445-2.9,3.133.087.964,2.015,3.25,3.218,2.892l13.815-4.555c1.83-.332,4.839.941,6.6,1.644a65.353,65.353,0,0,1,13.238,7.543ZM18,61.445c-1.1.213-2.83,2.846-3.326,3.854-1.183,2.4,1.227,4.393,3.183,2.973a31.638,31.638,0,0,0,2.677-3.862c.463-1.761-.69-3.322-2.534-2.965m5.438,5.331a3.084,3.084,0,0,0-1.1.276c-.817.4-3.176,3.915-3.212,4.81a2.315,2.315,0,0,0,3.683,1.78c.629-.494,2.821-3.953,2.783-4.718a2.489,2.489,0,0,0-2.151-2.148m4.183,8.478c2.149,2.2,4.535-1.5,5.376-3.236,1.307-2.7-1.66-4.541-3.428-2.8a20.7,20.7,0,0,0-2.515,4.043,2.437,2.437,0,0,0,.567,1.989m10-4.111c-.62.127-2.485,2.713-2.636,3.283-.511,1.93,1.328,2.875,2.592,1.75a25.03,25.03,0,0,0,1.962-3.114,1.6,1.6,0,0,0-1.919-1.919" transform="translate(0 -0.001)" fill="#fff"/>
        <path id="Path_876260" data-name="Path 876260" d="M74.856,152.208a1.31,1.31,0,1,1-1.31-1.31,1.31,1.31,0,0,1,1.31,1.31" transform="translate(-56.994 -119.06)" fill="#fff"/>
        <path id="Path_876261" data-name="Path 876261" d="M316.882,151.234a1.31,1.31,0,1,1-1.31-1.31,1.31,1.31,0,0,1,1.31,1.31" transform="translate(-247.954 -118.291)" fill="#fff"/>
      </g>
    </g>
  </g>
</svg>
