<svg xmlns="http://www.w3.org/2000/svg" xmlns:xlink="http://www.w3.org/1999/xlink" width="180" height="180" viewBox="0 0 180 180">
  <defs>
    <clipPath id="clip-path">
      <rect id="Rectangle_404237" data-name="Rectangle 404237" width="87.599" height="85.821" fill="#12263f"/>
    </clipPath>
  </defs>
  <g id="img36" transform="translate(-358.668 -5326)">
    <rect id="Rectangle_403656" data-name="Rectangle 403656" width="180" height="180" transform="translate(358.668 5326)" fill="none"/>
    <g id="Group_1101106" data-name="Group 1101106" transform="translate(-148.045 -2662)">
      <g id="Group_1101010" data-name="Group 1101010" transform="translate(601.04 7999.387)">
        <path id="Path_875656" data-name="Path 875656" d="M213.638,10.626,141.848,82.417v2.494h2.494L216.133,13.12V10.626Z" transform="translate(-141.846 -10.626)" fill="#225a78"/>
        <path id="Path_875657" data-name="Path 875657" d="M202.64,10.626,141.848,71.419v4.989l65.781-65.782Z" transform="translate(-141.846 -10.626)" fill="#225a78"/>
        <path id="Path_875658" data-name="Path 875658" d="M191.64,10.626,141.847,60.42v4.988l54.782-54.783Z" transform="translate(-141.846 -10.626)" fill="#225a78"/>
        <path id="Path_875659" data-name="Path 875659" d="M180.642,10.626l-38.8,38.8V54.41l43.784-43.784Z" transform="translate(-141.846 -10.626)" fill="#225a78"/>
        <path id="Path_875660" data-name="Path 875660" d="M169.644,10.626l-27.8,27.8v4.988l32.786-32.786Z" transform="translate(-141.846 -10.626)" fill="#225a78"/>
        <path id="Path_875661" data-name="Path 875661" d="M158.645,10.626l-16.8,16.8v4.989l21.787-21.787Z" transform="translate(-141.846 -10.626)" fill="#225a78"/>
        <path id="Path_875662" data-name="Path 875662" d="M147.646,10.626l-5.8,5.8v4.989l10.788-10.788Z" transform="translate(-141.846 -10.626)" fill="#225a78"/>
        <path id="Path_875663" data-name="Path 875663" d="M268.109,147.676H273.1l5.8-5.8v-4.988Z" transform="translate(-204.61 -73.39)" fill="#225a78"/>
        <path id="Path_875664" data-name="Path 875664" d="M246.238,136.8h4.989l16.8-16.8v-4.988Z" transform="translate(-193.738 -62.518)" fill="#225a78"/>
        <path id="Path_875665" data-name="Path 875665" d="M224.368,125.933h4.989l27.8-27.8V93.147Z" transform="translate(-182.867 -51.646)" fill="#225a78"/>
        <path id="Path_875666" data-name="Path 875666" d="M202.5,115.061h4.989l38.795-38.8V71.277Z" transform="translate(-171.996 -40.775)" fill="#225a78"/>
        <path id="Path_875667" data-name="Path 875667" d="M180.628,104.19h4.988L235.41,54.4V49.407Z" transform="translate(-161.123 -29.904)" fill="#225a78"/>
        <path id="Path_875668" data-name="Path 875668" d="M158.757,93.318h4.989l60.792-60.793V27.536Z" transform="translate(-150.252 -19.032)" fill="#225a78"/>
      </g>
      <rect id="Rectangle_403642" data-name="Rectangle 403642" width="62.268" height="62.267" transform="translate(518.1 8094.346)" fill="none" stroke="#225a78" stroke-linecap="round" stroke-linejoin="round" stroke-width="2"/>
      <rect id="Rectangle_403641" data-name="Rectangle 403641" width="135.46" height="135.39" transform="translate(530.543 8008.745)" fill="#88c0de"/>
      <g id="Group_1101646" data-name="Group 1101646" transform="translate(554.474 8030.763)">
        <g id="Group_1101645" data-name="Group 1101645" clip-path="url(#clip-path)">
          <path id="Path_876361" data-name="Path 876361" d="M55.32,24.7c.892-.084,1.795.593,2.671.39,1.47-.34,4.488-2.119,6.236-2.743,2.171-.774,7.378-2.657,9.167-.852,2.13,2.148,1.206,9.647.563,12.474a28.955,28.955,0,0,1,4.728,7.052c.588,1.228.607,2.855,2,3.468,3.232,1.425,6.434.9,6.788,5.675.184,2.48.4,7.2-1.21,9.085-1.938,2.267-6.3,2-8.316,3.491-.682.506-1.975,2.924-2.734,3.825a29.141,29.141,0,0,1-8.9,6.947c-.476.508-1.476,8.221-1.956,9.743A3.06,3.06,0,0,1,62.438,85.5c-1.144.384-5.638.338-7.016.217-4.1-.362-3.163-4.575-4.155-7.449a58.671,58.671,0,0,1-13.438.223c-.59,2.749-.159,6.883-3.818,7.225a43.616,43.616,0,0,1-6.139,0,3.172,3.172,0,0,1-3.013-2.453c-.553-1.81-1.1-8.1-1.8-9.135-.106-.158-2.712-1.64-3.231-2.017C12.389,66.687,9.019,58.1,9.621,48.97a.72.72,0,0,0-.757.225c-.448.391-1.168,1.816-1.757,2.4a12.343,12.343,0,0,1-2.431,1.723C3.411,53.921-.136,54.869,0,52.594c.089-1.442,2.263-1.262,3.36-1.683a7.618,7.618,0,0,0,1.647-.977c2.329-1.841.291-1.465-1.293-2.168-2.694-1.2-3.7-3.79-1.529-6.121,2.332-2.505,5.736-.547,6.84,2.122a21.164,21.164,0,0,1,.587,2.257c.094.319-.125.384.442.319a23.542,23.542,0,0,1,5.68-12.8c1.085-1.215,5.694-5.3,7.138-5.349a1.324,1.324,0,0,1,.971,2.091c-5.17,3.159-9.059,7.4-10.71,13.34-2.454,8.835-.5,18.971,6.539,25.13,1.741,1.524,3.857,2.529,5.661,3.959l2.1,10.146c.34.45,5.92.176,6.9.117.578-.405.631-5.529,1.749-6.56,1.075-.991,4.491-.152,5.991-.113.943.025,1.917.024,2.86,0,2.066-.054,4.846-.721,6.761-.675,3,.072,2.188,5.413,3.208,7.416a49.728,49.728,0,0,0,6.61,0c.337-.114.4-.541.477-.835.771-2.882.87-6.41,1.688-9.245.492-1.706,2.87-2.374,4.3-3.357a28.128,28.128,0,0,0,4.825-4.14c1.043-1.175,2.587-4.1,3.517-4.792,1.569-1.167,7.23-2.012,8.083-3.127a2.925,2.925,0,0,0,.444-1.466,43.562,43.562,0,0,0-.007-6.357c-.287-2.469-5-2.15-6.682-3.813-1.025-1.011-1.831-4.1-2.688-5.621-.606-1.078-1.489-2.005-2.009-3.132-.459-.317-1.451,2.027-1.783,2.476-2.645,3.575-8.755,2.9-11.969.456C55.641,37,55.394,31.986,56.186,27.331c-.462.108-2.172-.528-2.361-.422-.147.082-1.578,2.274-2,2.708a30.371,30.371,0,0,1-3.059,2.407c.568.4,2.508.582,2.857,1.129a1.358,1.358,0,0,1-.611,2c-.755.222-4.51-1.006-5.7-1.206a35.267,35.267,0,0,0-12.948.262c-1.355.259-5.114,2.007-5.429-.047-.267-1.737,3.029-1.668,3.022-2.137A17.42,17.42,0,1,1,53.225,6.788c.724.967,2.387,3.059,1.545,4.132-1.494,1.9-3.181-2.125-4.047-3.161C41.042-3.819,22.146,5.184,24.807,20.119c.754,4.234,4.77,9.887,9.08,11.038,1.175.314,4.623-.379,6.247-.344,3.923.083,4.192,1.187,7.822-1.344a15.015,15.015,0,0,0,5.993-9.094c.227-.973.053-3.037.941-3.436,3.481-1.565.933,6.517.431,7.759m15.261-1.475a29.6,29.6,0,0,0-6.573,1.964c-1.028.4-4.632,1.786-5.064,2.588-1.223,2.272-.542,7.136,1.1,9.149,1.954,2.4,7.65,4.016,9.674,1.186,1.947-2.722,3.113-11.154,2.074-14.247-.277-.826-.395-.721-1.209-.64M7,46.127c.014-1.241-1.409-3.931-2.857-2.749-2,1.631,1.712,2.4,2.857,2.749" transform="translate(0 0.001)" fill="#12263f"/>
          <path id="Path_876362" data-name="Path 876362" d="M163.6,47.076c-1.621-.85-3.427-1.175-4.1-3.118a4.055,4.055,0,0,1,2.044-5.057c.537-.248,1.975-.39,2.045-.468.153-.171-.369-1.282.595-1.258.887.022.641,1.161.734,1.256.146.15,3.48-.158,3.651,1.461.256,2.426-2.61.508-3.66.517V45c3.988.635,5.725,6.21,2.259,8.491-.584.384-1.833.631-2.046.8-.342.265-.021.951-.71,1.274-1.119.525-.747-1.094-.813-1.16-.04-.041-.835.014-1.146-.055-1.475-.328-3.977-1.342-3.348-3.234.642-1.93,3.085,1.6,4.492,1.1Zm0-6.669c-2.736.449-2.666,3.61,0,3.936Zm1.093,11.807c2.9-.616,2.544-3.918,0-4.81Z" transform="translate(-124.237 -29.045)" fill="#12263f"/>
          <path id="Path_876363" data-name="Path 876363" d="M299.095,207.409c1.768,0,.845,2.786,2.876,2.9,2.1.116,1.034-2.7,2.81-2.8,2.79-.159,1.02,4.607-1.628,5.173a4.4,4.4,0,0,1-4.262-1.228c-.9-1.02-1.864-4.041.2-4.043" transform="translate(-232.733 -162.058)" fill="#12263f"/>
        </g>
      </g>
    </g>
  </g>
</svg>
