<svg xmlns="http://www.w3.org/2000/svg" xmlns:xlink="http://www.w3.org/1999/xlink" width="132" height="132" viewBox="0 0 132 132">
  <defs>
    <clipPath id="clip-path">
      <rect id="Rectangle_404209" data-name="Rectangle 404209" width="85" height="82.503" fill="#12263f"/>
    </clipPath>
  </defs>
  <g id="img33" transform="translate(-600.345 -5360.345)">
    <rect id="Rectangle_403644" data-name="Rectangle 403644" width="132" height="132" rx="66" transform="translate(600.345 5360.345)" fill="#fff"/>
    <g id="Group_1101614" data-name="Group 1101614" transform="translate(623.845 5383.093)">
      <g id="Group_1101612" data-name="Group 1101612" clip-path="url(#clip-path)">
        <path id="Path_876262" data-name="Path 876262" d="M40.586,41.224a4.9,4.9,0,0,0,.066,2.077c.282.624,2.077,1.847,2.545,2.546,1.028-1.534,4.916-1.126,4.91-3.286,0-1.427-2.855-3.334-1.193-5.734A43.093,43.093,0,0,1,50.728,33a2.922,2.922,0,0,1,2.4-.474c1.4.285,3.015,2.332,4.488,1.205,1.138-.87.6-4.489,3.254-5.028,1.133-.231,5.414-.168,6.406.293,2.328,1.08,1.211,4.754,3.627,5.1,1.187.167,2.876-1.99,4.949-1.564,1,.206,4.994,4.193,5.2,5.2.43,2.09-1.392,3.193-1.614,4.675-.359,2.4,4.067,1.772,5.1,3.731.622,1.177.607,6.283-.074,7.443-1.15,1.957-4.555,1.013-4.972,3.327-.229,1.27,2.419,3.152,1.342,5.574a25.457,25.457,0,0,1-4.329,4.379c-2.52,1.3-4.419-1.92-6.366-1.055-1.089.484-1.036,3.4-2.313,4.482-1.142.964-2.559.565-3.933.634.2,2.689,1.2,4.529.106,7.22-1.2,2.935-3.829,3.862-6.784,4.047-16.324,1.025-33.708-.8-50.142,0C3.3,81.919.666,80.2,0,76.309c1.146-6.882,2.117-14.576,3.9-21.325,1.933-7.306,10.6-5.793,16.3-8.336.685-.306,3.655-3.077,3.767-3.665.372-1.96-.157-1.571-1.159-2.444a16.523,16.523,0,0,1-4.788-6.467c-.3-.778-.908-3.828-1.037-4.012s-.887-.31-1.229-.519a5.4,5.4,0,0,1-2.732-6c.2-1.126,1.073-2,1.19-2.846.641-4.658-1.863-11.2,3.381-14.035.5-.271,2.384-.831,2.459-.94a22.753,22.753,0,0,1,.777-2.2C23.236-.723,30.41-.046,34.71.182c8.322.441,14.971,5.7,15.61,14.337.145,1.961-.292,4.526,0,6.369.125.779.972,1.526,1.168,2.655a5.465,5.465,0,0,1-2.733,6c-.336.2-1.207.411-1.323.588-.182.278-.08,1.054-.191,1.508a16.078,16.078,0,0,1-5.317,8.7c-.313.292-1.3.818-1.341.888m6.965-21.918V13.465c0-3.846-4.629-8.5-8.073-9.767C36.691,2.669,29.29,2.653,26.2,2.943a4.091,4.091,0,0,0-3.037,1.848c-.663,1.069-.49,2.7-.971,3.276-.5.605-2.394.292-3.595,1.078a5.013,5.013,0,0,0-1.628,2.2v7.964a15.64,15.64,0,0,1,2.115-.222c.109-.1.421-2.356.59-2.914.754-2.484,1.858-4.951,4.834-4.947,2.435,0,6.329,1.264,9.135,1.5,4.038.333,10.46-1.06,12.062,3.867.181.558.287,2.4.373,2.495.051.055,1.22.16,1.474.224M45.263,27.85c.271-.263,1.623-.336,2.224-.643a2.814,2.814,0,0,0,.812-4.3c-1.724-2.267-4.58.346-4.983-2.238-.328-2.1.625-4.722-2.686-5.172-2.375-.323-5.467,0-8.051-.232-2.833-.255-5.6-.908-8.39-1.393-2.473.533-2.079,6.568-3.085,7.759-.978,1.157-3.461-1.013-5.082,1.5a2.81,2.81,0,0,0,.625,3.814c1.312.968,2.719.077,3.068,2.03.548,3.063.445,4.268,2.386,6.959,6.042,8.377,19.431,6.093,22.252-3.8.27-.946.5-3.895.911-4.292m20.93,3.61c-.313-.321-4.229-.4-4.629-.158-1.008,1.6-.731,3.639-2.534,4.688-2.982,1.734-4.056.208-6.812-.868-.4.624-3.063,2.777-3.148,3.223-.131.686,1.949,2.79,1.614,4.805-.441,2.653-1.934,3.238-4.2,4.086l8.493,2.229c.294-7.547,9.788-11.362,15.082-5.78,6.184,6.522-.1,17.056-8.707,14.488L63.4,68.38c.63-.135,2.182.2,2.64-.11.3-.2.923-3.017,1.382-3.715a5.256,5.256,0,0,1,4.4-1.66c.916.191,2.253,1.348,3.127,1.567.3.075.294.052.536-.11a32.686,32.686,0,0,0,2.832-2.933c.266-.968-1.812-2.864-1.405-5.212.537-3.094,2.919-3.065,5.268-4.119l-.031-4.724c-2.406-.59-4.609-1.056-5.194-3.831-.524-2.486.739-2.824,1.292-4.681.322-1.081-.086-.685-.429-1.066a15.308,15.308,0,0,0-2.6-2.507c-.73-.135-2.848,1.546-4.038,1.609a5.71,5.71,0,0,1-3.917-2.138c-.327-.6-.88-3.1-1.066-3.288M37.78,42.881a17.834,17.834,0,0,1-11.042,0c-1.019,9.239,12.055,9.25,11.042,0m25.011.9c-2.822.383-5.622,3.457-5.04,6.419.126.641,1.421,1.489,1.87,2.163,1.1,1.654.323,3.093,2.921,3.45A6.2,6.2,0,0,0,67.5,54.65c4.979-3.835,1.627-11.723-4.706-10.864M5.6,79.411c2.078.423,5.518-.315,7.752,0L10.81,58.064c-.233-2.31.338-3.926,2.856-4.149,12.038.69,25.049-.889,36.973,0,2.788.208,3.19,1.595,3.068,4.149L51.161,79.411h7.752a12.843,12.843,0,0,0,1.367-.757c1.416-1.03,1.614-2.139,1.507-3.818l-4.138-20.5a3.831,3.831,0,0,0-2.091-1.944c-3.979-1.623-10.588-1.825-13.936-4.329-.246-.184-1.4-1.441-1.5-1.362-2.475,7.78-13.214,7.625-15.824,0-.446.382-.823.912-1.28,1.269-3.118,2.435-9.862,2.905-13.742,4.311A3.966,3.966,0,0,0,6.62,54.94c-.7,6.329-3.387,13.465-3.879,19.7-.138,1.744.015,2.941,1.5,4.019a14.731,14.731,0,0,0,1.367.757M51.161,56.685h-37.8L16.128,79.4l32.25-.012Z" transform="translate(0 -0.001)" fill="#12263f"/>
        <path id="Path_876263" data-name="Path 876263" d="M140.343,304.277a4.272,4.272,0,1,1-4.272-4.272,4.272,4.272,0,0,1,4.272,4.272m-2.7,0a1.588,1.588,0,1,0-1.588,1.588,1.588,1.588,0,0,0,1.588-1.588" transform="translate(-103.807 -236.288)" fill="#12263f"/>
      </g>
    </g>
  </g>
</svg>
