<svg xmlns="http://www.w3.org/2000/svg" xmlns:xlink="http://www.w3.org/1999/xlink" width="132" height="132" viewBox="0 0 132 132">
  <defs>
    <clipPath id="clip-path">
      <rect id="Rectangle_404210" data-name="Rectangle 404210" width="80.128" height="79.773" fill="#fff"/>
    </clipPath>
  </defs>
  <g id="img30" transform="translate(-600.345 -5360.345)">
    <rect id="Rectangle_403644" data-name="Rectangle 403644" width="132" height="132" rx="66" transform="translate(600.345 5360.345)" fill="#821106"/>
    <g id="Group_1101616" data-name="Group 1101616" transform="translate(626.633 5386.458)">
      <g id="Group_1101615" data-name="Group 1101615" clip-path="url(#clip-path)">
        <path id="Path_876264" data-name="Path 876264" d="M251.982,159.3c-.31-1-2.834.359-2.706,1.405-.649,4.123-.355,8.7-1,12.776a4.546,4.546,0,0,1-1.227,2.678,91.419,91.419,0,0,1-9.147,9.147c-1.462,1.15-3.005.535-2.341-1.314l9.744-9.781a1.766,1.766,0,0,0-1.083-2.837c-1.668-.3-2.171.537-3.347,1.489-2.633,2.13-5.139,5-7.829,6.97-3.742,2.739-6.1,2.575-8.9,7.13-3.609,5.862.386,9.406-.321,15.506-.213,1.836-2.25,1.881-2.634.57-.306-1.044.072-3.4-.046-4.682-.431-4.668-2.516-6.218-.033-11.345,2.375-4.906,5.331-6.137,9.634-8.66,2.489-1.459,5.706-5.139,8.077-7.134,2.328-1.958,3.955-3.425,7.2-1.951l.619-8.528c.776-4.953,7.5-6.014,8.016-1.235.562,5.186-.344,11.467-.094,16.762-2.564,6.036-7.376,11.038-11.293,16.25-.888,1.182-3.895,4.866-4.035,6.037-.178,1.487.651,4.664-.876,5.3-2.31.963-1.932-4.248-1.791-5.5.167-1.48,1.536-3.181,2.387-4.4,1.75-2.5,13.03-16.205,13.03-17.8Z" transform="translate(-174.714 -124.274)" fill="#fff"/>
        <path id="Path_876265" data-name="Path 876265" d="M2.859,176.2a18.193,18.193,0,0,0,1.888,3.251c3.149,4.8,7.209,9.043,10.525,13.729.975,1.378,2.818,3.783,3,5.424.129,1.145.463,6.393-1.844,5.347-1.42-.644-.655-3.962-.824-5.351-.152-1.256-2.366-3.886-3.212-5.01C8.2,188.013,3.041,182.784.277,176.311c.256-5.3-.653-11.577-.091-16.765.519-4.791,7.262-3.624,8,1.05l.64,8.713c3.244-1.475,4.865-.006,7.2,1.951,2.349,1.972,5.637,5.7,8.077,7.134,4.27,2.5,7.307,3.775,9.634,8.66,2.427,5.095.476,6.5-.012,11.162-.14,1.338.392,4.586-.535,5.425-.985.892-2.031.046-2.167-1.129-.707-6.1,3.288-9.644-.321-15.506-2.8-4.556-5.161-4.391-8.9-7.13-2.707-1.982-5.188-4.833-7.829-6.97-.56-.453-1.555-1.43-2.174-1.528-1.725-.272-2.924.741-2.513,2.517l10,10.14c.664,1.85-.879,2.464-2.341,1.314A91.421,91.421,0,0,1,7.788,176.2a4.5,4.5,0,0,1-1.227-2.678c-.577-4.206-.391-8.565-1-12.776.229-1.141-2.706-2.35-2.706-1.405Z" transform="translate(0 -124.31)" fill="#fff"/>
        <path id="Path_876266" data-name="Path 876266" d="M153.417,71.324c1.636,1.591,2.5,5.925,3.016,8.186.666,2.9,1.6,6.979,1.5,9.9-.114,3.368-2.684,4.467-5.675,3.428l.537,11.852c-.02,2.366-1.043,4.239-3.669,3.922-3.272-.394-3.47-3.368-3.862-6.011-.053-.358.109-.345-.405-.309-.092,1.942-.555,5.161-2.564,5.966-1.694.679-3.462.578-4.467-1.095-1.259-1.733.538-13.807.04-14.326-2.759,1.044-5.589-.02-5.7-3.244s2.139-15.2,4.05-17.625c3.268-4.14,13.531-4.208,17.2-.641m-2.236,7.58c.405.417,1.074,8.4,1.585,10.028.254.811.6,1.6,1.54,1.77,1.571.288.912-3.6.8-4.522a63.58,63.58,0,0,0-1.719-8.353c-.65-2.408-.78-4.465-3.251-5.588-3-1.366-10.817-1.5-12.37,2.1-1.11,2.57-3.291,12.5-2.986,15.11.116.99.634,1.478,1.644,1.019.9-.407,1.212-2.823,1.382-3.755.457-2.512.506-5.1,1.021-7.6.264-.588,1.508-.572,1.986-.27.5.315.37,2.544.351,3.21-.2,6.969-1.055,13.992-1.251,20.949-.03,1.062-.344,3.949,1.452,2.889.387-.229.853-2.556.968-3.142.563-2.876.608-7.009,1.457-9.642.475-1.474,2.018-1.466,2.5-.165.872,2.357.974,7.075,1.5,9.8.128.658.505,3,1.1,3.212,1.741.61,1.345-1.8,1.311-2.955-.163-5.591-.771-11.234-1.034-16.849a51.862,51.862,0,0,1-.208-6.373,1.325,1.325,0,0,1,2.214-.874" transform="translate(-104.999 -54.617)" fill="#fff"/>
        <path id="Path_876267" data-name="Path 876267" d="M252.8,76.492l.417,6.466c-.105,2.48.815,6.544-2.781,6.7-2.848.125-3.816-2.292-4.013-4.741-.322.037-.316.3-.39.533a12.438,12.438,0,0,1-.729,2.56c-.987,1.8-4.066,2.333-5.341.594-.733-1-1.132-3.32.6-3.283,1.584.034,1.205,1.8,1.639,1.84,1.046.1,1.313-2.046,1.486-2.82.48-2.157.6-5.65,1.3-7.539a1.336,1.336,0,0,1,2.417-.372l1.83,9.681c.658,1.469,1.569,1.14,1.522-.476-.183-6.206-1.29-12.991-1.252-19.117.009-1.455,1.606-2.127,2.354-1.119.665.9,1.04,6.182,1.75,7.911a3.3,3.3,0,0,0,.955,1.317c1.288.268.308-3.495.185-4.1a67.308,67.308,0,0,0-2.413-9.1c-1.266-3.224-7.413-3.023-10.137-2.01-.818.3-2.812,2.206-3.485.834-1.127-2.3,3.34-3.659,4.955-3.885,3.534-.5,9.489-.1,10.985,3.771.91,2.355,3.313,11.3,3.257,13.554-.069,2.782-2.712,4.413-5.115,2.8" transform="translate(-189.505 -44.647)" fill="#fff"/>
        <path id="Path_876268" data-name="Path 876268" d="M76.264,58.508a1.34,1.34,0,0,1-.031,2c-1.077.892-1.845-.351-2.715-.792-2.3-1.166-9.116-1.446-10.5,1.142-.807,1.509-2.174,7.578-2.58,9.547-.137.665-1.161,4.54.146,4.268a3.3,3.3,0,0,0,.955-1.317c.71-1.732,1.083-7.011,1.75-7.911a1.336,1.336,0,0,1,2.167.277L64.632,87a.9.9,0,0,0,1.163-.547c.628-1.463,1.444-9.777,2.192-10.346a1.425,1.425,0,0,1,2.172.743c.7,1.9.844,5.389,1.3,7.539a14.425,14.425,0,0,0,.655,2.428,1.423,1.423,0,0,0,1.127.2c.131-.128-.188-1.492,1.157-1.635,2.085-.222,1.564,2.715.394,3.7a3.459,3.459,0,0,1-3.95.04c-1.423-.873-1.376-2.545-1.81-3.949-.061-.2-.036-.468-.3-.409-.165,2.293-.895,4.78-3.606,4.935-4.295.245-3.086-5.07-2.975-7.713.076-1.816.18-3.63.206-5.445-2.495,1.511-4.977.075-5.058-2.81-.059-2.1,2.4-11.758,3.312-13.84,1.963-4.484,12.983-4.667,15.659-1.375" transform="translate(-45.516 -44.687)" fill="#fff"/>
        <path id="Path_876269" data-name="Path 876269" d="M174.318.03c1.94-.273,4.377,1.429,5.136,3.194,2.711,6.3-5.159,11.664-8.957,5.874-2.2-3.36-.3-8.487,3.821-9.068m0,2.671c-3.137.613-2.65,6.463.55,6.317,3.557-.163,3.131-7.036-.55-6.317" transform="translate(-134.715 -0.001)" fill="#fff"/>
        <path id="Path_876270" data-name="Path 876270" d="M261.815,5.613A5.009,5.009,0,1,1,256.805.6a5.009,5.009,0,0,1,5.009,5.009m-6.637,1.976c2.019,2.017,5.041-.686,3.51-3.408-1.7-3.016-6.013.907-3.51,3.408" transform="translate(-200.04 -0.48)" fill="#fff"/>
        <path id="Path_876271" data-name="Path 876271" d="M99.375,5.871A4.984,4.984,0,1,1,94.391.887a4.984,4.984,0,0,1,4.984,4.984M93.981,3.406c-3.4.564-1.535,6.669,1.558,4.647,2.21-1.445.961-5.066-1.558-4.647" transform="translate(-71.029 -0.705)" fill="#fff"/>
      </g>
    </g>
  </g>
</svg>
