<svg xmlns="http://www.w3.org/2000/svg" xmlns:xlink="http://www.w3.org/1999/xlink" width="151" height="151" viewBox="0 0 151 151">
  <defs>
    <clipPath id="clip-path">
      <rect id="Rectangle_404256" data-name="Rectangle 404256" width="76.284" height="86.245" fill="#00513f"/>
    </clipPath>
  </defs>
  <g id="img3" transform="translate(-505.713 -7988)">
    <g id="Group_1101010" data-name="Group 1101010" transform="translate(559.448 7988)">
      <path id="Path_875656" data-name="Path 875656" d="M235.845,10.626l-94,94v3.266h3.265l94-94V10.626Z" transform="translate(-141.847 -10.626)" fill="#00503e"/>
      <path id="Path_875657" data-name="Path 875657" d="M221.444,10.626l-79.6,79.6v6.532l86.128-86.13Z" transform="translate(-141.847 -10.626)" fill="#00503e"/>
      <path id="Path_875658" data-name="Path 875658" d="M207.043,10.626l-65.2,65.2v6.531l71.728-71.728Z" transform="translate(-141.847 -10.626)" fill="#00503e"/>
      <path id="Path_875659" data-name="Path 875659" d="M192.642,10.626l-50.8,50.8v6.531l57.327-57.328Z" transform="translate(-141.847 -10.626)" fill="#00503e"/>
      <path id="Path_875660" data-name="Path 875660" d="M178.242,10.626l-36.395,36.4v6.531l42.927-42.927Z" transform="translate(-141.847 -10.626)" fill="#00503e"/>
      <path id="Path_875661" data-name="Path 875661" d="M163.841,10.626,141.847,32.62v6.532l28.526-28.526Z" transform="translate(-141.847 -10.626)" fill="#00503e"/>
      <path id="Path_875662" data-name="Path 875662" d="M149.44,10.626l-7.593,7.593v6.532l14.125-14.125Z" transform="translate(-141.847 -10.626)" fill="#00503e"/>
      <path id="Path_875663" data-name="Path 875663" d="M268.109,151.013h6.532l7.593-7.593v-6.531Z" transform="translate(-184.97 -53.748)" fill="#00503e"/>
      <path id="Path_875664" data-name="Path 875664" d="M246.238,143.543h6.532l21.994-21.995v-6.531Z" transform="translate(-177.499 -46.278)" fill="#00503e"/>
      <path id="Path_875665" data-name="Path 875665" d="M224.368,136.074H230.9l36.394-36.4V93.147Z" transform="translate(-170.03 -38.809)" fill="#00503e"/>
      <path id="Path_875666" data-name="Path 875666" d="M202.5,128.6h6.532l50.795-50.8V71.277Z" transform="translate(-162.562 -31.34)" fill="#00503e"/>
      <path id="Path_875667" data-name="Path 875667" d="M180.628,121.135h6.531l65.2-65.2V49.407Z" transform="translate(-155.091 -23.871)" fill="#00503e"/>
      <path id="Path_875668" data-name="Path 875668" d="M158.757,113.666h6.532l79.6-79.6V27.536Z" transform="translate(-147.622 -16.401)" fill="#00503e"/>
    </g>
    <rect id="Rectangle_403642" data-name="Rectangle 403642" width="71.286" height="71.286" transform="translate(506.713 8066.713)" fill="none" stroke="#00513f" stroke-linecap="round" stroke-linejoin="round" stroke-width="2"/>
    <rect id="Rectangle_403641" data-name="Rectangle 403641" width="125.08" height="125" transform="translate(520.96 7998.713)" fill="#ccf6ec"/>
    <g id="Group_1101668" data-name="Group 1101668" transform="translate(545.358 8018.091)">
      <g id="Group_1101667" data-name="Group 1101667" clip-path="url(#clip-path)">
        <path id="Path_876436" data-name="Path 876436" d="M2.383,90.541a3.3,3.3,0,0,0,2.475,2.27l51.673-.1c2.147-.634,1.694-4.339,3.653-3.457,1.666.75-.187,3.89-1.1,4.72A6.935,6.935,0,0,1,55.128,95.4L5.3,95.392A5.751,5.751,0,0,1,.066,90.7L0,29.274c.228-3.324,2.006-5.012,5.159-5.734-.6-8.192,8.875-12.546,14.474-6.114.354.407.685,1.376,1.177,1.393l23.147-7.065c1.2-.4,2.378.831,1.449,1.886-9.353,3.315-19.053,5.885-28.544,8.877-.334,4.646.354,9.714-.031,14.312-.317,3.786-2.785,6.591-6.792,6.151-1.96-.215-3.191-1.673-4.418-3.02l6.212,20.653a1.258,1.258,0,0,1-2.3.774L2.383,38.451ZM18.128,19.684c.347-.387-2.1-2.28-2.589-2.478a5.826,5.826,0,0,0-7.988,4.736c-.449,5.01.357,10.676,0,15.759.765,3.935,6.347,3.848,6.7-.212a111.055,111.055,0,0,0,0-14.685c-.176-2.058-1.93-1.6-2.152-.193l-.057,13.1c-.265.9-2.2.8-2.277-.214L9.71,22.161A3.524,3.524,0,0,1,14.524,19.3c.591.228,1.145.947,1.368.991.452.089,1.619-.718,2.236-.607M5.187,38.02V26.48c0-.724-1.44.15-1.735.421a3.553,3.553,0,0,0-1.079,2.376c.044,1.258,1.815,6.286,2.325,7.829.088.266.16.911.489.913" transform="translate(0 -9.158)" fill="#00513f"/>
        <path id="Path_876437" data-name="Path 876437" d="M98.343,73.078,64.489,83.334a5.713,5.713,0,0,1-6.587-3.14L50.989,57.56c-.5-1.415.361-3.121,1.855-2.015L60,78.745c1.285,3.142,3.277,2.33,5.87,1.654,15.267-3.978,30.385-9.816,45.68-13.851a3.171,3.171,0,0,0,2.227-3.834L96.075,4.491c-.628-1.745-2.137-2.156-3.862-1.925-1.089.146-2.816,1.35-3.784.511-2.179-1.889,3.982-3.2,5.215-3.068a5.567,5.567,0,0,1,4.523,3.252c5.354,18.46,11.623,36.7,16.84,55.2,1.143,4.053,2.657,7.9-2.219,10.191l-12.053,3.584c-.251.29.255,3.72-.129,4.509s-2.266.53-2.266-.325Z" transform="translate(-39.88 0)" fill="#00513f"/>
        <path id="Path_876438" data-name="Path 876438" d="M128.773,89.42c.256.317.222,1.106.618,1.206.143.036,1-.227,1.489-.2,1.437.094,2.818,1.26,1.747,2.613-.8,1.01-1.876.294-3.017.434-1.359.166-3.095,1.282-1.949,2.775.9,1.175,5.191.1,7.213,2.276a5.647,5.647,0,0,1,.217,7.115c-.241.291-.846.48-.968.742-.17.366.664,2.282-1.126,2.564-1.62.256-1.611-1.491-1.81-1.664-.3-.257-4.208.325-4.305-2.078-.118-2.922,2.616-.811,3.588-.766,1.945.09,3.685-1.367,2.471-3.333-.918-1.486-3.176-1.034-4.586-1.237a4.57,4.57,0,0,1-2.869-7.506c.213-.251.718-.37.768-.57.152-.614-.221-1.619.106-2.218a1.636,1.636,0,0,1,2.415-.158" transform="translate(-97.55 -69.773)" fill="#00513f"/>
        <path id="Path_876439" data-name="Path 876439" d="M156.259,267.937c1.893-.277,2.321,1.616.971,2.27l-36.281,10.96c-1.943.487-2.368-1.908-.435-2.381Z" transform="translate(-93.537 -210.123)" fill="#00513f"/>
        <path id="Path_876440" data-name="Path 876440" d="M136.869,202.939c1.765-.248,2.134,1.885.484,2.438L101.774,216.17c-2,.767-2.832-1.494-1-2.288Z" transform="translate(-78.242 -159.151)" fill="#00513f"/>
        <path id="Path_876441" data-name="Path 876441" d="M147.892,235.561a1.289,1.289,0,0,1-.587,2l-36.283,10.971a1.179,1.179,0,0,1-1.147-2.029c12.164-3.994,24.564-7.424,36.775-11.338a1.914,1.914,0,0,1,1.242.4" transform="translate(-85.82 -184.428)" fill="#00513f"/>
        <path id="Path_876442" data-name="Path 876442" d="M90.295,181.877,126.678,170.7c1.922-.761,2.816,1.5,1,2.288L91.583,183.936a1.268,1.268,0,0,1-1.288-2.059" transform="translate(-70.6 -133.764)" fill="#00513f"/>
      </g>
    </g>
  </g>
</svg>
