<svg xmlns="http://www.w3.org/2000/svg" xmlns:xlink="http://www.w3.org/1999/xlink" width="180" height="180" viewBox="0 0 180 180">
  <defs>
    <clipPath id="clip-path">
      <rect id="Rectangle_404232" data-name="Rectangle 404232" width="82.118" height="91.031" fill="#12263f"/>
    </clipPath>
  </defs>
  <g id="img32" transform="translate(-358.668 -5326)">
    <rect id="Rectangle_403656" data-name="Rectangle 403656" width="180" height="180" transform="translate(358.668 5326)" fill="none"/>
    <g id="Group_1101106" data-name="Group 1101106" transform="translate(-148.045 -2662)">
      <g id="Group_1101010" data-name="Group 1101010" transform="translate(601.04 7999.387)">
        <path id="Path_875656" data-name="Path 875656" d="M213.638,10.626,141.848,82.417v2.494h2.494L216.133,13.12V10.626Z" transform="translate(-141.846 -10.626)" fill="#225a78"/>
        <path id="Path_875657" data-name="Path 875657" d="M202.64,10.626,141.848,71.419v4.989l65.781-65.782Z" transform="translate(-141.846 -10.626)" fill="#225a78"/>
        <path id="Path_875658" data-name="Path 875658" d="M191.64,10.626,141.847,60.42v4.988l54.782-54.783Z" transform="translate(-141.846 -10.626)" fill="#225a78"/>
        <path id="Path_875659" data-name="Path 875659" d="M180.642,10.626l-38.8,38.8V54.41l43.784-43.784Z" transform="translate(-141.846 -10.626)" fill="#225a78"/>
        <path id="Path_875660" data-name="Path 875660" d="M169.644,10.626l-27.8,27.8v4.988l32.786-32.786Z" transform="translate(-141.846 -10.626)" fill="#225a78"/>
        <path id="Path_875661" data-name="Path 875661" d="M158.645,10.626l-16.8,16.8v4.989l21.787-21.787Z" transform="translate(-141.846 -10.626)" fill="#225a78"/>
        <path id="Path_875662" data-name="Path 875662" d="M147.646,10.626l-5.8,5.8v4.989l10.788-10.788Z" transform="translate(-141.846 -10.626)" fill="#225a78"/>
        <path id="Path_875663" data-name="Path 875663" d="M268.109,147.676H273.1l5.8-5.8v-4.988Z" transform="translate(-204.61 -73.39)" fill="#225a78"/>
        <path id="Path_875664" data-name="Path 875664" d="M246.238,136.8h4.989l16.8-16.8v-4.988Z" transform="translate(-193.738 -62.518)" fill="#225a78"/>
        <path id="Path_875665" data-name="Path 875665" d="M224.368,125.933h4.989l27.8-27.8V93.147Z" transform="translate(-182.867 -51.646)" fill="#225a78"/>
        <path id="Path_875666" data-name="Path 875666" d="M202.5,115.061h4.989l38.795-38.8V71.277Z" transform="translate(-171.996 -40.775)" fill="#225a78"/>
        <path id="Path_875667" data-name="Path 875667" d="M180.628,104.19h4.988L235.41,54.4V49.407Z" transform="translate(-161.123 -29.904)" fill="#225a78"/>
        <path id="Path_875668" data-name="Path 875668" d="M158.757,93.318h4.989l60.792-60.793V27.536Z" transform="translate(-150.252 -19.032)" fill="#225a78"/>
      </g>
      <rect id="Rectangle_403642" data-name="Rectangle 403642" width="62.268" height="62.267" transform="translate(518.1 8094.346)" fill="none" stroke="#225a78" stroke-linecap="round" stroke-linejoin="round" stroke-width="2"/>
      <rect id="Rectangle_403641" data-name="Rectangle 403641" width="135.46" height="135.39" transform="translate(530.543 8008.745)" fill="#88c0de"/>
      <g id="Group_1101638" data-name="Group 1101638" transform="translate(557.066 8030.924)">
        <g id="Group_1101637" data-name="Group 1101637" clip-path="url(#clip-path)">
          <path id="Path_876333" data-name="Path 876333" d="M206.75,200.236c-1.059,1.071-3.845,1.752-3.991,1.922-.245.285.529,1.9-1,2.54-2.141.9-1.8-2.226-2.009-2.533-.1-.142-2.42-.781-3.142-1.293-1.281-.909-3.271-4.048-1.507-5.117,2.094-1.268,1.988,1.752,2.744,2.515,1.9,1.92,8.083,1.4,7.347-1.882-.451-2.01-6.635-1.993-8.53-3.076-3.41-1.949-2.679-6.756.686-8.5.485-.252,2.26-.752,2.33-.854.342-.5-.237-2.455,1.4-2.707,1.875-.289,1.509,2.536,1.875,2.813.19.144,1.613.44,2.208.748a5.172,5.172,0,0,1,2.971,4.083,1.434,1.434,0,0,1-2.162,1.475c-.825-.386-.593-1.2-.868-1.861-.991-2.379-6.625-2.375-7.711-.014-1.432,3.116,5.8,3.273,7.609,3.981a4.636,4.636,0,0,1,1.744,7.76" transform="translate(-150.191 -140.01)" fill="#12263f"/>
          <path id="Path_876334" data-name="Path 876334" d="M97.767,65.311a5.231,5.231,0,0,1,2.888,2.115c1.032,1.981-.23,3.511-1.791,4.667C92.515,76.8,78.522,83.445,70.712,83.97c-5.066.341-10.2.147-15.257.436a19.966,19.966,0,0,1-3.139.272c-.315.1-.938,1.468-1.292,1.892-1.77,2.122-7.209,6.8-9.407,3.049l-7.591-18.8c-.346-1.094.593-2.174,1.424-2.779,1.754-1.276,5.586-1.821,7.707-1.569.669.08,1.941.7,2.421.565.533-.146,2.8-2.292,3.559-2.822a15.181,15.181,0,0,1,8.941-3.228c-2.4-7.687-.188-14.043,4-20.448.513-.784,3.652-4.8,3.687-5.173.04-.421-.979-1.583-1.046-2.533-.04-.566.265-1.126.2-1.485-.029-.156-1.652-1.084-1.966-2.413-.449-1.909.6-2.653.58-3.548-.008-.368-.593-.774-.793-1.243a4.684,4.684,0,0,1,.8-4.891c.236-.277.8-.413.893-.717.077-.255-.394-1.189-.449-1.772a4.688,4.688,0,0,1,1.524-4.186L68.084,11.3c-1-1.908-2.778-4.024-3.608-5.946C61.876-.671,72.6,1.984,75.255,3.385,77.373,1.31,81.686-.983,84.624.442c2.969,1.44.953,5.62,1.53,6.431a17.113,17.113,0,0,1,7.519,4.075,9.545,9.545,0,0,1,1.242-1.483c1.879-1.385,7.909-.676,10.359-1.472a3.069,3.069,0,0,1,2.788,2.443c-.433,7.966.756,16.891.062,24.747-.149,1.68-1.041,3.033-2.851,3.083a63.767,63.767,0,0,1-9.5-1.215,3.325,3.325,0,0,1-2.218-3.129l-4.319,2.164c3.4,4.28,6.756,8.585,7.669,14.161a22.577,22.577,0,0,1-2.438,15.061c1.016.117,2.329-.161,3.3,0M83.526,3.018c-.8-.926-4.9.992-5.709,1.792-.612.6-.811,1.754-1.9,1.819-.5.03-4.363-1.683-5.547-1.939a12.278,12.278,0,0,0-2.39-.343c-.313.008-.7-.137-.568.342l3.906,6.67c2.7.15,10.512.4,11.5-2.851a33.675,33.675,0,0,0,.711-5.491m-15.876,29.1c-.6.872,1.078,1.612,1.742,1.749,3.216.665,11.285,1.166,14.475.708A22.575,22.575,0,0,0,91.063,32c.794-.441,2.406-1.174,2.511-2.038l-.129-15.82C91.662,13.1,87.631,9.386,85.527,9.8c-.137.027-1.139,1.658-1.768,2.156-2.215,1.756-6.214,2.256-8.966,2.406-1.461.08-6.247-.291-7.158.12a2.1,2.1,0,0,0-.869,2.222c.4,1.326,2.582,1.19,2.815,1.512.3.411-.006,1.927.1,2.518-1.336.01-4.677-.442-4.547,1.687.127,2.074,3.09.53,3.358,2.112.508,2.992-2.837.979-2.861,3.409-.018,1.8,4.2.3,4.047,2.668-.1,1.5-1.871,1.286-2.027,1.512m37.51-21.169-8.643.682V34.379l8.643.91Zm-34.8,58.682c1.946,1.577,4.769,1.34,7.161,1.364.433,0,.881.244,1.366.243,1.09,0,9.05-3.094,10.112-3.781,2.571-1.664,4.7-6.43,5.185-9.372,1.105-6.747-.928-12.2-4.956-17.446a30.116,30.116,0,0,0-2.953-3.421c-.688-.316-2.382.3-3.283.35-1.361.076-2.747-.078-4.112,0l-10.412-.892c-2.549,3.27-5.291,6.748-6.946,10.581a18.193,18.193,0,0,0-.461,13.7c2.931.452,9.184-.124,11.353,1.954,2.323,2.225.711,5.888-2.054,6.719m27.733-1.126c-.44-.076-.805-.393-1.25-.455-3.681-.51-12.355,5.259-16.649,5.841-5.121.693-15.9-1.963-20.934-3.739-1.038-.366-2.027-.959-1.379-2.2.815-1.555,3.677-.624,5.078-.593,1.613.035,6.783.437,7.513-1.15.574-1.249-.426-1.56-1.422-1.756-3.662-.718-10.144-1.145-13.7-.171-3.378.926-5.967,3.345-8.615,5.479l5.073,12.07c3.644-.3,7.3-.213,10.941-.37,3.213-.139,7.772-.137,10.792-.807a71.567,71.567,0,0,0,23.547-10.8c.507-.375,1.179-.571,1-1.355m-54.831.474c-.872-.1-6.26.889-6.354,1.468,1.013,1.827,6.449,17.647,7.4,17.622a5.92,5.92,0,0,0,2.145-1.063c.518-.334,3.208-2.3,3.171-2.667Z" transform="translate(-26.23 0)" fill="#12263f"/>
          <path id="Path_876335" data-name="Path 876335" d="M34.46,97.636a17.23,17.23,0,1,1-17.23-17.23,17.23,17.23,0,0,1,17.23,17.23m-2.812,0a14.4,14.4,0,1,0-14.4,14.4,14.4,14.4,0,0,0,14.4-14.4" transform="translate(0 -62.119)" fill="#12263f"/>
          <path id="Path_876336" data-name="Path 876336" d="M53.059,118.091a1.414,1.414,0,0,1,1.669,2.129l-14.9,14.9c-1.628.938-3.028-.661-1.841-2.069,4.444-4.177,8.475-8.841,12.883-13.044.289-.276,2.046-1.87,2.185-1.912" transform="translate(-29.009 -91.172)" fill="#12263f"/>
          <path id="Path_876337" data-name="Path 876337" d="M88.736,162.986a4.727,4.727,0,1,1-4.727-4.728,4.727,4.727,0,0,1,4.727,4.728m-2.864,0A1.871,1.871,0,1,0,84,164.856a1.871,1.871,0,0,0,1.871-1.871" transform="translate(-61.249 -122.264)" fill="#12263f"/>
          <path id="Path_876338" data-name="Path 876338" d="M40.284,117.239a4.712,4.712,0,1,1-4.712-4.712,4.712,4.712,0,0,1,4.712,4.712m-2.81-.008a1.9,1.9,0,1,0-1.9,1.9,1.9,1.9,0,0,0,1.9-1.9" transform="translate(-23.841 -86.934)" fill="#12263f"/>
        </g>
      </g>
    </g>
  </g>
</svg>
