<svg xmlns="http://www.w3.org/2000/svg" xmlns:xlink="http://www.w3.org/1999/xlink" width="180" height="180" viewBox="0 0 180 180">
  <defs>
    <clipPath id="clip-path">
      <rect id="Rectangle_404239" data-name="Rectangle 404239" width="87.033" height="87.527" fill="#12263f"/>
    </clipPath>
  </defs>
  <g id="img37" transform="translate(-358.668 -5326)">
    <rect id="Rectangle_403656" data-name="Rectangle 403656" width="180" height="180" transform="translate(358.668 5326)" fill="none"/>
    <g id="Group_1101106" data-name="Group 1101106" transform="translate(-148.045 -2662)">
      <g id="Group_1101010" data-name="Group 1101010" transform="translate(601.04 7999.387)">
        <path id="Path_875656" data-name="Path 875656" d="M213.638,10.626,141.848,82.417v2.494h2.494L216.133,13.12V10.626Z" transform="translate(-141.846 -10.626)" fill="#225a78"/>
        <path id="Path_875657" data-name="Path 875657" d="M202.64,10.626,141.848,71.419v4.989l65.781-65.782Z" transform="translate(-141.846 -10.626)" fill="#225a78"/>
        <path id="Path_875658" data-name="Path 875658" d="M191.64,10.626,141.847,60.42v4.988l54.782-54.783Z" transform="translate(-141.846 -10.626)" fill="#225a78"/>
        <path id="Path_875659" data-name="Path 875659" d="M180.642,10.626l-38.8,38.8V54.41l43.784-43.784Z" transform="translate(-141.846 -10.626)" fill="#225a78"/>
        <path id="Path_875660" data-name="Path 875660" d="M169.644,10.626l-27.8,27.8v4.988l32.786-32.786Z" transform="translate(-141.846 -10.626)" fill="#225a78"/>
        <path id="Path_875661" data-name="Path 875661" d="M158.645,10.626l-16.8,16.8v4.989l21.787-21.787Z" transform="translate(-141.846 -10.626)" fill="#225a78"/>
        <path id="Path_875662" data-name="Path 875662" d="M147.646,10.626l-5.8,5.8v4.989l10.788-10.788Z" transform="translate(-141.846 -10.626)" fill="#225a78"/>
        <path id="Path_875663" data-name="Path 875663" d="M268.109,147.676H273.1l5.8-5.8v-4.988Z" transform="translate(-204.61 -73.39)" fill="#225a78"/>
        <path id="Path_875664" data-name="Path 875664" d="M246.238,136.8h4.989l16.8-16.8v-4.988Z" transform="translate(-193.738 -62.518)" fill="#225a78"/>
        <path id="Path_875665" data-name="Path 875665" d="M224.368,125.933h4.989l27.8-27.8V93.147Z" transform="translate(-182.867 -51.646)" fill="#225a78"/>
        <path id="Path_875666" data-name="Path 875666" d="M202.5,115.061h4.989l38.795-38.8V71.277Z" transform="translate(-171.996 -40.775)" fill="#225a78"/>
        <path id="Path_875667" data-name="Path 875667" d="M180.628,104.19h4.988L235.41,54.4V49.407Z" transform="translate(-161.123 -29.904)" fill="#225a78"/>
        <path id="Path_875668" data-name="Path 875668" d="M158.757,93.318h4.989l60.792-60.793V27.536Z" transform="translate(-150.252 -19.032)" fill="#225a78"/>
      </g>
      <rect id="Rectangle_403642" data-name="Rectangle 403642" width="62.268" height="62.267" transform="translate(518.1 8094.346)" fill="none" stroke="#225a78" stroke-linecap="round" stroke-linejoin="round" stroke-width="2"/>
      <rect id="Rectangle_403641" data-name="Rectangle 403641" width="135.46" height="135.39" transform="translate(530.543 8008.745)" fill="#88c0de"/>
      <g id="Group_1101648" data-name="Group 1101648" transform="translate(554.757 8032.909)">
        <g id="Group_1101647" data-name="Group 1101647" clip-path="url(#clip-path)">
          <path id="Path_876364" data-name="Path 876364" d="M5.338,69.244A6.758,6.758,0,0,1,.01,63.477L0,11.7A6.518,6.518,0,0,1,6.211,5.507c4.288-.384,9.105.271,13.45.007C20.58,2.8,22.42.726,25.375.306c11.6.613,24.178-.9,35.663-.033C64.4.526,66.3,2.457,67.372,5.514c4.345.264,9.162-.39,13.45-.007A6.531,6.531,0,0,1,87.033,11.7l-.064,52.162A6.759,6.759,0,0,1,83.328,68.7c-1.773.78-7.589.733-9.69.552-2.225-.192-2.008-2.427.216-2.63,2.326-.212,5.64.4,7.793-.039a3.872,3.872,0,0,0,2.755-2.9l.014-52.2c.041-1.369-1.86-3.371-3.155-3.371H67.229v2.611H80.608c.718,0,1.533,1.794,1.423,2.493V61.747a2.359,2.359,0,0,1-1.733,2.4l-72.792.1a2.388,2.388,0,0,1-2.5-2.5V13c-.189-.695.792-2.276,1.422-2.276H19.8V8.114H5.773a4.183,4.183,0,0,0-3.006,2.651c-.234,17.766-.276,35.657.021,53.415a3.732,3.732,0,0,0,2.435,2.351l61.9.1c2.566.266,1.512,2.61.653,2.61H52.436v6.309a7.324,7.324,0,0,1,7.394,6.42,19.835,19.835,0,0,1-.044,3.868c-.269,1.2-1.423,1.39-2.447,1.469-8.962.7-18.807-.546-27.863,0-2.8.1-2.472-3.328-2.274-5.336a7.354,7.354,0,0,1,7.394-6.42V69.244ZM19.8,61.63v-38.4c0-.766,2.393-.875,2.393,0V61.3a2.183,2.183,0,0,0,.326.326H64.51a2.183,2.183,0,0,0,.326-.326V6.483c0-1.507-1.771-3.559-3.372-3.59L25.01,2.987a4.092,4.092,0,0,0-2.786,3.74c-.393,3.71.274,7.911-.073,11.674-.408,1.409-2.347.52-2.347.046v-5a2.183,2.183,0,0,0-.326-.326H7.948a2.183,2.183,0,0,0-.326.326V61.63ZM79.411,13.118H67.229V61.63H79.411ZM49.825,69.244H37.208v6.309H49.825Zm7.4,15.446c.466-3.636-1.078-6.4-4.9-6.74a125.294,125.294,0,0,0-17.808.023,5.328,5.328,0,0,0-3.929,2.162,13.538,13.538,0,0,0-.775,1.4V84.69Z" transform="translate(0 0)" fill="#12263f"/>
          <path id="Path_876365" data-name="Path 876365" d="M158.331,247.66c.5.5.4,1.956-.44,2.176-9.834.386-19.771.051-29.643.17-1.926-.065-1.976-2.774,0-2.625,9.369.609,19.7-.779,28.952,0,.337.029.9.038,1.136.278" transform="translate(-99.203 -193.374)" fill="#12263f"/>
          <rect id="Rectangle_404238" data-name="Rectangle 404238" width="31.807" height="2.416" transform="translate(27.613 46.391)" fill="#12263f"/>
          <path id="Path_876366" data-name="Path 876366" d="M157.67,52.8a16.314,16.314,0,1,1-16.313-16.314A16.313,16.313,0,0,1,157.67,52.8m-2.555-.01a13.757,13.757,0,1,0-13.757,13.757,13.757,13.757,0,0,0,13.757-13.757" transform="translate(-97.841 -28.548)" fill="#12263f"/>
          <path id="Path_876367" data-name="Path 876367" d="M163.3,80.907c1.3-1.214,4.88-5.431,6.341-5.732a3.829,3.829,0,0,1,3.969,6.144,82.767,82.767,0,0,1-8.477,8.492,4.536,4.536,0,0,1-5.006.651c-1.228-.545-4.792-4.054-5.118-5.324a3.852,3.852,0,0,1,4.952-4.733c.736.241,1.959,1.481,2.236,1.478.26,0,.826-.72,1.1-.976m6.771-3.126L162.9,84.749c-2.138.885-2.928-2.032-4.187-2.032a1.349,1.349,0,0,0-1.083,1.977,45.957,45.957,0,0,0,3.384,3.356,2.242,2.242,0,0,0,2.452-.122l8.162-8.152c.73-1.35-.028-2.46-1.559-1.994" transform="translate(-121.181 -58.744)" fill="#12263f"/>
        </g>
      </g>
    </g>
  </g>
</svg>
