<svg xmlns="http://www.w3.org/2000/svg" xmlns:xlink="http://www.w3.org/1999/xlink" width="100" height="100" viewBox="0 0 100 100">
  <defs>
    <clipPath id="clip-path">
      <rect id="Rectangle_404255" data-name="Rectangle 404255" width="49.803" height="49.822" fill="#12263f"/>
    </clipPath>
  </defs>
  <g id="img48" transform="translate(-505.713 -7988)">
    <g id="Group_1101010" data-name="Group 1101010" transform="translate(536.702 7988)">
      <path id="Path_875656" data-name="Path 875656" d="M208.54,10.626,141.848,77.319v2.317h2.317l66.693-66.693V10.626Z" transform="translate(-141.847 -10.626)" fill="#225a78"/>
      <path id="Path_875657" data-name="Path 875657" d="M198.323,10.626,141.848,67.1v4.635l61.109-61.11Z" transform="translate(-141.847 -10.626)" fill="#225a78"/>
      <path id="Path_875658" data-name="Path 875658" d="M188.1,10.626,141.847,56.884v4.634l50.892-50.892Z" transform="translate(-141.847 -10.626)" fill="#225a78"/>
      <path id="Path_875659" data-name="Path 875659" d="M177.887,10.626l-36.04,36.041V51.3l40.675-40.675Z" transform="translate(-141.847 -10.626)" fill="#225a78"/>
      <path id="Path_875660" data-name="Path 875660" d="M167.67,10.626,141.847,36.449v4.634L172.3,10.626Z" transform="translate(-141.847 -10.626)" fill="#225a78"/>
      <path id="Path_875661" data-name="Path 875661" d="M157.452,10.626l-15.6,15.605v4.635l20.239-20.24Z" transform="translate(-141.847 -10.626)" fill="#225a78"/>
      <path id="Path_875662" data-name="Path 875662" d="M147.234,10.626l-5.388,5.388v4.635l10.022-10.022Z" transform="translate(-141.847 -10.626)" fill="#225a78"/>
      <path id="Path_875663" data-name="Path 875663" d="M268.109,146.91h4.634l5.387-5.388v-4.634Z" transform="translate(-209.12 -77.899)" fill="#225a78"/>
      <path id="Path_875664" data-name="Path 875664" d="M246.238,135.257h4.635l15.6-15.606v-4.634Z" transform="translate(-197.467 -66.246)" fill="#225a78"/>
      <path id="Path_875665" data-name="Path 875665" d="M224.368,123.6H229l25.822-25.823V93.147Z" transform="translate(-185.815 -54.594)" fill="#225a78"/>
      <path id="Path_875666" data-name="Path 875666" d="M202.5,111.952h4.634l36.04-36.041V71.277Z" transform="translate(-174.163 -42.941)" fill="#225a78"/>
      <path id="Path_875667" data-name="Path 875667" d="M180.628,100.3h4.634L231.52,54.041V49.407Z" transform="translate(-162.509 -31.289)" fill="#225a78"/>
      <path id="Path_875668" data-name="Path 875668" d="M158.757,88.646h4.634l56.475-56.476V27.536Z" transform="translate(-150.857 -19.636)" fill="#225a78"/>
    </g>
    <rect id="Rectangle_403642" data-name="Rectangle 403642" width="71.286" height="71.286" transform="translate(506.713 8015.713)" fill="none" stroke="#225a78" stroke-linecap="round" stroke-linejoin="round" stroke-width="2"/>
    <rect id="Rectangle_403641" data-name="Rectangle 403641" width="74.08" height="74" transform="translate(520.96 7998.713)" fill="#88c0de"/>
    <g id="Group_1101665" data-name="Group 1101665" transform="translate(533.487 8010.802)">
      <g id="Group_1101664" data-name="Group 1101664" clip-path="url(#clip-path)">
        <path id="Path_876426" data-name="Path 876426" d="M16.809,142.621h1.814a6.173,6.173,0,0,1,1.25.751,3.756,3.756,0,0,1,.813,3c2,.117,4.032-.56,5.431,1.261a3.2,3.2,0,0,1,.7,1.8,22.4,22.4,0,0,1-.03,3.356c-.245.841-1.535.522-1.6.588-.172.173.477,2.724-.907,3.283-7.115.215-14.279.042-21.411.087-1.739-.275-.81-3.11-1.07-3.371-.068-.068-1.486.227-1.726-.588A24.047,24.047,0,0,1,.06,149.2a4.777,4.777,0,0,1,.8-1.7c1.352-1.7,3.678-.975,5.569-1.122-.322-2.389,1.142-4.153,3.627-3.752a27.562,27.562,0,0,0-.813-6.255c-.971-4.084-3.827-9.356.185-12.7a6.329,6.329,0,0,1,9.059,1.075c2.455,3.381-.032,8.15-.866,11.746a32.27,32.27,0,0,0-.812,6.129m-1.626,0a32.294,32.294,0,0,1,1.01-7.683c.6-2.441,2.333-6.208,1.184-8.581a4.519,4.519,0,0,0-7.8-.161c-1.331,2.519,1.033,7.827,1.567,10.646a38.306,38.306,0,0,1,.536,3.842c.027.322-.119,1.937.189,1.937Zm-7,3.752h2.064c.587,0,.939,1.43.069,1.695l-7.19.064c-.5-.012-1.321.894-1.321,1.305v2a1.255,1.255,0,0,0,.188.188H25.064v-2.314a1.954,1.954,0,0,0-1.321-1.18L13.271,148.1c-.96-.22-.593-1.724-.027-1.724h5.5a1.293,1.293,0,0,0-.994-2.008c-2.759-.25-5.929.175-8.731.037-.951.139-.873,1.23-.843,1.971m15.134,7H3.551v1.751H23.313Z" transform="translate(0 -106.949)" fill="#12263f"/>
        <path id="Path_876427" data-name="Path 876427" d="M114.485,48.18V41.363c0-.585,1.395-2.064,1.939-2.064h6.754a1.255,1.255,0,0,0,.188-.188V2.339c0-.051-.606-.67-.806-.569L88.308,1.8c-.278.175-.59.423-.6.781v9.879c-.263,1.362-1.789,1.084-1.868-.242.179-3.008-.239-6.285,0-9.26A3.037,3.037,0,0,1,87.65.144C99.52-.076,111.468-.008,123.344.11a3.27,3.27,0,0,1,1.467,1.285l.03,40.318-8.1,8.037-12.449.053c-.978-.187-.376-1.623,0-1.623Zm8.38-7.129H116.8a2.675,2.675,0,0,0-.563.688v5.941Z" transform="translate(-75.038 0)" fill="#12263f"/>
        <path id="Path_876428" data-name="Path 876428" d="M201.867,228.188l18.241-.033a.885.885,0,0,1-.129,1.76H202.088a.887.887,0,0,1-.221-1.727" transform="translate(-176.088 -199.618)" fill="#12263f"/>
        <path id="Path_876429" data-name="Path 876429" d="M244.494,192.216l12.6-.033c1.388.159,1.03,1.875-.253,1.879-3.806-.277-8.137.372-11.88,0-1.552-.155-1.666-1.624-.472-1.844" transform="translate(-213.209 -168.146)" fill="#12263f"/>
        <path id="Path_876430" data-name="Path 876430" d="M257.833,263.571a.959.959,0,0,1-.65,1.6l-12.391,0c-1.344-.15-1.265-1.631-.254-1.761,4.088.276,8.608-.345,12.644,0a1.12,1.12,0,0,1,.651.163" transform="translate(-213.289 -230.367)" fill="#12263f"/>
        <path id="Path_876431" data-name="Path 876431" d="M217.015,193.084a.916.916,0,1,1-.916-.916.916.916,0,0,1,.916.916" transform="translate(-188.269 -168.132)" fill="#12263f"/>
        <path id="Path_876432" data-name="Path 876432" d="M174.191,228.745a.915.915,0,1,1-.915-.915.915.915,0,0,1,.915.915" transform="translate(-150.803 -199.334)" fill="#12263f"/>
        <path id="Path_876433" data-name="Path 876433" d="M216.966,264.52a.915.915,0,1,1-.915-.915.915.915,0,0,1,.915.915" transform="translate(-188.228 -230.634)" fill="#12263f"/>
        <path id="Path_876434" data-name="Path 876434" d="M230.06,43.638a8.259,8.259,0,1,1-8.259-8.259,8.259,8.259,0,0,1,8.259,8.259m-1.779,0a6.475,6.475,0,1,0-6.475,6.475,6.475,6.475,0,0,0,6.475-6.475" transform="translate(-186.833 -30.954)" fill="#12263f"/>
        <path id="Path_876435" data-name="Path 876435" d="M257.529,78.255c.217.2.4.88.139,1.138-1.264,1.379-2.387,3.128-3.67,4.459-.516.535-.809.882-1.617.483-.445-.806-2.677-2.415-2.9-3.105a.892.892,0,0,1,.953-1.2c.685.114,2.219,2.263,2.544,2.194l3.384-4a1.183,1.183,0,0,1,1.163.039" transform="translate(-218.238 -68.316)" fill="#12263f"/>
      </g>
    </g>
  </g>
</svg>
