<svg xmlns="http://www.w3.org/2000/svg" xmlns:xlink="http://www.w3.org/1999/xlink" width="151" height="150.999" viewBox="0 0 151 150.999">
  <defs>
    <clipPath id="clip-path">
      <rect id="Rectangle_404241" data-name="Rectangle 404241" width="74.815" height="83.653" fill="#00513f"/>
    </clipPath>
  </defs>
  <g id="img40" transform="translate(-505.713 -7988)">
    <g id="Group_1101010" data-name="Group 1101010" transform="translate(559.448 7988)">
      <path id="Path_875656" data-name="Path 875656" d="M235.845,10.626l-94,94v3.266h3.265l94-94V10.626Z" transform="translate(-141.847 -10.626)" fill="#00503e"/>
      <path id="Path_875657" data-name="Path 875657" d="M221.444,10.626l-79.6,79.6v6.532l86.128-86.13Z" transform="translate(-141.847 -10.626)" fill="#00503e"/>
      <path id="Path_875658" data-name="Path 875658" d="M207.043,10.626l-65.2,65.2v6.531l71.728-71.728Z" transform="translate(-141.847 -10.626)" fill="#00503e"/>
      <path id="Path_875659" data-name="Path 875659" d="M192.642,10.626l-50.8,50.8v6.531l57.327-57.328Z" transform="translate(-141.847 -10.626)" fill="#00503e"/>
      <path id="Path_875660" data-name="Path 875660" d="M178.242,10.626l-36.395,36.4v6.531l42.927-42.927Z" transform="translate(-141.847 -10.626)" fill="#00503e"/>
      <path id="Path_875661" data-name="Path 875661" d="M163.841,10.626,141.847,32.62v6.532l28.526-28.526Z" transform="translate(-141.847 -10.626)" fill="#00503e"/>
      <path id="Path_875662" data-name="Path 875662" d="M149.44,10.626l-7.593,7.593v6.532l14.125-14.125Z" transform="translate(-141.847 -10.626)" fill="#00503e"/>
      <path id="Path_875663" data-name="Path 875663" d="M268.109,151.013h6.532l7.593-7.593v-6.531Z" transform="translate(-184.97 -53.748)" fill="#00503e"/>
      <path id="Path_875664" data-name="Path 875664" d="M246.238,143.543h6.532l21.994-21.995v-6.531Z" transform="translate(-177.499 -46.278)" fill="#00503e"/>
      <path id="Path_875665" data-name="Path 875665" d="M224.368,136.074H230.9l36.394-36.4V93.147Z" transform="translate(-170.03 -38.809)" fill="#00503e"/>
      <path id="Path_875666" data-name="Path 875666" d="M202.5,128.6h6.532l50.795-50.8V71.277Z" transform="translate(-162.562 -31.34)" fill="#00503e"/>
      <path id="Path_875667" data-name="Path 875667" d="M180.628,121.135h6.531l65.2-65.2V49.407Z" transform="translate(-155.091 -23.871)" fill="#00503e"/>
      <path id="Path_875668" data-name="Path 875668" d="M158.757,113.666h6.532l79.6-79.6V27.536Z" transform="translate(-147.622 -16.401)" fill="#00503e"/>
    </g>
    <rect id="Rectangle_403642" data-name="Rectangle 403642" width="71.286" height="71.286" transform="translate(506.713 8066.713)" fill="none" stroke="#00513f" stroke-linecap="round" stroke-linejoin="round" stroke-width="2"/>
    <rect id="Rectangle_403641" data-name="Rectangle 403641" width="125.08" height="125" transform="translate(520.96 7998.713)" fill="#ccf6ec"/>
    <g id="Group_1101652" data-name="Group 1101652" transform="translate(546.356 8019.887)">
      <g id="Group_1101651" data-name="Group 1101651" clip-path="url(#clip-path)">
        <path id="Path_876373" data-name="Path 876373" d="M17.432,28.142a47.533,47.533,0,0,1,14.863.892,16.277,16.277,0,0,0,2.568.791c.64-.016,1.144-.719,1.884-.835a24.972,24.972,0,0,1,5.1.085,3.753,3.753,0,0,1,2.306,3.345c-.056,2.663-2.43,3.752-4.816,3.443v4.695c0,.454,1.972.272,2.51.411,2.631.68,3.158,5.035.489,6.344a12.931,12.931,0,0,1-5.386.431c-.82-.128-1.419-.843-2.2-1.031v4.8c.71-.2.862-.677,1.663-.945a10.894,10.894,0,0,1,3.666-.314c6.133.458,4.96,7.876-.739,7.1V59.86c3-.567,6.084,2.329,4.352,5.289-1.521,2.6-3.723,1.289-5.663,1.849-.737.213-2.294,1.985-3.488,1.835-.119.279.209.622.209.729v4.173a2.094,2.094,0,0,0,.313.313H70.328a2.616,2.616,0,0,0,2.177-2L72.564,57.3c.34-1.466,2.251-.9,2.251-.462V72.9a13.081,13.081,0,0,1-.743,1.344,5.072,5.072,0,0,1-3.533,2.1l-35.788,0a3.59,3.59,0,0,1-1.245,3.45c-2.453,2.379-10.1,3.861-13.471,3.86-1.723,0-1.948-2.231.02-2.5,3.206-.432,5.908-.314,9.109-1.532.6-.228,3.293-1.563,3.293-2.133V73.839a30.846,30.846,0,0,1-12.2,2.931c-5.891.294-12.554-.249-17.851-2.931v3.652c0,1.842,8.426,3.409,9.938,3.625,1.13.161,3.327-.374,3,1.582-.226,1.353-3.6.655-4.667.5C8.007,82.817,1,81.242.211,78.228a54.922,54.922,0,0,1,0-8.985c.543-2.08,4.585-3.307,4.666-3.664V56.226c-1.41-.887-4.141-1.88-4.669-3.661A54.838,54.838,0,0,1,.1,44.3c.236-2.451,2.832-3.23,4.574-4.4.251-1.935-.248-4.348.041-6.219.511-3.307,7.691-4.84,10.393-5.362l.019-23.664C15.379,1.9,17.378.4,20.033.173a65.965,65.965,0,0,1,9.8.021c1.743.273,1.529,2.247-.613,2.491-3.178.361-6.937-.3-10.181.044a2.791,2.791,0,0,0-1.609,1.73ZM36.557,33.43c-4.073-4.212-25.094-4.2-29.126.047-1.588,1.674,2.116,3.107,3.327,3.528,6.158,2.142,17.537,2.134,23.568-.42,1.226-.519,3.682-1.655,2.231-3.155m1.115-2.159c1.222,1.079,1.476,3.076,3.5,2.141,1.177-.544.361-2.141-.055-2.141Zm-.626,6.677c-.907.236-1.663.787-2.549,1.1C27.619,41.5,16.073,41.5,9.237,38.946a14.657,14.657,0,0,0-2.238-1V41.6c0,.226,1.422,1.219,1.737,1.393,5.691,3.151,20.876,3.155,26.574,0,.315-.174,1.737-1.167,1.737-1.393Zm-9.6,9.392a45.282,45.282,0,0,1-14.228-.484C10.85,46.384,7.8,45.5,5.951,43.9c-.335-.29-.9-1.269-1.137-1.3a6.449,6.449,0,0,0-1.973,1.1c-1.61,1.7,2.233,3.171,3.478,3.586,5.406,1.8,13.469,1.878,19.045.784.61-.12,1.736-.232,2.084-.731m11.415-4.133c-.4.117-1.612,1.519-2.23,1.731-.018.691,3.658.635,4.269.518a1.2,1.2,0,0,0,.318-2.188,6.256,6.256,0,0,0-2.358-.061m-6.407,4.965a39.137,39.137,0,0,1-30.048,0v3.652c0,.289,1.779,1.413,2.154,1.6,5.763,2.9,19.983,2.9,25.739,0,.375-.189,2.154-1.312,2.154-1.6Zm3.966,5.63c.726.083,1.431,1.047,2.031,1.206.989.261,3.557.271,3.4-1.3s-5.2-1.783-5.429.093M32.4,54.89c-.5.113-1.584.871-2.241,1.105A43.349,43.349,0,0,1,12.74,57.77c-1.427-.141-3.8-.89-5.013-.849C5.5,57,8.278,58.992,9.042,59.381c5.753,2.929,18.153,2.816,24.2.746.935-.32,3.865-1.494,3.8-2.648-.067-1.267-3.532-2.841-4.652-2.589M37.046,60.9c-5.533,2.981-12.685,3.276-18.894,2.931A27.147,27.147,0,0,1,7,60.9v3.652c0,.4.932,1.016,1.27,1.234,5.506,3.552,21.465,3.474,27.112.23.421-.242,1.666-.976,1.666-1.464Zm4.534,3.285c1.287-1.363-1.541-2.7-2.148-1.837a3.51,3.51,0,0,0,.1,2.216,2.406,2.406,0,0,0,2.045-.379M6.532,67.612A9.615,9.615,0,0,0,2.6,69.76c-1.111,1.881,3.754,3.28,4.975,3.6a42.466,42.466,0,0,0,19.036.166c1.355-.324,5.7-1.54,5.843-3.146.119-1.32-2.068-.264-2.876-.147-6.354.92-14.676.817-20.7-1.512C8.3,68.5,6.966,67.569,6.532,67.612" transform="translate(0 0)" fill="#00513f"/>
        <path id="Path_876374" data-name="Path 876374" d="M106.474,42.8l45.721,0V57.227l-45.721,0Zm2.308,12.116h41.107v-9.6H108.782Z" transform="translate(-84.256 -33.872)" fill="#00513f"/>
        <path id="Path_876375" data-name="Path 876375" d="M204.482,53.1c-.288,1.027-2.514.538-2.3-.83L202.2,5.516a2.281,2.281,0,0,0-1.988-2.186l-34.643,0c-1.9.029-2.453-2.259-.426-2.513l34.853.012c1.575-.1,4.489,2.112,4.489,3.649Z" transform="translate(-129.667 -0.65)" fill="#00513f"/>
        <path id="Path_876376" data-name="Path 876376" d="M279.254,240.736c3.283-.412,7.162.195,6.5,4.414-.446,2.847-4.361,2.839-6.557,2.619-4.352-.436-4.7-6.437.057-7.033m.2,2.286a1.242,1.242,0,0,0-.423,2.41c.853.245,4.094.3,4.4-.731.618-2.084-2.729-1.9-3.977-1.679" transform="translate(-218.257 -190.416)" fill="#00513f"/>
        <path id="Path_876377" data-name="Path 876377" d="M278.937,286.5c2.317-.388,6.571-.27,6.946,2.761.518,4.192-3.477,4.7-6.732,4.229a3.523,3.523,0,0,1-.213-6.991m.413,2.29a1.215,1.215,0,0,0-.159,2.365c1.223.372,5.359.44,4.287-1.785-.4-.827-3.318-.758-4.128-.58" transform="translate(-218.367 -226.593)" fill="#00513f"/>
        <path id="Path_876378" data-name="Path 876378" d="M285.037,139.529a3.639,3.639,0,0,1-.822,5.6c-1.283.662-5.5.614-6.72-.249-2.249-1.6-1.817-5.413.722-6.166a18.75,18.75,0,0,1,5.9.165,4.894,4.894,0,0,1,.915.65m-1.644,1.643c-.342-.342-3.846-.377-4.394-.216-.78.229-.712,1.748-.216,2.061a13.323,13.323,0,0,0,4.095.148,1.3,1.3,0,0,0,.516-1.993" transform="translate(-218.436 -109.642)" fill="#00513f"/>
        <path id="Path_876379" data-name="Path 876379" d="M284.966,196.357a3.639,3.639,0,0,1-.822,5.6c-1.283.662-5.5.614-6.72-.249a3.457,3.457,0,0,1,1.462-6.261c1.637-.187,4.9-.273,6.08.911M283.322,198c-.342-.342-3.846-.377-4.394-.216-.78.229-.712,1.748-.216,2.061a13.323,13.323,0,0,0,4.095.148,1.3,1.3,0,0,0,.516-1.993" transform="translate(-218.365 -154.576)" fill="#00513f"/>
        <path id="Path_876380" data-name="Path 876380" d="M222.287,138.591a27.384,27.384,0,0,1,4.76-.049c2.905.349,3.905,4.535,1.421,6.229-1.446.986-5.979,1.019-7.364-.077-2.024-1.6-1.324-5.543,1.184-6.1m.622,2.292a1.174,1.174,0,0,0-.448,1.83c.606.687,6.046,1.083,5-1.239-.379-.838-3.763-.825-4.547-.59" transform="translate(-174.033 -109.571)" fill="#00513f"/>
        <path id="Path_876381" data-name="Path 876381" d="M222.287,195.591a27.382,27.382,0,0,1,4.76-.049c2.905.349,3.905,4.535,1.421,6.229-1.446.986-5.979,1.019-7.364-.077-2.024-1.6-1.324-5.543,1.184-6.1m.622,2.292a1.174,1.174,0,0,0-.448,1.83c.606.687,6.046,1.083,5-1.239-.379-.838-3.763-.825-4.547-.59" transform="translate(-174.033 -154.677)" fill="#00513f"/>
        <path id="Path_876382" data-name="Path 876382" d="M222.775,286.5c2.858-.447,7.067-.158,6.952,3.6-.1,3.44-3.669,3.7-6.372,3.437-4.8-.463-4.639-6.406-.579-7.04m.411,2.289c-1.422.319-1.608,1.926-.159,2.367,1.221.372,5.36.439,4.288-1.786-.4-.824-3.324-.762-4.129-.581" transform="translate(-173.889 -226.595)" fill="#00513f"/>
        <path id="Path_876383" data-name="Path 876383" d="M223.15,240.761c2.352-.295,5.972-.117,6.463,2.808.7,4.165-3.43,4.535-6.519,4.226-4.45-.445-4.679-6.44.056-7.033m-.014,2.281c-1.215.271-1.659,1.947-.37,2.367.826.269,4.268.344,4.57-.682.6-2.056-2.981-1.957-4.2-1.685" transform="translate(-173.838 -190.442)" fill="#00513f"/>
        <path id="Path_876384" data-name="Path 876384" d="M28.493,98.709a32.241,32.241,0,0,1,4.924,0,1.168,1.168,0,0,1-.17,2.246,26.613,26.613,0,0,1-4.541-.039,1.159,1.159,0,0,1-.213-2.21" transform="translate(-21.976 -78.039)" fill="#00513f"/>
        <path id="Path_876385" data-name="Path 876385" d="M28.707,116.663a23.075,23.075,0,0,1,4.5,0,1.113,1.113,0,0,1,.475,2.055,20.489,20.489,0,0,1-5.189.156,1.159,1.159,0,0,1,.213-2.21" transform="translate(-21.977 -92.232)" fill="#00513f"/>
        <path id="Path_876386" data-name="Path 876386" d="M49.712,79.743a1.161,1.161,0,1,1-1.161-1.161,1.161,1.161,0,0,1,1.161,1.161" transform="translate(-37.501 -62.185)" fill="#00513f"/>
      </g>
    </g>
  </g>
</svg>
