<svg xmlns="http://www.w3.org/2000/svg" xmlns:xlink="http://www.w3.org/1999/xlink" width="151" height="151" viewBox="0 0 151 151">
  <defs>
    <clipPath id="clip-path">
      <rect id="Rectangle_404257" data-name="Rectangle 404257" width="91.019" height="76.024" fill="#00513f"/>
    </clipPath>
  </defs>
  <g id="img4" transform="translate(-505.713 -7988)">
    <g id="Group_1101010" data-name="Group 1101010" transform="translate(559.448 7988)">
      <path id="Path_875656" data-name="Path 875656" d="M235.845,10.626l-94,94v3.266h3.265l94-94V10.626Z" transform="translate(-141.847 -10.626)" fill="#00503e"/>
      <path id="Path_875657" data-name="Path 875657" d="M221.444,10.626l-79.6,79.6v6.532l86.128-86.13Z" transform="translate(-141.847 -10.626)" fill="#00503e"/>
      <path id="Path_875658" data-name="Path 875658" d="M207.043,10.626l-65.2,65.2v6.531l71.728-71.728Z" transform="translate(-141.847 -10.626)" fill="#00503e"/>
      <path id="Path_875659" data-name="Path 875659" d="M192.642,10.626l-50.8,50.8v6.531l57.327-57.328Z" transform="translate(-141.847 -10.626)" fill="#00503e"/>
      <path id="Path_875660" data-name="Path 875660" d="M178.242,10.626l-36.395,36.4v6.531l42.927-42.927Z" transform="translate(-141.847 -10.626)" fill="#00503e"/>
      <path id="Path_875661" data-name="Path 875661" d="M163.841,10.626,141.847,32.62v6.532l28.526-28.526Z" transform="translate(-141.847 -10.626)" fill="#00503e"/>
      <path id="Path_875662" data-name="Path 875662" d="M149.44,10.626l-7.593,7.593v6.532l14.125-14.125Z" transform="translate(-141.847 -10.626)" fill="#00503e"/>
      <path id="Path_875663" data-name="Path 875663" d="M268.109,151.013h6.532l7.593-7.593v-6.531Z" transform="translate(-184.97 -53.748)" fill="#00503e"/>
      <path id="Path_875664" data-name="Path 875664" d="M246.238,143.543h6.532l21.994-21.995v-6.531Z" transform="translate(-177.499 -46.278)" fill="#00503e"/>
      <path id="Path_875665" data-name="Path 875665" d="M224.368,136.074H230.9l36.394-36.4V93.147Z" transform="translate(-170.03 -38.809)" fill="#00503e"/>
      <path id="Path_875666" data-name="Path 875666" d="M202.5,128.6h6.532l50.795-50.8V71.277Z" transform="translate(-162.562 -31.34)" fill="#00503e"/>
      <path id="Path_875667" data-name="Path 875667" d="M180.628,121.135h6.531l65.2-65.2V49.407Z" transform="translate(-155.091 -23.871)" fill="#00503e"/>
      <path id="Path_875668" data-name="Path 875668" d="M158.757,113.666h6.532l79.6-79.6V27.536Z" transform="translate(-147.622 -16.401)" fill="#00503e"/>
    </g>
    <rect id="Rectangle_403642" data-name="Rectangle 403642" width="71.286" height="71.286" transform="translate(506.713 8066.713)" fill="none" stroke="#00513f" stroke-linecap="round" stroke-linejoin="round" stroke-width="2"/>
    <rect id="Rectangle_403641" data-name="Rectangle 403641" width="125.08" height="125" transform="translate(520.96 7998.713)" fill="#ccf6ec"/>
    <g id="Group_1101670" data-name="Group 1101670" transform="translate(537.713 8023.201)">
      <g id="Group_1101669" data-name="Group 1101669" clip-path="url(#clip-path)">
        <path id="Path_876443" data-name="Path 876443" d="M74.737,14.763h4.325a6.72,6.72,0,0,1,2.693,1.281,7.07,7.07,0,0,1,1.632,2.576V64.208a2.345,2.345,0,0,0,.351.351H90.05c.363,0,.777,1.125.823,1.514.4,3.378.245,9.319-4.117,9.92l-81.814.031c-5-.192-5.238-6.157-4.788-9.951.046-.39.461-1.514.823-1.514H7.29a2.346,2.346,0,0,0,.351-.351V18.62a7.071,7.071,0,0,1,1.632-2.576,6.719,6.719,0,0,1,2.693-1.281H27.98v-6.9C27.98,4.2,32.286.533,35.8.258c10.259-.8,21.612.575,31.982.066,3.09.418,6.953,4.448,6.953,7.542ZM62.347,3.073H35.578c-.081,0-1.28.5-1.5.606A6.18,6.18,0,0,0,30.815,8.6l.073,32.365c2.647,1.22,3.3-1.2,4.924-2.351,2.027-1.438,2.99,1.693,3.763,1.862.624.137,1.84-2.52,3.2-2.3,1.074.177,2.369,2.236,2.646,2.3.624.137,1.84-2.52,3.2-2.3,1.074.177,2.369,2.236,2.646,2.3.968.212,1.682-3.582,4.353-1.628,1.447,1.059,1.88,3.126,4.407,2.234l.23-.7L60.245,7.635a9.2,9.2,0,0,1,2.1-4.562m.7,4.793c-.292,2.073.216,4.753,0,6.9h8.884V8.333c0-1.592-1.961-4.134-3.45-4.731-2.412-.968-5.12,2.037-5.434,4.264m-35.068,9.7H12.434c-.551,0-1.987,1.15-1.987,1.753V64.559H80.582V19.321c0-.6-1.437-1.753-1.987-1.753H63.048V19.2H78.127c.656,0,1.144,1.383,1.061,1.978-.826,12.865,1.069,27.051,0,39.761-.1,1.238-.317,2.022-1.752,1.989H13.592c-1.432.033-1.649-.751-1.752-1.989-1.054-12.726.815-26.885,0-39.761-.083-.6.4-1.978,1.061-1.978H27.98Zm0,4.442H14.888V60.117H76.14V22.01H63.048V42.934c0,1.411-4.931,1.2-5.948,1.039-1.115-.177-1.96-1.646-2.819-2.32-2.48,2.952-3.367,2.949-5.845,0-2.48,2.952-3.367,2.949-5.845,0-.771.588-1.84,2.268-2.822,2.332-1.305.085-2.277-2.108-3.022-2.109-.8,0-1.191,1.879-2.585,2.1-.864.136-4.985.125-5.573-.245a2.306,2.306,0,0,1-.609-.794ZM55.1,67.364c-.352,1.254-.881,4.081-2.271,4.392-4.566-.224-9.726.469-14.222.061-2.579-.234-1.768-2.768-3.028-4.453H3.2v4.559a6.344,6.344,0,0,0,1.229,1.109c27.342.294,54.831.294,82.173,0a6.344,6.344,0,0,0,1.229-1.109V67.364Zm-3.039,0H38.734c.339.467.222,1.432.809,1.418H51.682Z" transform="translate(0 0)" fill="#00513f"/>
        <path id="Path_876444" data-name="Path 876444" d="M145.423,38.359l21.355.053a1.369,1.369,0,0,1,.907,1.2,35.894,35.894,0,0,1-.091,6.426,1.226,1.226,0,0,1-1.169.935l-21.241-.057a1.614,1.614,0,0,1-.85-1.254,35.21,35.21,0,0,1-.024-5.608c.077-.844.18-1.451,1.113-1.692m1.692,5.795h17.79V41.1h-17.79Z" transform="translate(-110.496 -29.391)" fill="#00513f"/>
        <path id="Path_876445" data-name="Path 876445" d="M145.836,88.18l20.761-.054a1.416,1.416,0,0,1,.241,2.821h-20.83a1.406,1.406,0,0,1-.172-2.767" transform="translate(-110.909 -67.523)" fill="#00513f"/>
        <path id="Path_876446" data-name="Path 876446" d="M145.836,113.18l20.761-.054a1.416,1.416,0,0,1,.241,2.821h-20.83a1.406,1.406,0,0,1-.172-2.767" transform="translate(-110.909 -86.679)" fill="#00513f"/>
        <path id="Path_876447" data-name="Path 876447" d="M145.861,137.767a62.856,62.856,0,0,1,9.053-.035,1.416,1.416,0,0,1,.242,2.785,73.9,73.9,0,0,1-9.341,0,1.424,1.424,0,0,1,.045-2.75" transform="translate(-110.934 -105.421)" fill="#00513f"/>
        <path id="Path_876448" data-name="Path 876448" d="M202.228,138c1.155-.262,3.209-.15,3.1,1.453-.1,1.554-2.24,1.518-3.382,1.3-1.45-.28-1.272-2.4.278-2.75" transform="translate(-153.976 -105.658)" fill="#00513f"/>
      </g>
    </g>
  </g>
</svg>
