<svg xmlns="http://www.w3.org/2000/svg" xmlns:xlink="http://www.w3.org/1999/xlink" width="151" height="150.999" viewBox="0 0 151 150.999">
  <defs>
    <clipPath id="clip-path">
      <rect id="Rectangle_404250" data-name="Rectangle 404250" width="71.946" height="80.023" fill="#00513f"/>
    </clipPath>
  </defs>
  <g id="img41" transform="translate(-505.713 -7988)">
    <g id="Group_1101010" data-name="Group 1101010" transform="translate(559.448 7988)">
      <path id="Path_875656" data-name="Path 875656" d="M235.845,10.626l-94,94v3.266h3.265l94-94V10.626Z" transform="translate(-141.847 -10.626)" fill="#00503e"/>
      <path id="Path_875657" data-name="Path 875657" d="M221.444,10.626l-79.6,79.6v6.532l86.128-86.13Z" transform="translate(-141.847 -10.626)" fill="#00503e"/>
      <path id="Path_875658" data-name="Path 875658" d="M207.043,10.626l-65.2,65.2v6.531l71.728-71.728Z" transform="translate(-141.847 -10.626)" fill="#00503e"/>
      <path id="Path_875659" data-name="Path 875659" d="M192.642,10.626l-50.8,50.8v6.531l57.327-57.328Z" transform="translate(-141.847 -10.626)" fill="#00503e"/>
      <path id="Path_875660" data-name="Path 875660" d="M178.242,10.626l-36.395,36.4v6.531l42.927-42.927Z" transform="translate(-141.847 -10.626)" fill="#00503e"/>
      <path id="Path_875661" data-name="Path 875661" d="M163.841,10.626,141.847,32.62v6.532l28.526-28.526Z" transform="translate(-141.847 -10.626)" fill="#00503e"/>
      <path id="Path_875662" data-name="Path 875662" d="M149.44,10.626l-7.593,7.593v6.532l14.125-14.125Z" transform="translate(-141.847 -10.626)" fill="#00503e"/>
      <path id="Path_875663" data-name="Path 875663" d="M268.109,151.013h6.532l7.593-7.593v-6.531Z" transform="translate(-184.97 -53.748)" fill="#00503e"/>
      <path id="Path_875664" data-name="Path 875664" d="M246.238,143.543h6.532l21.994-21.995v-6.531Z" transform="translate(-177.499 -46.278)" fill="#00503e"/>
      <path id="Path_875665" data-name="Path 875665" d="M224.368,136.074H230.9l36.394-36.4V93.147Z" transform="translate(-170.03 -38.809)" fill="#00503e"/>
      <path id="Path_875666" data-name="Path 875666" d="M202.5,128.6h6.532l50.795-50.8V71.277Z" transform="translate(-162.562 -31.34)" fill="#00503e"/>
      <path id="Path_875667" data-name="Path 875667" d="M180.628,121.135h6.531l65.2-65.2V49.407Z" transform="translate(-155.091 -23.871)" fill="#00503e"/>
      <path id="Path_875668" data-name="Path 875668" d="M158.757,113.666h6.532l79.6-79.6V27.536Z" transform="translate(-147.622 -16.401)" fill="#00503e"/>
    </g>
    <rect id="Rectangle_403642" data-name="Rectangle 403642" width="71.286" height="71.286" transform="translate(506.713 8066.713)" fill="none" stroke="#00513f" stroke-linecap="round" stroke-linejoin="round" stroke-width="2"/>
    <rect id="Rectangle_403641" data-name="Rectangle 403641" width="125.08" height="125" transform="translate(520.96 7998.713)" fill="#ccf6ec"/>
    <g id="Group_1101012" data-name="Group 1101012" transform="translate(539.561 8017.515)">
      <g id="Group_1099618" data-name="Group 1099618" transform="translate(0 0)">
        <rect id="Rectangle_401104" data-name="Rectangle 401104" width="83.401" height="84.406" fill="none"/>
      </g>
      <g id="Group_1101654" data-name="Group 1101654" transform="translate(5.728 2.192)">
        <g id="Group_1101653" data-name="Group 1101653" clip-path="url(#clip-path)">
          <path id="Path_876387" data-name="Path 876387" d="M59.193,15.421h7.09c2.517,0,5.8,3.431,5.659,6.055l-.03,39.646c.1,2.058-3.074,5.673-5.012,5.673H47.069l2.5,5.1c2.145.261,4.644-.523,6.53.766,3.285,2.245,1.6,6.789-2.341,7.085-11.529.868-24.132-.675-35.773,0a3.89,3.89,0,0,1-2.014-7.168c1.849-1.176,4.327-.424,6.407-.683l2.5-5.1H5.044C3.106,66.8-.069,63.18.032,61.122L0,21.476c-.11-2.609,3.124-6.055,5.659-6.055h7.09V12.955H2.784a2.062,2.062,0,0,1-.308-.308V6.482A6.848,6.848,0,0,1,8.354.031L52.729,0a6.823,6.823,0,0,1,6.464,6.482ZM12.751,10.284V5.249c0-.526-1.426-1.889-1.947-2.163A3.916,3.916,0,0,0,5.52,4.8c-.07.158-.373,1.005-.373,1.066v4.418ZM56.521,34.121V5.865c0-1.1-1.88-3.185-2.98-3.185H14.189a8.97,8.97,0,0,1,1.233,2.774v48.6H36.794c-11.662-8.724-4.947-27.01,9.758-25.684,3.934.355,7.517,2.8,9.97,5.751M12.751,18.093h-7.3c-.782,0-2.889,1.958-2.779,2.975l.1,40.6c.141,1.073,2.155,2.666,3.088,2.666H48.918c-.426-2.174.586-4.778,3-5.12a58.636,58.636,0,0,1,8.827-.026c2.751.242,3.773,2.633,3.381,5.147,2.1.2,4.334-.515,5.041-2.667l.1-40.6c.11-1.017-2-2.975-2.779-2.975h-7.3v2.466h5.446A2.985,2.985,0,0,1,66.7,22.4l.1,31.755a2.568,2.568,0,0,1-2.353,2.373c-19.262-.125-38.573.2-57.8-.165a2.794,2.794,0,0,1-1.5-2.406l0-31.043A2.869,2.869,0,0,1,7.3,20.559h5.446ZM7.819,54.055h4.932V23.23H7.819Zm51.374,0h4.932V23.23H59.193ZM56.51,42.442a11.55,11.55,0,1,0-11.55,11.55,11.55,11.55,0,0,0,11.55-11.55m.011,11.613V50.767l-3.288,3.288ZM52.557,61.7c-1.657.372-1.489,2.353.174,2.617a49.94,49.94,0,0,0,7.58,0,1.324,1.324,0,1,0,0-2.648,53.189,53.189,0,0,0-7.754.032m-5.9,10.232-2.6-5.11-15.807-.039L27.647,67l-2.361,4.934ZM17.624,74.648a1.23,1.23,0,0,0,.363,2.426h35.97a1.24,1.24,0,1,0,0-2.474Z" transform="translate(0)" fill="#00513f"/>
          <path id="Path_876388" data-name="Path 876388" d="M153.408,45.593H125.049V35.318h7.5a2.062,2.062,0,0,1,.308.308v7.5h2.466V30.18h7.5a2.062,2.062,0,0,1,.308.308V43.127H145.6V25.043h7.5a2.062,2.062,0,0,1,.308.308Zm-2.671-17.878H148.27V43.127h2.466Zm-10.275,5.137H138V43.127h2.466Zm-10.275,5.137H127.72v5.137h2.466Z" transform="translate(-99.352 -19.897)" fill="#00513f"/>
          <rect id="Rectangle_404242" data-name="Rectangle 404242" width="10.48" height="2.466" transform="translate(17.888 28.367)" fill="#00513f"/>
          <rect id="Rectangle_404243" data-name="Rectangle 404243" width="10.48" height="2.466" transform="translate(17.888 33.505)" fill="#00513f"/>
          <rect id="Rectangle_404244" data-name="Rectangle 404244" width="10.48" height="2.466" transform="translate(17.888 38.642)" fill="#00513f"/>
          <rect id="Rectangle_404245" data-name="Rectangle 404245" width="10.48" height="2.466" transform="translate(17.888 43.78)" fill="#00513f"/>
          <rect id="Rectangle_404246" data-name="Rectangle 404246" width="10.48" height="2.466" transform="translate(17.888 48.917)" fill="#00513f"/>
          <path id="Path_876389" data-name="Path 876389" d="M89.451,24.844v2.674c-2.062-.047-3,.6-2.682-1.964.157-1.262,1.694-.528,2.682-.71" transform="translate(-68.89 -19.699)" fill="#00513f"/>
          <path id="Path_876390" data-name="Path 876390" d="M89.451,49.844v2.674c-2.062-.047-3,.6-2.682-1.964.157-1.262,1.694-.528,2.682-.71" transform="translate(-68.89 -39.561)" fill="#00513f"/>
          <path id="Path_876391" data-name="Path 876391" d="M89.451,74.844v2.674c-2.062-.047-3,.6-2.682-1.964.157-1.262,1.694-.528,2.682-.71" transform="translate(-68.89 -59.424)" fill="#00513f"/>
          <rect id="Rectangle_404247" data-name="Rectangle 404247" width="2.679" height="2.473" transform="translate(7.61 59.188)" fill="#00513f"/>
          <rect id="Rectangle_404248" data-name="Rectangle 404248" width="2.679" height="2.473" transform="translate(12.747 59.188)" fill="#00513f"/>
          <rect id="Rectangle_404249" data-name="Rectangle 404249" width="2.679" height="2.473" transform="translate(17.885 59.188)" fill="#00513f"/>
          <path id="Path_876392" data-name="Path 876392" d="M205.185,163.039v2.877c0,.052.687.177.965.37,1.158.8,1.376,1.817,1.706,3.122-.726-.116-1.889.166-2.534.011-.247-.06-.289-.917-.753-1.14-.513-.247-1.286-.045-1.851-.1-.414,3.154,1.009,2.043,2.925,2.933a4.14,4.14,0,0,1,2.188,3.566,18.435,18.435,0,0,1,0,3.439c-.209.638-2.062.225-2.644.336l0,2.468h-2.672V178.04a3.248,3.248,0,0,1-2.466-3.492c.693.127,1.959-.176,2.546-.014.267.074.091.812.467,1.058.51.333,1.526.141,2.125.189.037-.659.093-2.036-.616-2.365-.854-.4-1.772-.019-2.979-.925a5.255,5.255,0,0,1-1.543-2.362V165.5h2.467l0-2.468Z" transform="translate(-158.938 -129.534)" fill="#00513f"/>
          <path id="Path_876393" data-name="Path 876393" d="M177.458,201.531a1.3,1.3,0,1,1-1.3-1.3,1.3,1.3,0,0,1,1.3,1.3" transform="translate(-138.93 -159.087)" fill="#00513f"/>
          <path id="Path_876394" data-name="Path 876394" d="M252.458,201.531a1.3,1.3,0,1,1-1.3-1.3,1.3,1.3,0,0,1,1.3,1.3" transform="translate(-198.518 -159.087)" fill="#00513f"/>
        </g>
      </g>
    </g>
  </g>
</svg>
